<svg xmlns="http://www.w3.org/2000/svg" xmlns:xlink="http://www.w3.org/1999/xlink" viewBox="0 0 271 474"><defs><style>.cls-1,.cls-8{fill:none;}.cls-2{fill:#3c3f3c;}.cls-3{fill:#414441;}.cls-4{fill:url(#Nueva_muestra_de_motivo_6);}.cls-5{fill:#666;}.cls-6{fill:#fff;}.cls-7{fill:#6dbe46;}.cls-8{stroke:#999;stroke-miterlimit:10;stroke-width:2px;}.cls-9{fill:#999;}</style><pattern id="Nueva_muestra_de_motivo_6" data-name="Nueva muestra de motivo 6" width="80" height="80" patternTransform="translate(167 -0.5)" patternUnits="userSpaceOnUse" viewBox="0 0 80 80"><rect class="cls-1" width="80" height="80"/><rect class="cls-2" width="80" height="80"/><path class="cls-3" d="M1.33,53.29l12-12,12,12-2,2-10-10-10,10Zm25.33-44,8,8-2,2-6-6-6,6-2-2ZM7.33,32.64l-2-2,8-8,8,8-2,2-6-6Zm6,6-4-4,4-4,4,4ZM26.67,52l-4-4,4-4,4,4Zm32.67-6-6-6-6,6-2-2,8-8,8,8Zm-2-24.65-4,4-4-4,4-4ZM53.33,52l-4-4,4-4,4,4Zm10-10-10-10-10,10-2-2,12-12,12,12Zm-4-22.65-6-6-6,6-2-2,8-8,8,8ZM70.67,34.64l-4,4-4-4,4-4Zm6,20.65-10-10-10,10-2-2,12-12,12,12Zm-4,4-6-6-6,6-2-2,8-8,8,8Zm4-30.64-10-10-10,10-2-2,12-12,12,12ZM13.33,65.28l-4-4,4-4,4,4Zm53.33,0-4-4,4-4,4,4Zm-59.33-6-2-2,8-8,8,8-2,2-6-6Zm32.67,6-4-4,4-4,4,4ZM72.67,32.64l-6-6-6,6-2-2,8-8,8,8Zm-36,36-10-10-10,10-2-2,12-12,12,12ZM17.33,8l-4,4-4-4,4-4Zm-16,18.65,12-12,12,12-2,2-10-10-10,10Zm52,36,8,8-2,2-6-6-6,6-2-2Zm-26.67,0,8,8-2,2-6-6-6,6-2-2ZM76.67,2l-2-2h4Zm-4,4-6-6h4l4,4ZM63.33,68.61l-10-10-10,10-2-2,12-12,12,12ZM58.67,4l4-4h4l-6,6ZM50,55.29l-10-10-10,10-2-2,12-12,12,12ZM46,32.64l-6-6-6,6-2-2,8-8,8,8ZM30.67,21.32l-4,4-4-4,4-4ZM28,26.64l12-12,12,12-2,2-10-10-10,10ZM14.67,40l12-12,12,12-2,2-10-10-10,10ZM40,30.64l4,4-4,4-4-4Zm0,18.65,8,8-2,2-6-6-6,6-2-2ZM44,8l-4,4L36,8l4-4ZM20.67,46l-2-2,8-8,8,8-2,2-6-6ZM76,48l4-4v8ZM57.33,74.61l-4,4-4-4,4-4ZM40,67.94l12,12-.07.07H48.07L40,71.94,31.93,80H28.07L28,79.93Zm26.67,8L70.73,80h-4l-.07-.07L66.6,80h-4ZM40,75.94,44.07,80h-4L40,79.93l-.07.07h-4Zm-9.33-1.33-4,4-4-4,4-4ZM70.67,8l-4,4-4-4,4-4ZM4,74.61l-4,4v-8Zm9.33-6.66,12,12-.07.07H21.4l-8.07-8.06L5.27,80H1.4l-.07-.07Zm53.33,0,12,12L78.6,80H74.73l-8.07-8.06L58.6,80H54.73l-.07-.07ZM72,70.61l8-8v4l-6,6ZM68,40,80,28v4L70,42Zm8-18.65,4-4v8Zm-4-4,8-8v4l-6,6Zm4,57.29,4-4v8ZM80,1.33v4l-10,10-2-2ZM72,44l8-8v4l-6,6ZM6,72.61l-6-6v-4l8,8Zm62-6,12-12v4l-10,10ZM13.33,75.94,17.4,80h-4l-.07-.07-.07.07h-4ZM30,2,28,0h4Zm2,2,4-4h4L34,6ZM14.67,13.32l12-12,12,12-2,2-10-10-10,10ZM23.33,2l-2-2h4Zm18,11.32,12-12,12,12-2,2-10-10-10,10ZM10,68.61l-10-10v-4l12,12ZM19.33,6l-6-6h4l4,4ZM50,2,48,0h4ZM46,6,40,0h4l4,4ZM56.67,2l-2-2h4ZM6,46,0,40V36l8,8Zm4-4L0,32V28L12,40ZM4,21.32l-4,4v-8ZM5.33,4l4-4h4l-6,6ZM4,48,0,52V44ZM3.33,2l-2-2h4ZM6,19.32l-6-6v-4l8,8Zm4-4L0,5.33v-4l12,12Z"/></pattern></defs><title>featuredfr_1</title><g id="Capa_2" data-name="Capa 2"><g id="Layer_2" data-name="Layer 2"><rect class="cls-4" width="271" height="474"/><path class="cls-5" d="M259,11.29V462.71H12V11.29H259m2-2H10V464.71H261V9.29Z"/><path class="cls-6" d="M70,208.64v7.51H65.63V194.82H74a9.63,9.63,0,0,1,4.23.88,6.48,6.48,0,0,1,2.8,2.5,7,7,0,0,1,1,3.68,6.12,6.12,0,0,1-2.15,4.94,8.94,8.94,0,0,1-5.94,1.81Zm0-3.56H74a3.86,3.86,0,0,0,2.66-.82,3,3,0,0,0,.92-2.34,3.52,3.52,0,0,0-.92-2.53,3.45,3.45,0,0,0-2.55-1H70Z"/><path class="cls-6" d="M92.88,208.34h-3.5v7.81H85V194.82h7.92a9,9,0,0,1,5.83,1.68,5.81,5.81,0,0,1,2.05,4.76,6.57,6.57,0,0,1-.94,3.64A6.45,6.45,0,0,1,97,207.23l4.61,8.72v.21H96.88Zm-3.5-3.56h3.54a3.63,3.63,0,0,0,2.56-.84,3,3,0,0,0,.91-2.32,3.23,3.23,0,0,0-.86-2.37,3.56,3.56,0,0,0-2.63-.86H89.38Z"/><path class="cls-6" d="M121.65,206a12.88,12.88,0,0,1-1.11,5.52,8.39,8.39,0,0,1-3.19,3.66,9.42,9.42,0,0,1-9.49,0,8.47,8.47,0,0,1-3.22-3.64,12.51,12.51,0,0,1-1.16-5.44V205a12.8,12.8,0,0,1,1.13-5.54,8.45,8.45,0,0,1,3.21-3.68,9.4,9.4,0,0,1,9.48,0,8.46,8.46,0,0,1,3.21,3.68,12.78,12.78,0,0,1,1.13,5.53Zm-4.45-1a9,9,0,0,0-1.2-5.1,4.24,4.24,0,0,0-6.84,0,8.88,8.88,0,0,0-1.22,5v1a9.09,9.09,0,0,0,1.2,5.07,4.21,4.21,0,0,0,6.86.07,9,9,0,0,0,1.2-5.06Z"/><path class="cls-6" d="M124.84,216.15V194.82h6.56a10,10,0,0,1,5,1.27,8.83,8.83,0,0,1,3.46,3.6,11.11,11.11,0,0,1,1.25,5.31v1a11.15,11.15,0,0,1-1.22,5.29,8.76,8.76,0,0,1-3.45,3.59,10,10,0,0,1-5,1.29Zm4.39-17.77v14.24h2.12a4.77,4.77,0,0,0,3.94-1.68,7.61,7.61,0,0,0,1.39-4.82V205a7.74,7.74,0,0,0-1.35-4.93,4.76,4.76,0,0,0-3.94-1.68Z"/><path class="cls-6" d="M160.48,194.82v14a7.2,7.2,0,0,1-2.19,5.54,8.45,8.45,0,0,1-6,2,8.54,8.54,0,0,1-5.93-2,7.07,7.07,0,0,1-2.24-5.43V194.82h4.39V208.9a4.06,4.06,0,0,0,1,3.05,3.85,3.85,0,0,0,2.78,1q3.71,0,3.76-3.9V194.82Z"/><path class="cls-6" d="M168.76,216.15h-4.39V194.82h4.39Z"/><path class="cls-6" d="M188.46,198.38h-6.53v17.77h-4.39V198.38h-6.45v-3.56h17.37Z"/><path class="cls-6" d="M201.79,210.56a2.26,2.26,0,0,0-.88-1.91,11.59,11.59,0,0,0-3.16-1.41,22.34,22.34,0,0,1-3.62-1.46q-3.63-2-3.63-5.29a5.14,5.14,0,0,1,1-3.08,6.35,6.35,0,0,1,2.8-2.12,10.54,10.54,0,0,1,4.09-.76,9.59,9.59,0,0,1,4.07.83,6.49,6.49,0,0,1,2.78,2.34,6.12,6.12,0,0,1,1,3.43h-4.39a2.87,2.87,0,0,0-.92-2.28,3.79,3.79,0,0,0-2.59-.81,4.06,4.06,0,0,0-2.5.68,2.15,2.15,0,0,0-.89,1.79,2.06,2.06,0,0,0,1,1.74,11.84,11.84,0,0,0,3.08,1.32,13.32,13.32,0,0,1,5.46,2.8,5.57,5.57,0,0,1,1.71,4.16,5.13,5.13,0,0,1-2.09,4.34,9.17,9.17,0,0,1-5.64,1.57,10.91,10.91,0,0,1-4.48-.9,7.1,7.1,0,0,1-3.08-2.47,6.32,6.32,0,0,1-1.06-3.63h4.41q0,3.53,4.22,3.53a4.1,4.1,0,0,0,2.45-.64A2.07,2.07,0,0,0,201.79,210.56Z"/><path class="cls-6" d="M63.78,242.88H55.34v5.74h9.9v3.53H50.95V230.82H65.22v3.56H55.34v5.08h8.44Z"/><path class="cls-6" d="M85.17,252.15H80.77l-8.55-14v14H67.82V230.82h4.39l8.57,14.06V230.82h4.38Z"/><path class="cls-6" d="M104.36,246.86l4.83-16h4.89l-7.43,21.33h-4.58l-7.4-21.33h4.88Z"/><path class="cls-6" d="M128.92,242.88h-8.44v5.74h9.9v3.53h-14.3V230.82h14.27v3.56h-9.87v5.08h8.44Z"/><path class="cls-6" d="M133,252.15V230.82h6.56a10,10,0,0,1,5,1.27,8.83,8.83,0,0,1,3.46,3.6,11.11,11.11,0,0,1,1.25,5.31v1a11.15,11.15,0,0,1-1.22,5.29,8.76,8.76,0,0,1-3.45,3.59,10,10,0,0,1-5,1.29Zm4.39-17.77v14.24h2.12a4.77,4.77,0,0,0,3.94-1.68,7.61,7.61,0,0,0,1.39-4.82V241a7.74,7.74,0,0,0-1.35-4.93,4.76,4.76,0,0,0-3.94-1.68Z"/><path class="cls-6" d="M165.29,242.88h-8.44v5.74h9.9v3.53h-14.3V230.82h14.27v3.56h-9.87v5.08h8.44Z"/><path class="cls-6" d="M185.69,234.38h-6.53v17.77h-4.39V234.38h-6.45v-3.56h17.37Z"/><path class="cls-6" d="M204.48,234.38h-6.53v17.77h-4.39V234.38h-6.45v-3.56h17.37Z"/><path class="cls-6" d="M219.82,242.88h-8.44v5.74h9.9v3.53H207V230.82h14.27v3.56h-9.87v5.08h8.44Z"/><path class="cls-6" d="M96.66,181.83l3.25-9.38h1.64l-4.22,11.38H96l-4.21-11.37h1.63Z"/><path class="cls-6" d="M102.1,179.51a5,5,0,0,1,.49-2.23,3.64,3.64,0,0,1,1.36-1.53,3.7,3.7,0,0,1,2-.54,3.56,3.56,0,0,1,2.79,1.2,4.6,4.6,0,0,1,1.07,3.18v.1a5,5,0,0,1-.47,2.21,3.59,3.59,0,0,1-1.35,1.53,3.74,3.74,0,0,1-2,.55,3.56,3.56,0,0,1-2.79-1.2,4.58,4.58,0,0,1-1.07-3.16Zm1.45.17a3.62,3.62,0,0,0,.65,2.26,2.21,2.21,0,0,0,3.5,0,4,4,0,0,0,.65-2.42,3.61,3.61,0,0,0-.66-2.25,2.1,2.1,0,0,0-1.75-.86,2.08,2.08,0,0,0-1.73.85A3.92,3.92,0,0,0,103.56,179.68Z"/><path class="cls-6" d="M111.62,173.12a.86.86,0,0,1,.21-.59.81.81,0,0,1,.64-.24.82.82,0,0,1,.64.24.85.85,0,0,1,.22.59.86.86,0,1,1-1.71,0Zm1.56,10.7h-1.45v-8.45h1.45Z"/><path class="cls-6" d="M119.58,176.66a4.37,4.37,0,0,0-.71-.05,1.9,1.9,0,0,0-1.93,1.21v6H115.5v-8.45h1.41l0,1a2.25,2.25,0,0,1,2-1.13,1.47,1.47,0,0,1,.64.11Z"/><path class="cls-6" d="M126.83,173.32v2h1.58v1.12h-1.58v5.25a1.17,1.17,0,0,0,.21.76.89.89,0,0,0,.72.25,3.5,3.5,0,0,0,.69-.09v1.17a4.21,4.21,0,0,1-1.11.16,1.8,1.8,0,0,1-1.46-.59,2.52,2.52,0,0,1-.49-1.66v-5.24h-1.54v-1.12h1.54v-2Z"/><path class="cls-6" d="M129.56,179.51a5,5,0,0,1,.49-2.23,3.64,3.64,0,0,1,1.36-1.53,3.7,3.7,0,0,1,2-.54,3.56,3.56,0,0,1,2.79,1.2,4.6,4.6,0,0,1,1.07,3.18v.1a5,5,0,0,1-.47,2.21,3.59,3.59,0,0,1-1.35,1.53,3.74,3.74,0,0,1-2,.55,3.56,3.56,0,0,1-2.79-1.2,4.58,4.58,0,0,1-1.07-3.16Zm1.45.17a3.62,3.62,0,0,0,.65,2.26,2.21,2.21,0,0,0,3.5,0,4,4,0,0,0,.65-2.42,3.61,3.61,0,0,0-.66-2.25,2.1,2.1,0,0,0-1.75-.86,2.08,2.08,0,0,0-1.73.85A3.92,3.92,0,0,0,131,179.68Z"/><path class="cls-6" d="M144.28,183a3.07,3.07,0,0,1-2.48,1,2.63,2.63,0,0,1-2.06-.79,3.39,3.39,0,0,1-.71-2.32v-5.5h1.45v5.46q0,1.92,1.56,1.92a2.16,2.16,0,0,0,2.2-1.23v-6.15h1.45v8.45h-1.37Z"/><path class="cls-6" d="M152.81,181.58a1.06,1.06,0,0,0-.44-.91,4.25,4.25,0,0,0-1.54-.56,7.28,7.28,0,0,1-1.74-.56,2.48,2.48,0,0,1-1-.78,1.86,1.86,0,0,1-.31-1.08,2.19,2.19,0,0,1,.88-1.76,3.43,3.43,0,0,1,2.25-.72,3.53,3.53,0,0,1,2.33.74,2.36,2.36,0,0,1,.89,1.9h-1.45a1.3,1.3,0,0,0-.5-1,1.89,1.89,0,0,0-1.27-.43,2,2,0,0,0-1.23.34,1.08,1.08,0,0,0-.45.9.88.88,0,0,0,.41.79,5.09,5.09,0,0,0,1.5.51,7.8,7.8,0,0,1,1.75.58,2.55,2.55,0,0,1,1,.81,2,2,0,0,1,.32,1.15,2.16,2.16,0,0,1-.91,1.82A3.8,3.8,0,0,1,151,184a4.26,4.26,0,0,1-1.8-.36,2.92,2.92,0,0,1-1.22-1,2.42,2.42,0,0,1-.44-1.39H149a1.5,1.5,0,0,0,.58,1.15,2.26,2.26,0,0,0,1.43.43,2.33,2.33,0,0,0,1.32-.33A1,1,0,0,0,152.81,181.58Z"/><path class="cls-6" d="M161.67,183.82h-1.45v-12h1.45Z"/><path class="cls-6" d="M167.49,184a3.69,3.69,0,0,1-2.8-1.13,4.19,4.19,0,0,1-1.08-3v-.27a5.07,5.07,0,0,1,.48-2.25,3.75,3.75,0,0,1,1.34-1.55,3.38,3.38,0,0,1,1.87-.56,3.17,3.17,0,0,1,2.56,1.09,4.7,4.7,0,0,1,.91,3.11v.6h-5.73a3,3,0,0,0,.73,2,2.3,2.3,0,0,0,1.78.77,2.52,2.52,0,0,0,1.3-.31,3.25,3.25,0,0,0,.93-.83l.88.69A3.55,3.55,0,0,1,167.49,184Zm-.18-7.58a1.93,1.93,0,0,0-1.47.64,3.1,3.1,0,0,0-.73,1.79h4.23v-.11a2.75,2.75,0,0,0-.59-1.71A1.82,1.82,0,0,0,167.31,176.4Z"/><path class="cls-6" d="M177.38,181.58a1.06,1.06,0,0,0-.44-.91,4.25,4.25,0,0,0-1.54-.56,7.28,7.28,0,0,1-1.74-.56,2.48,2.48,0,0,1-1-.78,1.86,1.86,0,0,1-.31-1.08,2.19,2.19,0,0,1,.88-1.76,3.43,3.43,0,0,1,2.25-.72,3.53,3.53,0,0,1,2.33.74,2.36,2.36,0,0,1,.89,1.9h-1.45a1.3,1.3,0,0,0-.5-1,1.89,1.89,0,0,0-1.27-.43,2,2,0,0,0-1.23.34,1.08,1.08,0,0,0-.45.9.88.88,0,0,0,.41.79,5.09,5.09,0,0,0,1.5.51,7.8,7.8,0,0,1,1.75.58,2.55,2.55,0,0,1,1,.81,2,2,0,0,1,.32,1.15,2.16,2.16,0,0,1-.91,1.82,3.8,3.8,0,0,1-2.35.68,4.26,4.26,0,0,1-1.8-.36,2.92,2.92,0,0,1-1.22-1,2.42,2.42,0,0,1-.44-1.39h1.45a1.5,1.5,0,0,0,.58,1.15,2.26,2.26,0,0,0,1.43.43,2.33,2.33,0,0,0,1.32-.33A1,1,0,0,0,177.38,181.58Z"/><path class="cls-7" d="M124.3,118.61h1.44l.72-1.24a5.79,5.79,0,0,1,1.38-1.58L134,104.43l-7.31-13.57a2.89,2.89,0,0,0-3.56-1.34l-11.66,4.34a2.9,2.9,0,0,0-1.73,1.79,2.86,2.86,0,0,0,.3,2.47l13,20.64a5.64,5.64,0,0,1,1.27-.15Zm0,0"/><path class="cls-7" d="M161.5,95.65a2.89,2.89,0,0,0-1.73-1.79L148.1,89.52a2.89,2.89,0,0,0-3.56,1.34L131.82,114.5a5.76,5.76,0,0,1,2.52.74l1.25.71,1.25-.71a5.79,5.79,0,0,1,7.88,2.11l.72,1.25h1.44a5.69,5.69,0,0,1,1.27.15l13-20.64a2.89,2.89,0,0,0,.3-2.47Zm0,0"/><path class="cls-7" d="M152.44,129l-2.67-1.56,0-3.09a2.89,2.89,0,0,0-2.88-2.88h-3.09l-1.56-2.68a2.9,2.9,0,0,0-3.94-1.05l-2.69,1.54-2.68-1.54a2.9,2.9,0,0,0-3.93,1.05l-1.56,2.67-3.09,0a2.91,2.91,0,0,0-2.88,2.88v3.09L118.75,129A2.89,2.89,0,0,0,117.7,133l1.53,2.68-1.53,2.69a2.89,2.89,0,0,0,1.05,3.94l2.67,1.56v3.09a2.9,2.9,0,0,0,2.88,2.88h3.09L129,152.5a2.9,2.9,0,0,0,3.93,1.05l2.68-1.54,2.69,1.54a2.89,2.89,0,0,0,3.94-1.05l1.56-2.68h3.09a2.89,2.89,0,0,0,2.88-2.88l0-3.09,2.67-1.56a2.9,2.9,0,0,0,1.05-3.94L152,135.66l1.54-2.68a2.9,2.9,0,0,0-1.05-3.94Zm-5.83,4.42-5.51,4,2.1,6.48a1.35,1.35,0,0,1-.49,1.52,1.37,1.37,0,0,1-.81.26,1.33,1.33,0,0,1-.8-.26l-5.52-4-5.51,4a1.36,1.36,0,0,1-2.1-1.52l2.11-6.48-5.52-4a1.35,1.35,0,0,1-.49-1.52,1.36,1.36,0,0,1,1.3-.94h6.81l2.11-6.48a1.37,1.37,0,0,1,2.6,0L139,131h6.82a1.36,1.36,0,0,1,.8,2.46Zm0,0"/><circle class="cls-8" cx="135.5" cy="383" r="15"/><path class="cls-9" d="M138.88,383a.39.39,0,0,1-.12.28L133,389a.39.39,0,0,1-.56,0l-.61-.61a.39.39,0,0,1,0-.57l4.83-4.82-4.83-4.83a.39.39,0,0,1,0-.56l.61-.61a.39.39,0,0,1,.56,0l5.72,5.72A.39.39,0,0,1,138.88,383Z"/></g></g></svg>