<?xml version="1.0" encoding="utf-8"?>
<!-- Generator: Adobe Illustrator 21.1.0, SVG Export Plug-In . SVG Version: 6.00 Build 0)  -->
<svg version="1.1" id="Capa_1" xmlns="http://www.w3.org/2000/svg" xmlns:xlink="http://www.w3.org/1999/xlink" x="0px" y="0px"
	 viewBox="0 0 55 55" style="enable-background:new 0 0 55 55;" xml:space="preserve">
<style type="text/css">
	.st0{fill:#6DBE46;}
</style>
<g>
	<path class="st0" d="M27.5,47.8c-6.1,0-11.8-2.7-15.6-7.3c-0.3-0.3-0.2-0.8,0.1-1.1l3.6-3.7c0.2-0.2,0.4-0.2,0.7-0.2
		c0.2,0,0.5,0.1,0.6,0.3c2.6,3.4,6.5,5.3,10.7,5.3c7.5,0,13.6-6.1,13.6-13.6S35,13.9,27.5,13.9c-3.5,0-6.8,1.3-9.2,3.6l3.6,3.7
		c0.5,0.5,0.6,1.2,0.4,1.8c-0.3,0.6-0.9,1.1-1.6,1.1H8.9c-0.9,0-1.7-0.8-1.7-1.7V10.6c0-0.7,0.4-1.3,1.1-1.6
		c0.6-0.3,1.4-0.1,1.8,0.4l3.4,3.4c3.7-3.5,8.8-5.6,14-5.6c11.2,0,20.3,9.1,20.3,20.3S38.7,47.8,27.5,47.8z"/>
</g>
</svg>
