<?xml version="1.0" encoding="utf-8"?>
<!-- Generator: Adobe Illustrator 21.1.0, SVG Export Plug-In . SVG Version: 6.00 Build 0)  -->
<svg version="1.1" id="Capa_1" xmlns="http://www.w3.org/2000/svg" xmlns:xlink="http://www.w3.org/1999/xlink" x="0px" y="0px"
	 viewBox="0 0 55 55" style="enable-background:new 0 0 55 55;" xml:space="preserve">
<style type="text/css">
	.st0{fill:#6DBE46;}
</style>
<g>
	<path class="st0" d="M20.7,37.7c0,0.6-0.5,1.1-1.1,1.1c-0.6,0-1.1-0.5-1.1-1.1c0-0.6,0.5-1.1,1.1-1.1
		C20.2,36.6,20.7,37.1,20.7,37.7L20.7,37.7z M20.7,37.7"/>
	<path class="st0" d="M51.4,45.7c-0.7,0-1.1,0.5-1.1,1.1v3.4H4.8V48H48c0.7,0,1.1-0.5,1.1-1.1V28.6c0-0.7-0.5-1.1-1.1-1.1
		c-0.7,0-1.1,0.5-1.1,1.1v17H12.7V29.8h9.1v12.5c0,0.7,0.5,1.1,1.1,1.1c0.7,0,1.1-0.5,1.1-1.1V28.6c0-0.7-0.5-1.1-1.1-1.1H11.6
		c-0.7,0-1.1,0.5-1.1,1.1v17H3.6c-0.7,0-1.1,0.5-1.1,1.1v4.5c0,0.7,0.5,1.1,1.1,1.1h47.7c0.7,0,1.1-0.5,1.1-1.1v-4.5
		C52.5,46.1,52,45.7,51.4,45.7L51.4,45.7z M51.4,45.7"/>
	<path class="st0" d="M49.1,9.2V3.6c0-0.7-0.5-1.1-1.1-1.1H7C6.4,2.5,5.9,3,5.9,3.6v6.7l-2.3,9v0.2c0,2,0.9,3.9,2.3,5.1v17.6
		c0,0.7,0.5,1.1,1.1,1.1c0.7,0,1.1-0.5,1.1-1.1V25.9c0.7,0.3,1.5,0.5,2.3,0.5c2.4,0,4.4-1.3,5.7-3.1c1.3,1.8,3.3,3.1,5.7,3.1
		c2.4,0,4.4-1.3,5.7-3.1c1.2,1.8,3.3,3.1,5.7,3.1c2.4,0,4.4-1.3,5.7-3.1c1.3,1.8,3.3,3.1,5.7,3.1c3.7,0,6.8-3.1,6.8-6.8v-0.2
		L49.1,9.2z M8.2,4.8h38.6v4.5H8.2V4.8z M44.5,24.1c-2.5,0-4.5-2-4.5-4.5c0-0.7-0.5-1.1-1.1-1.1H32c-0.7,0-1.1,0.5-1.1,1.1
		c0,0.7,0.5,1.1,1.1,1.1h5.6c-0.5,1.9-2.3,3.4-4.4,3.4c-2.5,0-4.5-2-4.5-4.5c0-0.7-0.5-1.1-1.1-1.1h-6.8c-0.7,0-1.1,0.5-1.1,1.1
		c0,0.7,0.5,1.1,1.1,1.1h5.6c-0.5,1.9-2.3,3.4-4.4,3.4c-2.5,0-4.5-2-4.5-4.5c0-0.7-0.5-1.1-1.1-1.1H9.3c-0.7,0-1.1,0.5-1.1,1.1
		c0,0.7,0.5,1.1,1.1,1.1h5.6c-0.5,1.9-2.3,3.4-4.4,3.4c-2.5,0-4.4-1.9-4.5-4.4l2-8.1h7V15c0,0.7,0.5,1.1,1.1,1.1
		c0.7,0,1.1-0.5,1.1-1.1v-3.4h9.1V15c0,0.7,0.5,1.1,1.1,1.1c0.7,0,1.1-0.5,1.1-1.1v-3.4h9.1V15c0,0.7,0.5,1.1,1.1,1.1
		c0.7,0,1.1-0.5,1.1-1.1v-3.4h7.3l1.5,6.8h-5.3c-0.7,0-1.1,0.5-1.1,1.1c0,0.7,0.5,1.1,1.1,1.1H49C48.4,22.6,46.7,24.1,44.5,24.1
		L44.5,24.1z M44.5,24.1"/>
	<path class="st0" d="M43.4,27.5H27.5c-0.7,0-1.1,0.5-1.1,1.1v13.6c0,0.7,0.5,1.1,1.1,1.1h15.9c0.7,0,1.1-0.5,1.1-1.1V28.6
		C44.5,28,44.1,27.5,43.4,27.5L43.4,27.5z M42.3,41.1H28.6V29.8h13.6L42.3,41.1L42.3,41.1z M42.3,41.1"/>
</g>
</svg>
