<?xml version="1.0" encoding="utf-8"?>
<!-- Generator: Adobe Illustrator 21.1.0, SVG Export Plug-In . SVG Version: 6.00 Build 0)  -->
<svg version="1.1" id="Capa_1" xmlns="http://www.w3.org/2000/svg" xmlns:xlink="http://www.w3.org/1999/xlink" x="0px" y="0px"
	 viewBox="0 0 55 55" style="enable-background:new 0 0 55 55;" xml:space="preserve">
<style type="text/css">
	.st0{fill:#6DBE46;}
</style>
<g>
	<path class="st0" d="M50,5H5C2.5,5,0.5,7,0.5,9.5v24.7c0,2.5,2,4.5,4.5,4.5h15.3l-1.5,4.6c-1.5,0.4-2.5,1.7-2.5,3.3v1.1h-3.4
		c-0.6,0-1.1,0.5-1.1,1.1s0.5,1.1,1.1,1.1h29.3c0.6,0,1.1-0.5,1.1-1.1s-0.5-1.1-1.1-1.1h-3.4v-1.1c0-1.6-1.1-2.9-2.5-3.3l-1.5-4.6
		H50c2.5,0,4.5-2,4.5-4.5V9.5C54.5,7,52.5,5,50,5L50,5z M35.4,45.5c0.6,0,1.1,0.5,1.1,1.1v1.1h-18v-1.1c0-0.6,0.5-1.1,1.1-1.1H35.4z
		 M21.2,43.2l1.5-4.5h9.6l1.5,4.5H21.2z M52.3,34.2c0,1.3-1,2.3-2.3,2.3H5c-1.3,0-2.3-1-2.3-2.3v-1.1h42.7c0.6,0,1.1-0.5,1.1-1.1
		c0-0.6-0.5-1.1-1.1-1.1H2.7V9.5c0-1.3,1-2.3,2.3-2.3h45c1.2,0,2.3,1,2.3,2.3H9.7c-0.6,0-1.1,0.5-1.1,1.1c0,0.6,0.5,1.1,1.1,1.1
		h42.6V34.2z M52.3,34.2"/>
	<path class="st0" d="M20.8,23.5L20.8,23.5c0.1,0.5,0.5,0.9,1,0.9l8.6,0.6v0c0.6,0,1.1-0.4,1.2-1l0.7-5.7l0.2-1.7l1.5,0
		c0.6,0,1.1-0.5,1.1-1.1c0-0.6-0.5-1.1-1.1-1.1l-2.5,0c-0.6,0-1,0.4-1.1,1L30.1,18l-0.6,4.6l-6.6-0.4l-0.6-3.5h4.5
		c0.6,0,1.1-0.5,1.1-1.1c0-0.6-0.5-1.1-1.1-1.1h-5.8v0c-0.1,0-0.1,0-0.2,0c-0.6,0.1-1,0.7-0.9,1.3L20.8,23.5z M20.8,23.5"/>
	<path class="st0" d="M23.6,26c-0.6,0-1.1,0.5-1.1,1.1c0,0.6,0.5,1.1,1.1,1.1c0.6,0,1.1-0.5,1.1-1.1C24.8,26.5,24.3,26,23.6,26
		L23.6,26z M23.6,26"/>
	<path class="st0" d="M29.4,26c-0.6,0-1.1,0.5-1.1,1.1c0,0.6,0.5,1.1,1.1,1.1c0.6,0,1.1-0.5,1.1-1.1C30.5,26.5,30,26,29.4,26
		L29.4,26z M29.4,26"/>
	<path class="st0" d="M6.2,9.5H5.7c-0.6,0-1.1,0.5-1.1,1.1c0,0.6,0.5,1.1,1.1,1.1h0.5c0.6,0,1.1-0.5,1.1-1.1C7.4,10,6.9,9.5,6.2,9.5
		L6.2,9.5z M6.2,9.5"/>
	<path class="st0" d="M48.7,33.1h0.5c0.6,0,1.1-0.5,1.1-1.1c0-0.6-0.5-1.1-1.1-1.1h-0.5c-0.6,0-1.1,0.5-1.1,1.1
		C47.6,32.6,48.1,33.1,48.7,33.1L48.7,33.1z M48.7,33.1"/>
</g>
</svg>
