<?xml version="1.0" encoding="utf-8"?>
<!-- Generator: Adobe Illustrator 21.1.0, SVG Export Plug-In . SVG Version: 6.00 Build 0)  -->
<svg version="1.1" id="Capa_1" xmlns="http://www.w3.org/2000/svg" xmlns:xlink="http://www.w3.org/1999/xlink" x="0px" y="0px"
	 viewBox="0 0 55 55" style="enable-background:new 0 0 55 55;" xml:space="preserve">
<style type="text/css">
	.st0{fill:#6DBE46;}
</style>
<g>
	<path class="st0" d="M46.8,6.7c1.2,0,2.3,0.4,3.2,1.3c0.9,0.9,1.3,1.9,1.3,3.2v32.6c0,1.2-0.4,2.3-1.3,3.2
		c-0.9,0.9-1.9,1.3-3.2,1.3H8.2c-1.2,0-2.3-0.4-3.2-1.3c-0.9-0.9-1.3-1.9-1.3-3.2V11.2C3.8,10,4.2,8.9,5.1,8C5.9,7.2,7,6.7,8.2,6.7
		H46.8z M46.8,43.3V11.7c0-0.1-0.1-0.2-0.2-0.4c-0.1-0.1-0.2-0.2-0.4-0.2H8.8c-0.1,0-0.2,0.1-0.4,0.2c-0.1,0.1-0.2,0.2-0.2,0.4v31.5
		c0,0.1,0.1,0.2,0.2,0.4c0.1,0.1,0.2,0.2,0.4,0.2h37.4c0.1,0,0.2-0.1,0.4-0.2C46.7,43.5,46.8,43.4,46.8,43.3z M36.9,21.8
		c0.2-0.2,0.3-0.5,0.3-0.8c0-0.3-0.1-0.6-0.3-0.7l-2.1-2.1c-0.2-0.2-0.4-0.3-0.7-0.3c-0.3,0-0.6,0.1-0.8,0.3l-5.7,5.7l-5.7-5.7
		c-0.2-0.2-0.5-0.3-0.8-0.3c-0.3,0-0.6,0.1-0.7,0.3l-2.1,2.1c-0.2,0.2-0.3,0.4-0.3,0.7c0,0.3,0.1,0.6,0.4,0.8l5.7,5.7l-5.7,5.7
		c-0.2,0.2-0.3,0.5-0.3,0.8s0.1,0.6,0.4,0.7l2,2.1c0.2,0.2,0.4,0.3,0.7,0.3c0.3,0,0.6-0.1,0.8-0.4l5.7-5.7l5.7,5.7
		c0.2,0.2,0.5,0.3,0.8,0.3c0.3,0,0.6-0.1,0.7-0.4l2-2c0.2-0.2,0.4-0.4,0.4-0.7s-0.1-0.6-0.3-0.8l-5.7-5.7L36.9,21.8z"/>
</g>
</svg>
