<?xml version="1.0" encoding="utf-8"?>
<!-- Generator: Adobe Illustrator 21.1.0, SVG Export Plug-In . SVG Version: 6.00 Build 0)  -->
<svg version="1.1" id="Capa_1" xmlns="http://www.w3.org/2000/svg" xmlns:xlink="http://www.w3.org/1999/xlink" x="0px" y="0px"
	 viewBox="0 0 55 55" style="enable-background:new 0 0 55 55;" xml:space="preserve">
<style type="text/css">
	.st0{fill:#6DBE46;}
</style>
<g>
	<g>
		<path class="st0" d="M42.5,7.7c1.2,0.5,1.9,1.5,1.9,2.7v34.1c0,1.2-0.7,2.3-1.9,2.7c-0.4,0.2-0.8,0.2-1.2,0.2
			c-0.8,0-1.6-0.3-2.2-0.8L27.5,35.4L15.8,46.7c-0.6,0.6-1.4,0.9-2.2,0.9c-0.4,0-0.8-0.1-1.2-0.2c-1.2-0.5-1.9-1.5-1.9-2.7V10.4
			c0-1.2,0.7-2.3,1.9-2.7c0.4-0.2,0.8-0.2,1.2-0.2c0.8,0,26.9,0,27.7,0C41.8,7.5,42.2,7.6,42.5,7.7z"/>
	</g>
</g>
</svg>
