<?xml version="1.0" encoding="utf-8"?>
<!-- Generator: Adobe Illustrator 21.1.0, SVG Export Plug-In . SVG Version: 6.00 Build 0)  -->
<svg version="1.1" id="Capa_1" xmlns="http://www.w3.org/2000/svg" xmlns:xlink="http://www.w3.org/1999/xlink" x="0px" y="0px"
	 viewBox="0 0 55 55" style="enable-background:new 0 0 55 55;" xml:space="preserve">
<style type="text/css">
	.st0{fill:#6DBE46;}
</style>
<path class="st0" d="M53.1,32.2v-0.6l-4.9-16H37.5v-3.8H11.6v9.9H6.1l-2.3,3.1h7.8v2.3H2.8l-2.3,3.1h11.1v1.9h-1.2v5.2h1.2v0.8h0.8
	c0.5,2.8,2.9,4.9,5.8,4.9c2.9,0,5.3-2.1,5.8-4.9h13.3c0.5,2.8,2.9,4.9,5.8,4.9c2.9,0,5.3-2.1,5.8-4.9h4.1v-0.8h1.4v-5.2H53.1z
	 M18.3,40.4c-1.7,0-3.1-1.4-3.1-3.1c0-1.7,1.4-3.1,3.1-3.1c1.7,0,3.1,1.4,3.1,3.1C21.4,39,20,40.4,18.3,40.4z M31.1,24.1l-3,2.5
	l0.3,1.1c0,0,0,0.1,0,0.1c0,0-0.1,0.1-0.1,0.1l-3-0.3l0.1,2.9c0,0.1-0.1,0.2-0.1,0.2l-0.5,0.1h0c0,0-0.1-0.1-0.1-0.1
	c0,0,0-0.2,0-0.2l0.1-3l-3,0.3c0,0-0.1,0-0.1,0c0,0,0-0.1,0-0.1l0.2-1.1L18.7,24c0,0-0.1-0.1-0.1-0.1c0,0,0-0.1,0.1-0.1l0.5-0.4
	l-0.5-1.9c0,0,0-0.1,0-0.1c0,0,0.1-0.1,0.1,0l1.7,0.3l0.4-0.8c0,0,0.1-0.1,0.1-0.1c0,0,0.1,0,0.1,0l1.5,1.4l-0.6-3.4
	c0-0.1,0-0.1,0.1-0.1c0,0,0.1,0,0.2,0l1.1,0.6l1.2-2.3c0-0.1,0.1-0.1,0.1-0.1c0.1,0,0.1,0,0.1,0.1l1.2,2.3l1.1-0.6
	c0.1,0,0.1,0,0.2,0c0,0,0.1,0.1,0.1,0.1l-0.6,3.4l1.5-1.4c0,0,0.1,0,0.1,0c0,0,0.1,0,0.1,0.1l0.5,0.9l1.6-0.4c0.1,0,0.1,0,0.1,0
	c0,0,0.1,0.1,0,0.1l-0.5,2l0.6,0.4c0,0,0.1,0.1,0.1,0.1C31.1,24,31.1,24.1,31.1,24.1z M43.2,40.4c-1.7,0-3.1-1.4-3.1-3.1
	c0-1.7,1.4-3.1,3.1-3.1c1.7,0,3.1,1.4,3.1,3.1C46.3,39,44.9,40.4,43.2,40.4z M40.3,25.5v-7.1h5.9l2.2,7.1H40.3z"/>
</svg>
