<?xml version="1.0" encoding="utf-8"?>
<!-- Generator: Adobe Illustrator 21.1.0, SVG Export Plug-In . SVG Version: 6.00 Build 0)  -->
<svg version="1.1" id="Capa_1" xmlns="http://www.w3.org/2000/svg" xmlns:xlink="http://www.w3.org/1999/xlink" x="0px" y="0px"
	 viewBox="0 0 55 55" style="enable-background:new 0 0 55 55;" xml:space="preserve">
<style type="text/css">
	.st0{fill:#6DBE46;}
</style>
<g>
	<g>
		<path class="st0" d="M53.8,39.3h-1.7v-9.4c0-1.1-0.3-2.2-1-3.1l-4.2-6.3c-1-1.5-2.8-2.4-4.6-2.4h-6.6c-0.8,0-1.4,0.6-1.4,1.4v19.9
			H23.7c1,0.9,1.7,2.1,1.9,3.5h11.3c0.4-2.8,2.8-4.9,5.6-4.9c2.9,0,5.2,2.1,5.6,4.9h5.6c0.4,0,0.7-0.3,0.7-0.7V40
			C54.5,39.7,54.2,39.3,53.8,39.3L53.8,39.3z M46.9,28h-8.7c-0.4,0-0.7-0.3-0.7-0.7v-4.8c0-0.4,0.3-0.7,0.7-0.7h5.3
			c0.2,0,0.4,0.1,0.6,0.3l3.4,4.8C47.8,27.4,47.5,28,46.9,28L46.9,28z M42.5,39.3c-2.4,0-4.3,1.9-4.3,4.3c0,2.4,1.9,4.3,4.3,4.3
			c2.4,0,4.3-1.9,4.3-4.3C46.9,41.3,44.9,39.3,42.5,39.3L42.5,39.3z M42.5,45.8c-1.2,0-2.2-1-2.2-2.2c0-1.2,1-2.2,2.2-2.2
			c1.2,0,2.2,1,2.2,2.2C44.7,44.9,43.7,45.8,42.5,45.8L42.5,45.8z M6.5,39.3c-0.4,0-0.7,0.3-0.7,0.7v2.1c0,0.4,0.3,0.7,0.7,0.7h7.8
			c0.2-1.4,0.9-2.6,1.9-3.5H6.5z M19.9,39.3c-2.4,0-4.3,1.9-4.3,4.3c0,2.4,1.9,4.3,4.3,4.3c2.4,0,4.3-1.9,4.3-4.3
			C24.3,41.3,22.3,39.3,19.9,39.3L19.9,39.3z M19.9,45.8c-1.2,0-2.2-1-2.2-2.2c0-1.2,1-2.2,2.2-2.2c1.2,0,2.2,1,2.2,2.2
			C22.1,44.9,21.1,45.8,19.9,45.8L19.9,45.8z M30.3,13.8h-8c0.4,1.2,0.6,2.4,0.6,3.7c0,6.6-5.3,11.9-11.9,11.9
			c-1.2,0-2.4-0.2-3.4-0.5v7.7c0,0.4,0.3,0.7,0.7,0.7h23.5c0.4,0,0.7-0.3,0.7-0.7V15.9C32.4,14.7,31.5,13.8,30.3,13.8L30.3,13.8z
			 M11,7C5.2,7,0.5,11.7,0.5,17.5C0.5,23.3,5.2,28,11,28c5.8,0,10.5-4.7,10.5-10.5C21.5,11.7,16.8,7,11,7L11,7z M11,25.6
			c-4.5,0-8.1-3.6-8.1-8.1c0-4.5,3.6-8.1,8.1-8.1c4.5,0,8.1,3.6,8.1,8.1C19.1,22,15.5,25.6,11,25.6L11,25.6z M14.1,19.2
			c-0.1,0-0.2,0-0.3,0l-3.4-0.9c-0.5-0.1-0.8-0.5-0.8-1v-5.2c0-0.6,0.5-1,1-1c0.6,0,1,0.5,1,1v4.4l2.6,0.7c0.6,0.1,0.9,0.7,0.7,1.3
			C15,18.9,14.6,19.2,14.1,19.2L14.1,19.2z M14.1,19.2"/>
	</g>
</g>
</svg>
