<?xml version="1.0" encoding="utf-8"?>
<!-- Generator: Adobe Illustrator 21.1.0, SVG Export Plug-In . SVG Version: 6.00 Build 0)  -->
<svg version="1.1" id="Capa_1" xmlns="http://www.w3.org/2000/svg" xmlns:xlink="http://www.w3.org/1999/xlink" x="0px" y="0px"
	 viewBox="0 0 55 55" style="enable-background:new 0 0 55 55;" xml:space="preserve">
<style type="text/css">
	.st0{fill:#6DBE46;}
</style>
<path class="st0" d="M51.4,32l2.2-8.5c0.1-0.2,0-0.5-0.2-0.6c-0.2-0.2-0.4-0.2-0.6-0.2l-6.9,1.8l-2.2-3.9c-0.1-0.2-0.3-0.3-0.5-0.3
	c-0.2,0-0.4,0-0.5,0.2l-6.3,6.1l2.4-14.5c0-0.2-0.1-0.5-0.3-0.6c-0.2-0.1-0.5-0.2-0.7,0l-4.8,2.7l-5.1-9.9C27.7,4.1,27.4,4,27.2,4
	c-0.2,0-0.5,0.1-0.6,0.4l-5,9.9l-4.6-2.7c-0.2-0.1-0.5-0.1-0.7,0c-0.2,0.1-0.3,0.4-0.3,0.6l2.5,14.6L12,20.9
	c-0.1-0.1-0.3-0.2-0.5-0.2c-0.2,0-0.4,0.1-0.5,0.3l-1.9,3.3l-7.3-1.5c-0.2,0-0.4,0-0.6,0.2c-0.2,0.2-0.2,0.4-0.2,0.6l2,8.4L1,33.6
	c-0.2,0.1-0.3,0.3-0.3,0.5c0,0.2,0.1,0.4,0.2,0.5l12.4,10.8L12.4,50c0,0.2,0,0.4,0.2,0.6c0.1,0.2,0.3,0.2,0.5,0.2l13-1.8
	c0.9-0.1,1.8-0.1,2.7,0l13,2c0.2,0,0.4-0.1,0.6-0.3c0.1-0.2,0.2-0.4,0.1-0.6l-1.4-4.6L54.1,35c0.2-0.1,0.2-0.3,0.2-0.5
	c0-0.2-0.1-0.4-0.3-0.5L51.4,32z"/>
</svg>
