<?xml version="1.0" encoding="utf-8"?>
<!-- Generator: Adobe Illustrator 21.1.0, SVG Export Plug-In . SVG Version: 6.00 Build 0)  -->
<svg version="1.1" id="Capa_1" xmlns="http://www.w3.org/2000/svg" xmlns:xlink="http://www.w3.org/1999/xlink" x="0px" y="0px"
	 viewBox="0 0 55 55" style="enable-background:new 0 0 55 55;" xml:space="preserve">
<style type="text/css">
	.st0{fill:#6DBE46;}
</style>
<g>
	<path class="st0" d="M27.5,41.1c-1.3,0-2.6-0.1-3.8-0.2c-3.5,3.1-7.6,5.2-12.2,6.4c-1,0.3-2,0.5-3,0.6c-0.6,0.1-1.1-0.4-1.3-1
		c0,0,0,0,0,0c-0.1-0.7,0.3-1.1,0.7-1.5c1.7-1.9,3.6-3.5,4.8-7.9c-5.5-3.1-8.9-7.9-8.9-13.3c0-9.3,10.6-16.9,23.7-16.9
		s23.7,7.6,23.7,16.9C51.2,33.5,40.6,41.1,27.5,41.1z"/>
</g>
</svg>
