<?xml version="1.0" encoding="utf-8"?>
<!-- Generator: Adobe Illustrator 21.1.0, SVG Export Plug-In . SVG Version: 6.00 Build 0)  -->
<svg version="1.1" id="Capa_1" xmlns="http://www.w3.org/2000/svg" xmlns:xlink="http://www.w3.org/1999/xlink" x="0px" y="0px"
	 viewBox="0 0 55 55" style="enable-background:new 0 0 55 55;" xml:space="preserve">
<style type="text/css">
	.st0{fill:#6DBE46;}
</style>
<g>
	<g>
		<path class="st0" d="M46.5,30.1c0.2,0.6,0.2,1.2,0.2,1.8c0,1.3-0.3,2.6-1,3.8c0.1,0.4,0.1,0.8,0.1,1.1c0,1.7-0.6,3.4-1.6,4.7
			c0.1,5-3.4,7.9-8.3,7.9h-1h-2.5c-3.8,0-7.3-1.1-10.7-2.3c-0.8-0.3-2.9-1.1-3.7-1.1h-7.6c-1.9,0-3.4-1.5-3.4-3.4V25.8
			c0-1.9,1.5-3.4,3.4-3.4h7.3c1-0.7,2.8-3.1,3.6-4.1c0.9-1.2,1.8-2.3,2.8-3.4c1.6-1.7,0.7-5.9,3.4-8.5c0.6-0.6,1.5-1,2.4-1
			c2.8,0,5.4,1,6.7,3.5c0.8,1.6,0.9,3.2,0.9,4.9c0,1.9-0.5,3.4-1.3,5.1h4.7c3.7,0,6.8,3.1,6.8,6.8C47.8,27.3,47.4,28.8,46.5,30.1z
			 M12.3,39.4c-0.9,0-1.7,0.8-1.7,1.7s0.8,1.7,1.7,1.7s1.7-0.8,1.7-1.7S13.2,39.4,12.3,39.4z M41.1,22.4h-9.3c0-3.1,2.5-5.3,2.5-8.5
			c0-3.1-0.6-5.1-4.2-5.1c-1.7,1.7-0.8,5.8-3.4,8.5c-0.7,0.8-1.4,1.6-2,2.4c-1.2,1.5-4.3,6.1-6.4,6.1h-0.8v16.9h0.8
			c1.5,0,3.9,1,5.3,1.5c2.9,1,5.9,1.9,9.1,1.9h3.2c3,0,5.1-1.2,5.1-4.4c0-0.5-0.1-1-0.1-1.5c1.1-0.6,1.7-2.1,1.7-3.3
			c0-0.6-0.2-1.3-0.5-1.8c0.9-0.8,1.4-1.9,1.4-3.2c0-0.8-0.4-2.1-0.9-2.7c1.2,0,2-2.4,2-3.4C44.4,24,42.8,22.4,41.1,22.4z"/>
	</g>
</g>
</svg>
