<?xml version="1.0" encoding="utf-8"?>
<!-- Generator: Adobe Illustrator 21.1.0, SVG Export Plug-In . SVG Version: 6.00 Build 0)  -->
<svg version="1.1" id="Capa_1" xmlns="http://www.w3.org/2000/svg" xmlns:xlink="http://www.w3.org/1999/xlink" x="0px" y="0px"
	 viewBox="0 0 55 55" style="enable-background:new 0 0 55 55;" xml:space="preserve">
<style type="text/css">
	.st0{fill:#6DBE46;}
</style>
<g>
	<path class="st0" d="M54.2,21.4c0-0.1,0-0.2,0-0.3c-0.1-0.3-0.3-0.6-0.5-0.8L46,15V9.3C46,8.6,45.4,8,44.6,8h-8.8l-7.5-5.2
		c-0.5-0.3-1.1-0.3-1.6,0L19.2,8h-8.8C9.6,8,9,8.6,9,9.3V15l-7.7,5.3C1,20.6,0.8,21,0.7,21.4c0,0,0,0,0,0l0,29.7
		c0,0.4,0.1,0.7,0.4,1c0.3,0.3,0.6,0.4,1,0.4h0l50.7-0.1c0.8,0,1.4-0.6,1.4-1.4L54.2,21.4z M46,18.4l4.4,3l-4.4,3V18.4z M27.5,5.5
		L31,8h-7L27.5,5.5z M11.8,10.7h31.5v15.7l-10.6,7.3l-4.3-3.3c0,0,0,0,0,0c-0.5-0.4-1.2-0.4-1.7,0l-4.3,3.4l-10.6-7.3V10.7z M9,18.3
		v6.2l-4.5-3.1L9,18.3z M3.5,24l16.6,11.5L3.5,48.3L3.5,24z M6.2,49.8l21.4-16.6l21.3,16.5L6.2,49.8z M34.9,35.5L51.5,24l0,24.4
		L34.9,35.5z M34.9,35.5"/>
	<path class="st0" d="M36.8,16.2H18.2c-0.8,0-1.4,0.6-1.4,1.4c0,0.8,0.6,1.4,1.4,1.4h18.6c0.8,0,1.4-0.6,1.4-1.4
		C38.1,16.8,37.5,16.2,36.8,16.2L36.8,16.2z M36.8,16.2"/>
	<path class="st0" d="M36.8,23.3H18.2c-0.8,0-1.4,0.6-1.4,1.4c0,0.8,0.6,1.4,1.4,1.4h18.6c0.8,0,1.4-0.6,1.4-1.4
		C38.1,23.9,37.5,23.3,36.8,23.3L36.8,23.3z M36.8,23.3"/>
</g>
</svg>
