<svg xmlns="http://www.w3.org/2000/svg" viewBox="0 0 50.4 69.18"><defs><style>.cls-1{fill:#7ac943;}</style></defs><title>available</title><g id="Capa_2" data-name="Capa 2"><g id="Layer_2" data-name="Layer 2"><rect class="cls-1" x="20" y="18.09" width="19.15" height="2.46" rx="0.26" ry="0.26"/><rect class="cls-1" x="20" y="24.25" width="19.15" height="2.46" rx="0.26" ry="0.26"/><rect class="cls-1" x="20" y="36.58" width="19.15" height="2.46" rx="0.26" ry="0.26"/><rect class="cls-1" x="19.83" y="48.91" width="19.15" height="2.46" rx="0.26" ry="0.26"/><rect class="cls-1" x="19.83" y="42.75" width="19.15" height="2.46" rx="0.26" ry="0.26"/><rect class="cls-1" x="19.83" y="30.42" width="19.15" height="2.46" rx="0.26" ry="0.26"/><rect class="cls-1" x="20" y="55.07" width="19.15" height="2.46" rx="0.26" ry="0.26"/><path class="cls-1" d="M37.49,4.48V.38A.38.38,0,0,0,37.11,0H13.28a.38.38,0,0,0-.38.38v4.1H.38A.38.38,0,0,0,0,4.86V68.8a.38.38,0,0,0,.38.38H50a.38.38,0,0,0,.38-.38V4.86A.38.38,0,0,0,50,4.48Zm0,9.78V12.48h4.78a.38.38,0,0,1,.38.38V60.79a.38.38,0,0,1-.38.38H8.12a.38.38,0,0,1-.38-.38V12.86a.38.38,0,0,1,.38-.38h4.78v1.77a.38.38,0,0,0,.38.38H37.11A.38.38,0,0,0,37.49,14.25ZM15.75,2.46h18.9a.38.38,0,0,1,.38.38v8.94a.38.38,0,0,1-.38.38H15.75a.38.38,0,0,1-.38-.38V2.84A.38.38,0,0,1,15.75,2.46ZM47.93,66.71H2.84a.38.38,0,0,1-.38-.38v-59a.38.38,0,0,1,.38-.38H12.91V10H5.66a.38.38,0,0,0-.38.38V63.26a.38.38,0,0,0,.38.38H44.74a.38.38,0,0,0,.38-.38V10.4a.38.38,0,0,0-.38-.38H37.49V6.94H47.55a.38.38,0,0,1,.38.38Zm0,0"/><rect class="cls-1" x="19.21" y="6.08" width="11.98" height="2.46" rx="0.32" ry="0.32"/><path class="cls-1" d="M9.43,21.62l3.5,3.5a.36.36,0,0,0,.51,0l4.77-4.77a.36.36,0,0,0,0-.51L17,18.59a.36.36,0,0,0-.51,0l-3,3a.36.36,0,0,1-.51,0l-1.75-1.75a.36.36,0,0,0-.51,0L9.43,21.1A.36.36,0,0,0,9.43,21.62Zm-.26-.26"/><path class="cls-1" d="M13,37.35l-1.83-1.83a.31.31,0,0,0-.44,0l-1.3,1.3a.31.31,0,0,0,0,.44L13,40.84a.31.31,0,0,0,.44,0L18.25,36a.31.31,0,0,0,0-.44l-1.3-1.3a.31.31,0,0,0-.44,0l-3.1,3.1A.31.31,0,0,1,13,37.35Zm.22.22"/><path class="cls-1" d="M16,49.12,14.09,51a.39.39,0,0,1-.55,0l-1.89-1.89a.39.39,0,0,0-.55,0l-1.2,1.2a.39.39,0,0,0,0,.55l1.89,1.89a.39.39,0,0,1,0,.55L9.91,55.2a.39.39,0,0,0,0,.55l1.2,1.2a.39.39,0,0,0,.55,0L13.55,55a.39.39,0,0,1,.55,0L16,56.94a.39.39,0,0,0,.55,0l1.2-1.2a.39.39,0,0,0,0-.55L15.83,53.3a.39.39,0,0,1,0-.55l1.89-1.89a.39.39,0,0,0,0-.55l-1.2-1.2A.39.39,0,0,0,16,49.12Zm.27-.27"/></g></g></svg>