<svg xmlns="http://www.w3.org/2000/svg" viewBox="0 0 640.88 112.41"><defs><style>.cls-1{fill:#989898;}.cls-2{fill:#4d4d4d;}.cls-3{fill:#666;}.cls-4{fill:none;stroke:#cbcbcb;stroke-miterlimit:10;}.cls-5{fill:#333;}</style></defs><title>bannertextfr</title><g id="Capa_2" data-name="Capa 2"><g id="Layer_2" data-name="Layer 2"><path class="cls-1" d="M18.23,20.34H14.09L6,7.14v13.2H1.91V.28H6l8.06,13.23V.28h4.12Z"/><path class="cls-1" d="M39.73,10.76a12.12,12.12,0,0,1-1,5.2,7.89,7.89,0,0,1-3,3.45,8.86,8.86,0,0,1-8.92,0,8,8,0,0,1-3-3.42,11.76,11.76,0,0,1-1.09-5.12v-1a12,12,0,0,1,1.07-5.22,8,8,0,0,1,3-3.46,8.85,8.85,0,0,1,8.92,0,8,8,0,0,1,3,3.46,12,12,0,0,1,1.07,5.2Zm-4.19-.91a8.45,8.45,0,0,0-1.13-4.8,3.69,3.69,0,0,0-3.23-1.64A3.68,3.68,0,0,0,28,5a8.34,8.34,0,0,0-1.14,4.75v1A8.55,8.55,0,0,0,28,15.53a3.67,3.67,0,0,0,3.25,1.7,3.64,3.64,0,0,0,3.2-1.63,8.51,8.51,0,0,0,1.13-4.76Z"/><path class="cls-1" d="M59.34.28V13.49a6.77,6.77,0,0,1-2.06,5.21,8,8,0,0,1-5.63,1.92,8,8,0,0,1-5.58-1.86A6.65,6.65,0,0,1,44,13.64V.28h4.13V13.52A3.82,3.82,0,0,0,49,16.39a3.62,3.62,0,0,0,2.61.9q3.49,0,3.54-3.67V.28Z"/><path class="cls-1" d="M71.56,15.37,76.1.28h4.6l-7,20.07H69.41L62.45.28H67Z"/><path class="cls-1" d="M96.08,11.62H88.14V17h9.32v3.32H84V.28H97.43V3.63H88.14V8.41h7.94Z"/><path class="cls-1" d="M112.63,16.21h-7.25L104,20.34H99.6L107.07.28h3.83l7.51,20.07H114Zm-6.13-3.35h5L109,5.35Z"/><path class="cls-1" d="M136.65.28V13.49a6.77,6.77,0,0,1-2.06,5.21A8,8,0,0,1,129,20.62a8,8,0,0,1-5.58-1.86,6.65,6.65,0,0,1-2.11-5.11V.28h4.13V13.52a3.82,3.82,0,0,0,.94,2.87,3.62,3.62,0,0,0,2.61.9q3.49,0,3.54-3.67V.28Z"/><path class="cls-1" d="M148.64,7.19,152.4.28h4.75l-5.84,10,6,10.12H152.5l-3.86-7-3.86,7H140l6-10.12-5.84-10h4.75Z"/><path class="cls-1" d="M185,13.66a7.1,7.1,0,0,1-2.39,5.1,8.4,8.4,0,0,1-5.69,1.86,7.55,7.55,0,0,1-6.07-2.6,10.65,10.65,0,0,1-2.21-7.13V9.66a12,12,0,0,1,1-5.1,7.65,7.65,0,0,1,2.92-3.38,9.11,9.11,0,0,1,10,.68A7.63,7.63,0,0,1,185,7.08h-4.13a4.19,4.19,0,0,0-1.08-2.82A4,4,0,0,0,177,3.39a3.51,3.51,0,0,0-3.09,1.48,8.3,8.3,0,0,0-1.05,4.6V11a8.89,8.89,0,0,0,1,4.75,3.45,3.45,0,0,0,3.11,1.5,4.08,4.08,0,0,0,2.86-.87,4,4,0,0,0,1.08-2.71Z"/><path class="cls-1" d="M193.25,17H202v3.32H189.12V.28h4.13Z"/><path class="cls-1" d="M210.21,20.34h-4.13V.28h4.13Z"/><path class="cls-1" d="M227.53,11.62h-7.94V17h9.32v3.32H215.45V.28h13.42V3.63h-9.29V8.41h7.94Z"/><path class="cls-1" d="M249.06,20.34h-4.13l-8-13.2v13.2h-4.13V.28h4.13l8.06,13.23V.28h4.12Z"/><path class="cls-1" d="M268.79,3.63h-6.15V20.34h-4.13V3.63h-6.06V.28h16.35Z"/><path class="cls-1" d="M282.74,15.08a2.12,2.12,0,0,0-.83-1.8,10.85,10.85,0,0,0-3-1.32,21.08,21.08,0,0,1-3.4-1.37q-3.42-1.85-3.42-5a4.85,4.85,0,0,1,.92-2.9,6,6,0,0,1,2.63-2A9.9,9.9,0,0,1,279.52,0a9,9,0,0,1,3.83.78A6.1,6.1,0,0,1,286,3a5.75,5.75,0,0,1,.93,3.23h-4.13a2.71,2.71,0,0,0-.87-2.14,3.57,3.57,0,0,0-2.44-.76,3.82,3.82,0,0,0-2.36.64,2,2,0,0,0-.84,1.69,1.93,1.93,0,0,0,1,1.64,11.15,11.15,0,0,0,2.9,1.24,12.54,12.54,0,0,1,5.14,2.63A5.24,5.24,0,0,1,286.89,15a4.83,4.83,0,0,1-2,4.09,8.62,8.62,0,0,1-5.31,1.48,10.24,10.24,0,0,1-4.22-.85,6.66,6.66,0,0,1-2.9-2.32,6,6,0,0,1-1-3.42h4.15q0,3.32,4,3.32a3.86,3.86,0,0,0,2.3-.6A2,2,0,0,0,282.74,15.08Z"/><path class="cls-1" d="M294.09,14.2a8.29,8.29,0,0,1,.47-3.08,6.32,6.32,0,0,1,1.72-2.26,8.75,8.75,0,0,0,1.66-1.81,2.84,2.84,0,0,0,.41-1.47q0-2.33-2.15-2.33a2.18,2.18,0,0,0-1.63.63,2.47,2.47,0,0,0-.64,1.73h-4a5.32,5.32,0,0,1,1.7-4.12,7.86,7.86,0,0,1,9.1-.08,5,5,0,0,1,1.61,4,4.87,4.87,0,0,1-.52,2.21A9.12,9.12,0,0,1,300,9.93L298.88,11a3.79,3.79,0,0,0-1.2,2.36l-.06.84Zm-.4,4.22a2,2,0,0,1,.63-1.52,2.46,2.46,0,0,1,3.21,0,2.14,2.14,0,0,1,0,3,2.52,2.52,0,0,1-3.24,0A2,2,0,0,1,293.69,18.42Z"/><path class="cls-2" d="M406.15,19.32h4.91l-.21,1.15h-6.29L406.42,9.8h1.38Z"/><path class="cls-2" d="M413.7,20.47h-1.32l1.38-7.92h1.32Zm1.09-10.82a.73.73,0,0,1,.56.2.75.75,0,0,1,.22.57.78.78,0,0,1-.78.8.73.73,0,0,1-.56-.2.72.72,0,0,1-.21-.56.83.83,0,0,1,.22-.57A.78.78,0,0,1,414.79,9.65Z"/><path class="cls-2" d="M418.75,18.62l2.86-6.07H423l-4,7.92h-1l-1.55-7.92h1.3Z"/><path class="cls-2" d="M427.92,13.75l-.62-.07a2.27,2.27,0,0,0-2,1.15l-1,5.63H423l1.38-7.92h1.28l-.2.92a2.37,2.37,0,0,1,2-1.08,2.47,2.47,0,0,1,.63.11Z"/><path class="cls-2" d="M432.54,20.47a1.72,1.72,0,0,1-.05-.42l0-.42a3.25,3.25,0,0,1-2.31,1,2.36,2.36,0,0,1-1.7-.66,2,2,0,0,1-.6-1.62,2.44,2.44,0,0,1,1.1-2,4.7,4.7,0,0,1,2.71-.71h1.38l.09-.63a1.45,1.45,0,0,0-.27-1.12,1.33,1.33,0,0,0-1-.43,2,2,0,0,0-1.21.33,1.42,1.42,0,0,0-.64.92h-1.33a2.13,2.13,0,0,1,.54-1.23,3.16,3.16,0,0,1,1.22-.83,4,4,0,0,1,1.55-.28,2.63,2.63,0,0,1,1.93.75,2.33,2.33,0,0,1,.58,1.92L433.85,19l0,.56a2.76,2.76,0,0,0,.09.8v.13Zm-2.08-1a2.32,2.32,0,0,0,1.2-.3,3.05,3.05,0,0,0,1-.88l.29-1.63h-1A3.8,3.8,0,0,0,430,17a1.46,1.46,0,0,0-.75,1.12,1.13,1.13,0,0,0,.26.93A1.24,1.24,0,0,0,430.46,19.44Z"/><path class="cls-2" d="M437.12,20.47H435.8l1.38-7.92h1.32Zm1.09-10.82a.73.73,0,0,1,.56.2.75.75,0,0,1,.22.57.78.78,0,0,1-.78.8.73.73,0,0,1-.56-.2.72.72,0,0,1-.21-.56.83.83,0,0,1,.22-.57A.78.78,0,0,1,438.21,9.65Z"/><path class="cls-2" d="M444.19,18.32q.11-.82-.9-1.16l-1.38-.4q-1.74-.6-1.68-2a2.19,2.19,0,0,1,1-1.72,3.4,3.4,0,0,1,2.13-.66,2.84,2.84,0,0,1,2,.7,2.22,2.22,0,0,1,.72,1.78h-1.32a1.24,1.24,0,0,0-.37-1,1.48,1.48,0,0,0-1-.39,1.94,1.94,0,0,0-1.19.34,1.23,1.23,0,0,0-.54.86q-.1.69.84,1l.67.18a4.29,4.29,0,0,1,1.93.92,1.75,1.75,0,0,1,.53,1.4,2.23,2.23,0,0,1-.48,1.29,2.77,2.77,0,0,1-1.17.84,3.91,3.91,0,0,1-1.56.27,3.09,3.09,0,0,1-2.08-.74,2.27,2.27,0,0,1-.79-1.86h1.33a1.4,1.4,0,0,0,.43,1.07,1.62,1.62,0,0,0,1.16.4,2.29,2.29,0,0,0,1.25-.3A1.17,1.17,0,0,0,444.19,18.32Z"/><path class="cls-2" d="M451.26,12.4a2.86,2.86,0,0,1,1.71.54A3.09,3.09,0,0,1,454,14.39a4.51,4.51,0,0,1,.23,2v.16a5.33,5.33,0,0,1-.69,2.09,4,4,0,0,1-1.42,1.45,3.47,3.47,0,0,1-1.91.49,2.86,2.86,0,0,1-1.7-.54,3,3,0,0,1-1-1.44,4.62,4.62,0,0,1-.23-2,5.39,5.39,0,0,1,.67-2.21,4.13,4.13,0,0,1,1.43-1.52A3.43,3.43,0,0,1,451.26,12.4Zm-2.7,4.25a4.5,4.5,0,0,0,0,1,2.35,2.35,0,0,0,.52,1.38,1.55,1.55,0,0,0,1.18.53,2.11,2.11,0,0,0,1.22-.33,2.73,2.73,0,0,0,.94-1.05,4.45,4.45,0,0,0,.49-1.56,7.14,7.14,0,0,0,0-1.14,2.44,2.44,0,0,0-.54-1.4,1.59,1.59,0,0,0-1.19-.54,2.16,2.16,0,0,0-1.74.8,4,4,0,0,0-.89,2.17Z"/><path class="cls-2" d="M457.86,12.54l-.19,1a3.12,3.12,0,0,1,2.43-1.14,2,2,0,0,1,1.66.78,3,3,0,0,1,.4,2.1l-.86,5.19H460l.87-5.21a2.83,2.83,0,0,0,0-.67,1.1,1.1,0,0,0-1.21-1,2.5,2.5,0,0,0-2.09,1.27l-1,5.65h-1.33l1.38-7.92Z"/><path class="cls-2" d="M467.4,16.49a6.47,6.47,0,0,1,.7-2.25,3.66,3.66,0,0,1,1.27-1.41,2.94,2.94,0,0,1,1.64-.44,2.44,2.44,0,0,1,2.08,1l.26-.89h1.22l-1.32,7.76A3.86,3.86,0,0,1,472,22.73a3.47,3.47,0,0,1-2.51.87,3.56,3.56,0,0,1-1.54-.38,2.93,2.93,0,0,1-1.16-1l.75-.81a2.38,2.38,0,0,0,3.5.56,2.72,2.72,0,0,0,.87-1.58l.15-.7a3,3,0,0,1-2.26.94,2.32,2.32,0,0,1-1.29-.4,2.42,2.42,0,0,1-.85-1.09,4.47,4.47,0,0,1-.33-1.59A8.18,8.18,0,0,1,467.4,16.49Zm1.28.75a2.79,2.79,0,0,0,.36,1.62,1.37,1.37,0,0,0,1.16.6,2.4,2.4,0,0,0,2-1.16l.62-3.64a1.67,1.67,0,0,0-1.59-1.13,2.06,2.06,0,0,0-1.77.88,4.56,4.56,0,0,0-.82,2.45Z"/><path class="cls-2" d="M480.18,13.75l-.62-.07a2.27,2.27,0,0,0-2,1.15l-1,5.63h-1.33l1.38-7.92h1.28l-.2.92a2.37,2.37,0,0,1,2-1.08,2.47,2.47,0,0,1,.63.11Z"/><path class="cls-2" d="M484.8,20.47a1.72,1.72,0,0,1-.05-.42l0-.42a3.25,3.25,0,0,1-2.31,1,2.36,2.36,0,0,1-1.7-.66,2,2,0,0,1-.6-1.62,2.44,2.44,0,0,1,1.1-2,4.7,4.7,0,0,1,2.71-.71h1.38l.09-.63a1.45,1.45,0,0,0-.27-1.12,1.33,1.33,0,0,0-1-.43,2,2,0,0,0-1.21.33,1.42,1.42,0,0,0-.64.92h-1.33a2.13,2.13,0,0,1,.54-1.23,3.16,3.16,0,0,1,1.22-.83,4,4,0,0,1,1.55-.28,2.63,2.63,0,0,1,1.93.75,2.33,2.33,0,0,1,.58,1.92L486.11,19l0,.56a2.76,2.76,0,0,0,.09.8v.13Zm-2.08-1a2.32,2.32,0,0,0,1.2-.3,3.05,3.05,0,0,0,1-.88l.29-1.63h-1a3.8,3.8,0,0,0-1.92.4,1.46,1.46,0,0,0-.75,1.12,1.13,1.13,0,0,0,.26.93A1.24,1.24,0,0,0,482.72,19.44Z"/><path class="cls-2" d="M491.44,10.63l-.34,1.92h1.44l-.18,1h-1.44l-.83,4.94a1.66,1.66,0,0,0,0,.35.56.56,0,0,0,.62.57,3.8,3.8,0,0,0,.64-.07l-.1,1.09a3.64,3.64,0,0,1-1,.13A1.38,1.38,0,0,1,489.1,20a2.25,2.25,0,0,1-.31-1.53l.81-4.91h-1.4l.18-1h1.4l.34-1.92Z"/><path class="cls-2" d="M497.8,19.69a3.06,3.06,0,0,1-2.37.93,2,2,0,0,1-1.68-.81,3.11,3.11,0,0,1-.41-2.14l.85-5.12h1.33l-.86,5.14a3.41,3.41,0,0,0,0,.63,1.31,1.31,0,0,0,.31.83,1.07,1.07,0,0,0,.78.32,2.38,2.38,0,0,0,2.2-1.15l1-5.77h1.33l-1.38,7.92h-1.25Z"/><path class="cls-2" d="M502.29,20.47H501l1.38-7.92h1.32Zm1.09-10.82a.73.73,0,0,1,.56.2.75.75,0,0,1,.22.57.78.78,0,0,1-.78.8.73.73,0,0,1-.56-.2.72.72,0,0,1-.21-.56.83.83,0,0,1,.22-.57A.78.78,0,0,1,503.39,9.65Z"/><path class="cls-2" d="M508,10.63l-.34,1.92h1.44l-.18,1h-1.44l-.83,4.94a1.66,1.66,0,0,0,0,.35.56.56,0,0,0,.62.57,3.8,3.8,0,0,0,.64-.07l-.1,1.09a3.64,3.64,0,0,1-1,.13,1.38,1.38,0,0,1-1.19-.58,2.25,2.25,0,0,1-.31-1.53l.81-4.91h-1.4l.18-1h1.4l.34-1.92Z"/><path class="cls-2" d="M512.72,20.62a2.85,2.85,0,0,1-2.31-1.09,3.75,3.75,0,0,1-.7-2.72l0-.31a5.29,5.29,0,0,1,.7-2.15,4.07,4.07,0,0,1,1.4-1.47,3.27,3.27,0,0,1,1.79-.47,2.52,2.52,0,0,1,1.92.81,3.35,3.35,0,0,1,.76,2.12,6.47,6.47,0,0,1,0,1l-.08.61H511a2.68,2.68,0,0,0,.36,1.83,1.68,1.68,0,0,0,1.45.78A2.82,2.82,0,0,0,515,18.46l.76.64a3.49,3.49,0,0,1-1.29,1.12A3.65,3.65,0,0,1,512.72,20.62Zm.84-7.11a1.93,1.93,0,0,0-1.43.56,4,4,0,0,0-1,1.72H515l0-.12a2.17,2.17,0,0,0-.3-1.54A1.39,1.39,0,0,0,513.56,13.5Z"/><path class="cls-2" d="M525.59,20.47a1.72,1.72,0,0,1-.05-.42l0-.42a3.25,3.25,0,0,1-2.31,1,2.36,2.36,0,0,1-1.7-.66,2,2,0,0,1-.6-1.62,2.44,2.44,0,0,1,1.1-2,4.7,4.7,0,0,1,2.71-.71h1.38l.09-.63a1.45,1.45,0,0,0-.27-1.12,1.33,1.33,0,0,0-1-.43,2,2,0,0,0-1.21.33,1.42,1.42,0,0,0-.64.92h-1.33a2.13,2.13,0,0,1,.54-1.23,3.16,3.16,0,0,1,1.22-.83,4,4,0,0,1,1.55-.28,2.63,2.63,0,0,1,1.93.75,2.33,2.33,0,0,1,.58,1.92L526.91,19l0,.56a2.76,2.76,0,0,0,.09.8v.13Zm-2.08-1a2.32,2.32,0,0,0,1.2-.3,3.05,3.05,0,0,0,1-.88l.29-1.63h-1a3.8,3.8,0,0,0-1.92.4,1.46,1.46,0,0,0-.75,1.12,1.13,1.13,0,0,0,.26.93A1.24,1.24,0,0,0,523.51,19.44Z"/><path class="cls-2" d="M535.91,16.54a6.29,6.29,0,0,1-.65,2.18A3.71,3.71,0,0,1,534,20.17a2.88,2.88,0,0,1-1.65.46,2.64,2.64,0,0,1-2.11-.93l-.71,3.82h-1.33l1.9-11h1.2l-.15.89a3,3,0,0,1,2.35-1,2.21,2.21,0,0,1,1.78.84,3.7,3.7,0,0,1,.67,2.24,7.88,7.88,0,0,1,0,.91Zm-1.3-.15,0-.61a2.79,2.79,0,0,0-.41-1.63,1.43,1.43,0,0,0-1.18-.6,2.36,2.36,0,0,0-2,1.09l-.67,3.8a1.66,1.66,0,0,0,1.6,1.08,2.08,2.08,0,0,0,1.68-.77A4.48,4.48,0,0,0,534.61,16.39Z"/><path class="cls-2" d="M541.91,13.75l-.62-.07a2.27,2.27,0,0,0-2,1.15l-1,5.63H537l1.38-7.92h1.28l-.2.92a2.37,2.37,0,0,1,2-1.08,2.47,2.47,0,0,1,.63.11Z"/><path class="cls-2" d="M545.26,20.62a2.85,2.85,0,0,1-2.31-1.09,3.75,3.75,0,0,1-.7-2.72l0-.31a5.29,5.29,0,0,1,.7-2.15,4.07,4.07,0,0,1,1.4-1.47,3.27,3.27,0,0,1,1.79-.47,2.52,2.52,0,0,1,1.92.81,3.35,3.35,0,0,1,.76,2.12,6.47,6.47,0,0,1,0,1l-.08.61h-5.18a2.68,2.68,0,0,0,.36,1.83,1.68,1.68,0,0,0,1.45.78,2.82,2.82,0,0,0,2.17-1.05l.76.64A3.49,3.49,0,0,1,547,20.22,3.65,3.65,0,0,1,545.26,20.62Zm.84-7.11a1.93,1.93,0,0,0-1.43.56,4,4,0,0,0-1,1.72h3.85l0-.12a2.17,2.17,0,0,0-.3-1.54A1.39,1.39,0,0,0,546.1,13.5Zm1-2.12h-1l-1.5-2.15H546Z"/><path class="cls-2" d="M554.52,18.32q.11-.82-.9-1.16l-1.38-.4q-1.74-.6-1.68-2a2.19,2.19,0,0,1,1-1.72,3.4,3.4,0,0,1,2.13-.66,2.84,2.84,0,0,1,2,.7,2.22,2.22,0,0,1,.72,1.78H555a1.24,1.24,0,0,0-.37-1,1.48,1.48,0,0,0-1-.39,1.94,1.94,0,0,0-1.19.34,1.23,1.23,0,0,0-.54.86q-.1.69.84,1l.67.18a4.29,4.29,0,0,1,1.93.92,1.75,1.75,0,0,1,.53,1.4,2.23,2.23,0,0,1-.48,1.29,2.77,2.77,0,0,1-1.17.84,3.91,3.91,0,0,1-1.56.27,3.09,3.09,0,0,1-2.08-.74,2.27,2.27,0,0,1-.79-1.86h1.33a1.4,1.4,0,0,0,.43,1.07,1.62,1.62,0,0,0,1.16.4,2.29,2.29,0,0,0,1.25-.3A1.17,1.17,0,0,0,554.52,18.32Z"/><path class="cls-2" d="M563.68,14.48h.88a2.59,2.59,0,0,0,1.63-.51,1.93,1.93,0,0,0,.76-1.38,1.7,1.7,0,0,0-.32-1.34,1.51,1.51,0,0,0-1.19-.5,2,2,0,0,0-1.42.49,2.15,2.15,0,0,0-.71,1.35H562a3,3,0,0,1,1.12-2.14,3.58,3.58,0,0,1,2.38-.81,2.86,2.86,0,0,1,2.11.84,2.66,2.66,0,0,1,.66,2.14,2.46,2.46,0,0,1-.58,1.38,3.85,3.85,0,0,1-1.42,1,2.11,2.11,0,0,1,1.08.93,2.58,2.58,0,0,1,.3,1.48,3.27,3.27,0,0,1-1.15,2.32,3.61,3.61,0,0,1-2.5.85,3,3,0,0,1-2.18-.85,2.7,2.7,0,0,1-.75-2.12h1.33a1.78,1.78,0,0,0,.39,1.32,1.69,1.69,0,0,0,1.28.53,2.13,2.13,0,0,0,1.56-.54,2.23,2.23,0,0,0,.71-1.51,1.63,1.63,0,0,0-.39-1.36,2,2,0,0,0-1.42-.52h-1Z"/><path class="cls-2" d="M575.16,16.89h1.44L576.4,18H575l-.43,2.48H573.2l.43-2.48h-4.72l.15-.87,5.86-7.32h1.45Zm-4.5,0h3.16l1-5.24-.21.31Z"/><path class="cls-2" d="M583.15,15.78a3.81,3.81,0,0,1-1.15.85,2.7,2.7,0,0,1-1.21.27,2.35,2.35,0,0,1-1.44-.48,2.62,2.62,0,0,1-.87-1.27,4.2,4.2,0,0,1-.19-1.76,4.72,4.72,0,0,1,.59-1.93,3.62,3.62,0,0,1,1.3-1.36A3.19,3.19,0,0,1,582,9.66a2.52,2.52,0,0,1,2,.92,4,4,0,0,1,.78,2.4,10,10,0,0,1-.18,1.95,7.4,7.4,0,0,1-1.91,4.13A5.18,5.18,0,0,1,579,20.48h-.33l.12-1.15h.27a4,4,0,0,0,2.58-.88A5.27,5.27,0,0,0,583.15,15.78Zm-2.08,0a2.12,2.12,0,0,0,1.28-.38,3.19,3.19,0,0,0,1-1.1l.06-.53,0-.59a3.43,3.43,0,0,0-.42-1.75,1.32,1.32,0,0,0-1.12-.64,1.88,1.88,0,0,0-1.55.7,3.17,3.17,0,0,0-.74,1.84,3.5,3.5,0,0,0,0,.91,2.27,2.27,0,0,0,.26.81A1.32,1.32,0,0,0,581.07,15.78Z"/><path class="cls-2" d="M585.31,22.6l-.76-.55A4.83,4.83,0,0,0,585.6,20l.19-1.11h1.3l-.15,1A4.24,4.24,0,0,1,585.31,22.6Z"/><path class="cls-2" d="M594.33,15.78a3.81,3.81,0,0,1-1.15.85,2.7,2.7,0,0,1-1.21.27,2.35,2.35,0,0,1-1.44-.48,2.62,2.62,0,0,1-.87-1.27,4.2,4.2,0,0,1-.19-1.76,4.72,4.72,0,0,1,.59-1.93,3.62,3.62,0,0,1,1.3-1.36,3.19,3.19,0,0,1,1.77-.45,2.52,2.52,0,0,1,2,.92,4,4,0,0,1,.78,2.4,10,10,0,0,1-.18,1.95,7.4,7.4,0,0,1-1.91,4.13,5.18,5.18,0,0,1-3.66,1.43h-.33l.12-1.15h.27a4,4,0,0,0,2.58-.88A5.27,5.27,0,0,0,594.33,15.78Zm-2.08,0a2.12,2.12,0,0,0,1.28-.38,3.19,3.19,0,0,0,1-1.1l.06-.53,0-.59a3.43,3.43,0,0,0-.42-1.75,1.32,1.32,0,0,0-1.12-.64,1.88,1.88,0,0,0-1.55.7,3.17,3.17,0,0,0-.74,1.84,3.5,3.5,0,0,0,0,.91,2.27,2.27,0,0,0,.26.81A1.32,1.32,0,0,0,592.25,15.78Z"/><path class="cls-2" d="M602.58,15.78a3.81,3.81,0,0,1-1.15.85,2.7,2.7,0,0,1-1.21.27,2.35,2.35,0,0,1-1.44-.48,2.62,2.62,0,0,1-.87-1.27,4.2,4.2,0,0,1-.19-1.76,4.72,4.72,0,0,1,.59-1.93,3.62,3.62,0,0,1,1.3-1.36,3.19,3.19,0,0,1,1.77-.45,2.52,2.52,0,0,1,2,.92,4,4,0,0,1,.78,2.4,10,10,0,0,1-.18,1.95,7.4,7.4,0,0,1-1.91,4.13,5.18,5.18,0,0,1-3.66,1.43h-.33l.12-1.15h.27a4,4,0,0,0,2.58-.88A5.27,5.27,0,0,0,602.58,15.78Zm-2.08,0a2.12,2.12,0,0,0,1.28-.38,3.19,3.19,0,0,0,1-1.1l.06-.53,0-.59a3.43,3.43,0,0,0-.42-1.75,1.32,1.32,0,0,0-1.12-.64,1.88,1.88,0,0,0-1.55.7,3.17,3.17,0,0,0-.74,1.84,3.5,3.5,0,0,0,0,.91,2.27,2.27,0,0,0,.26.81A1.32,1.32,0,0,0,600.5,15.78Z"/><path class="cls-2" d="M610.67,17.66a1.39,1.39,0,0,0-.32-1.09,3.16,3.16,0,0,0-1.31-.82,5.37,5.37,0,0,1-1.48-.8,2.59,2.59,0,0,1-1-2.32,3,3,0,0,1,.87-2,3.49,3.49,0,0,1,2.08-1l.29-1.6h1.07l-.29,1.63a2.31,2.31,0,0,1,1.62,1.09,3.8,3.8,0,0,1,.42,2.29h-1.31a2.75,2.75,0,0,0-.32-1.66,1.29,1.29,0,0,0-1.11-.6,1.92,1.92,0,0,0-1.37.47,1.94,1.94,0,0,0-.63,1.29,1.49,1.49,0,0,0,.28,1.09,3.11,3.11,0,0,0,1.34.86,5.69,5.69,0,0,1,1.52.83,2.64,2.64,0,0,1,.76,1,2.78,2.78,0,0,1,.19,1.29,2.94,2.94,0,0,1-.93,2,3.78,3.78,0,0,1-2.22.92l-.25,1.4h-1.06l.26-1.41a2.58,2.58,0,0,1-1.82-1,3.36,3.36,0,0,1-.53-2.22h1.33a2.15,2.15,0,0,0,.35,1.52,1.55,1.55,0,0,0,1.29.58,2.4,2.4,0,0,0,1.56-.47A1.85,1.85,0,0,0,610.67,17.66Z"/><path class="cls-2" d="M620.38,20.62a2.85,2.85,0,0,1-2.31-1.09,3.75,3.75,0,0,1-.7-2.72l0-.31a5.29,5.29,0,0,1,.7-2.15,4.07,4.07,0,0,1,1.4-1.47,3.27,3.27,0,0,1,1.79-.47,2.52,2.52,0,0,1,1.92.81,3.35,3.35,0,0,1,.76,2.12,6.47,6.47,0,0,1,0,1l-.08.61h-5.18a2.68,2.68,0,0,0,.36,1.83,1.68,1.68,0,0,0,1.45.78,2.82,2.82,0,0,0,2.17-1.05l.76.64a3.49,3.49,0,0,1-1.29,1.12A3.65,3.65,0,0,1,620.38,20.62Zm.84-7.11a1.93,1.93,0,0,0-1.43.56,4,4,0,0,0-1,1.72h3.85l0-.12a2.17,2.17,0,0,0-.3-1.54A1.39,1.39,0,0,0,621.22,13.5Z"/><path class="cls-2" d="M628.23,10.63l-.34,1.92h1.44l-.18,1h-1.44l-.83,4.94a1.66,1.66,0,0,0,0,.35.56.56,0,0,0,.62.57,3.8,3.8,0,0,0,.64-.07l-.1,1.09a3.64,3.64,0,0,1-1,.13,1.38,1.38,0,0,1-1.19-.58,2.25,2.25,0,0,1-.31-1.53l.81-4.91H625l.18-1h1.4l.34-1.92Z"/><path class="cls-2" d="M638,14.75h2.89L640.66,16h-2.88l-.59,3.37h-1.33l.59-3.37h-2.89l.23-1.28h2.88l.54-3.11h1.33Z"/><path class="cls-3" d="M172.15,105.22h-6.34v4.31h7.44v2.65H162.51v-16h10.72v2.68h-7.42v3.82h6.34Zm-3.45-13.39h3.47l-3,3.41h-2.59Z"/><path class="cls-3" d="M188.9,106.85a5.67,5.67,0,0,1-1.91,4.07,6.71,6.71,0,0,1-4.54,1.49,6,6,0,0,1-4.85-2.07,8.51,8.51,0,0,1-1.77-5.7v-1a9.61,9.61,0,0,1,.81-4.07,6.1,6.1,0,0,1,2.33-2.7,7.28,7.28,0,0,1,8,.54,6.1,6.1,0,0,1,2,4.17h-3.3a3.34,3.34,0,0,0-.86-2.25,3.2,3.2,0,0,0-2.26-.7A2.81,2.81,0,0,0,180,99.83a6.62,6.62,0,0,0-.84,3.67v1.21a7.09,7.09,0,0,0,.79,3.8,2.75,2.75,0,0,0,2.48,1.2,3.26,3.26,0,0,0,2.28-.7,3.16,3.16,0,0,0,.87-2.16Z"/><path class="cls-3" d="M205.36,104.54a9.67,9.67,0,0,1-.84,4.15,6.3,6.3,0,0,1-2.39,2.75,7.08,7.08,0,0,1-7.13,0,6.37,6.37,0,0,1-2.42-2.74,9.41,9.41,0,0,1-.87-4.09v-.79a9.61,9.61,0,0,1,.85-4.17A6.35,6.35,0,0,1,195,96.9a7.07,7.07,0,0,1,7.12,0,6.36,6.36,0,0,1,2.41,2.76,9.6,9.6,0,0,1,.85,4.16Zm-3.35-.73a6.75,6.75,0,0,0-.9-3.83,3.19,3.19,0,0,0-5.14,0,6.67,6.67,0,0,0-.91,3.79v.78a6.83,6.83,0,0,0,.9,3.81,3.16,3.16,0,0,0,5.15,0,6.78,6.78,0,0,0,.9-3.8Z"/><path class="cls-3" d="M221.92,112.19h-3.3l-6.43-10.55v10.55h-3.3v-16h3.3l6.44,10.57V96.16h3.29Z"/><path class="cls-3" d="M239.1,104.54a9.66,9.66,0,0,1-.84,4.15,6.29,6.29,0,0,1-2.39,2.75,7.08,7.08,0,0,1-7.13,0,6.36,6.36,0,0,1-2.42-2.74,9.4,9.4,0,0,1-.87-4.09v-.79a9.61,9.61,0,0,1,.85-4.17,6.35,6.35,0,0,1,2.41-2.76,7.07,7.07,0,0,1,7.12,0,6.36,6.36,0,0,1,2.41,2.76,9.6,9.6,0,0,1,.85,4.16Zm-3.35-.73a6.75,6.75,0,0,0-.9-3.83,3.19,3.19,0,0,0-5.14,0,6.67,6.67,0,0,0-.91,3.79v.78a6.83,6.83,0,0,0,.9,3.81,3.16,3.16,0,0,0,5.15,0,6.79,6.79,0,0,0,.9-3.8Z"/><path class="cls-3" d="M246.94,96.16l4.12,11.63,4.09-11.63h4.34v16h-3.31V107.8l.33-7.56-4.33,11.94h-2.27l-4.32-11.93.33,7.55v4.38h-3.3v-16Z"/><path class="cls-3" d="M267,112.19h-3.3v-16H267Z"/><path class="cls-3" d="M279.51,108a1.69,1.69,0,0,0-.66-1.44,8.63,8.63,0,0,0-2.38-1.06,16.91,16.91,0,0,1-2.72-1.1q-2.73-1.48-2.73-4a3.87,3.87,0,0,1,.73-2.32,4.78,4.78,0,0,1,2.1-1.59,7.93,7.93,0,0,1,3.08-.57,7.19,7.19,0,0,1,3.06.62,4.86,4.86,0,0,1,2.09,1.76,4.59,4.59,0,0,1,.74,2.58h-3.3a2.16,2.16,0,0,0-.69-1.71,2.85,2.85,0,0,0-1.95-.61,3,3,0,0,0-1.88.51,1.61,1.61,0,0,0-.67,1.35,1.55,1.55,0,0,0,.79,1.31,8.94,8.94,0,0,0,2.32,1,10,10,0,0,1,4.11,2.1,4.19,4.19,0,0,1,1.29,3.13,3.86,3.86,0,0,1-1.57,3.26,6.89,6.89,0,0,1-4.24,1.18,8.19,8.19,0,0,1-3.37-.68,5.33,5.33,0,0,1-2.32-1.85,4.74,4.74,0,0,1-.8-2.73h3.31q0,2.65,3.17,2.65a3.09,3.09,0,0,0,1.84-.48A1.56,1.56,0,0,0,279.51,108Z"/><path class="cls-3" d="M295.83,105.22h-6.34v4.31h7.44v2.65H286.19v-16h10.72v2.68h-7.42v3.82h6.34Z"/><path class="cls-3" d="M303.5,109.53h8.08v2.65H299.37v-1.94l7.93-11.42h-7.92V96.16h12v1.89Z"/><path class="cls-3" d="M325.84,96.16,330,107.78l4.09-11.63h4.34v16h-3.31V107.8l.33-7.56-4.33,11.94h-2.27l-4.31-11.93.33,7.55v4.38h-3.3v-16Z"/><path class="cls-3" d="M351.65,108.88h-5.79l-1.1,3.3h-3.51l6-16h3.06l6,16h-3.51Zm-4.9-2.67h4l-2-6Z"/><path class="cls-3" d="M362.41,112.19h-3.3v-16h3.3Z"/><path class="cls-3" d="M379.63,112.19h-3.3l-6.43-10.55v10.55h-3.3v-16h3.3l6.44,10.57V96.16h3.29Z"/><path class="cls-3" d="M395.39,98.83h-4.91v13.35h-3.3V98.83h-4.84V96.16h13.06Z"/><path class="cls-3" d="M408,105.22H401.7v4.31h7.44v2.65H398.4v-16h10.72v2.68H401.7v3.82H408Z"/><path class="cls-3" d="M425.24,112.19h-3.3l-6.43-10.55v10.55h-3.3v-16h3.3l6.44,10.57V96.16h3.29Z"/><path class="cls-3" d="M438.5,108.88h-5.79l-1.1,3.3h-3.51l6-16h3.06l6,16h-3.51Zm-4.9-2.67h4l-2-6Z"/><path class="cls-3" d="M458.78,112.19h-3.3L449,101.64v10.55h-3.3v-16H449l6.44,10.57V96.16h3.29Z"/><path class="cls-3" d="M474.54,98.83h-4.91v13.35h-3.3V98.83h-4.84V96.16h13.06Z"/><line class="cls-4" y1="103.86" x2="126" y2="103.86"/><line class="cls-4" x1="504" y1="103.86" x2="637" y2="103.86"/><path class="cls-5" d="M172.62,55.19h7.56v5.47h-7.56v8.55h-5.76V60.66h-7.58V55.19h7.58V47h5.76Z"/><path class="cls-5" d="M205.49,67.22h13.34v5H199.21V41.76h6.29Z"/><path class="cls-5" d="M231.27,72.26H225V41.76h6.29Z"/><path class="cls-5" d="M250.51,64.7l6.91-22.94h7L253.8,72.26h-6.56l-10.58-30.5h7Z"/><path class="cls-5" d="M280.73,61.1h-5V72.26h-6.29V41.76h11.33q5.41,0,8.34,2.41A8.32,8.32,0,0,1,292,51a9.39,9.39,0,0,1-1.35,5.21,9.22,9.22,0,0,1-4.1,3.32L293.19,72v.29h-6.75Zm-5-5.09h5.07a5.19,5.19,0,0,0,3.67-1.21,4.3,4.3,0,0,0,1.3-3.32,4.61,4.61,0,0,0-1.23-3.39,5.09,5.09,0,0,0-3.76-1.24h-5Z"/><path class="cls-5" d="M316.18,66h-11l-2.09,6.29h-6.68l11.36-30.5h5.82L325,72.26H318.3Zm-9.32-5.09h7.63l-3.83-11.42Z"/><path class="cls-5" d="M336.66,72.26h-6.29V41.76h6.29Z"/><path class="cls-5" d="M360.45,64.26a3.23,3.23,0,0,0-1.26-2.73,16.52,16.52,0,0,0-4.53-2,32,32,0,0,1-5.17-2.08q-5.2-2.81-5.2-7.56a7.37,7.37,0,0,1,1.39-4.41,9.1,9.1,0,0,1,4-3,15.07,15.07,0,0,1,5.86-1.09,13.71,13.71,0,0,1,5.82,1.18,9.28,9.28,0,0,1,4,3.34,8.74,8.74,0,0,1,1.41,4.9h-6.29a4.11,4.11,0,0,0-1.32-3.26,5.43,5.43,0,0,0-3.71-1.16,5.79,5.79,0,0,0-3.58,1,3.07,3.07,0,0,0-1.28,2.57,2.94,2.94,0,0,0,1.5,2.49,16.92,16.92,0,0,0,4.41,1.89q5.36,1.61,7.81,4a8,8,0,0,1,2.45,5.95,7.34,7.34,0,0,1-3,6.21,13.12,13.12,0,0,1-8.07,2.25,15.59,15.59,0,0,1-6.41-1.29,10.15,10.15,0,0,1-4.41-3.53,9,9,0,0,1-1.52-5.2h6.31q0,5,6,5a5.87,5.87,0,0,0,3.5-.91A3,3,0,0,0,360.45,64.26Z"/><path class="cls-5" d="M398.2,57.7a18.41,18.41,0,0,1-1.59,7.9,12,12,0,0,1-4.56,5.24,13.47,13.47,0,0,1-13.57,0,12.11,12.11,0,0,1-4.61-5.21,17.88,17.88,0,0,1-1.66-7.78V56.36a18.31,18.31,0,0,1,1.62-7.93,12.08,12.08,0,0,1,4.59-5.26,13.45,13.45,0,0,1,13.55,0,12.09,12.09,0,0,1,4.59,5.26,18.27,18.27,0,0,1,1.62,7.91Zm-6.37-1.38q0-4.8-1.72-7.29a6.07,6.07,0,0,0-9.78,0q-1.72,2.46-1.74,7.22V57.7A13,13,0,0,0,380.31,65a6,6,0,0,0,9.8.09q1.7-2.48,1.72-7.24Z"/><path class="cls-5" d="M429.72,72.26h-6.29L411.2,52.19V72.26h-6.29V41.76h6.29l12.26,20.11V41.76h6.26Z"/><path class="cls-5" d="M474.32,68.41a10.91,10.91,0,0,1-4.8,3.15,20.1,20.1,0,0,1-6.87,1.12A13.61,13.61,0,0,1,455.71,71a11.52,11.52,0,0,1-4.61-5,17.65,17.65,0,0,1-1.67-7.73V56.13A18.76,18.76,0,0,1,451,48.22a11.39,11.39,0,0,1,4.44-5.11,12.79,12.79,0,0,1,6.8-1.77q5.43,0,8.48,2.59a11.06,11.06,0,0,1,3.62,7.53H468.2a6.08,6.08,0,0,0-1.85-3.83,5.92,5.92,0,0,0-3.95-1.22,5.58,5.58,0,0,0-4.88,2.41q-1.68,2.41-1.7,7.17v1.95q0,4.8,1.82,7.25A6.24,6.24,0,0,0,463,67.63q3.54,0,5-1.51V60.87h-5.72V56.24h12Z"/><path class="cls-5" d="M492.85,61.1h-5V72.26h-6.29V41.76h11.33q5.41,0,8.34,2.41A8.32,8.32,0,0,1,504.16,51a9.39,9.39,0,0,1-1.35,5.21,9.22,9.22,0,0,1-4.1,3.32L505.31,72v.29h-6.75Zm-5-5.09h5.07a5.19,5.19,0,0,0,3.67-1.21,4.3,4.3,0,0,0,1.3-3.32,4.61,4.61,0,0,0-1.23-3.39,5.09,5.09,0,0,0-3.76-1.24h-5Z"/><path class="cls-5" d="M528.3,66h-11l-2.09,6.29h-6.68l11.36-30.5h5.82l11.42,30.5h-6.68ZM519,60.89h7.63l-3.83-11.42Z"/><path class="cls-5" d="M562.54,46.85H553.2V72.26h-6.29V46.85H537.7V41.76h24.85Z"/><path class="cls-5" d="M591.36,41.76V61.85a10.29,10.29,0,0,1-3.13,7.92q-3.13,2.91-8.56,2.91a12.21,12.21,0,0,1-8.48-2.83A10.11,10.11,0,0,1,568,62.08V41.76h6.28V61.89a5.81,5.81,0,0,0,1.44,4.37,5.51,5.51,0,0,0,4,1.37q5.3,0,5.38-5.57V41.76Z"/><path class="cls-5" d="M605.34,72.26h-6.29V41.76h6.29Z"/><path class="cls-5" d="M635.66,46.85h-9.34V72.26H620V46.85h-9.22V41.76h24.85Z"/><path class="cls-5" d="M15.9,72.18H9.85V48.81L2.62,51V46.16l12.63-4.53h.65Z"/><path class="cls-5" d="M48.49,59.57q0,6.33-2.62,9.68T38.2,72.6a9.21,9.21,0,0,1-7.63-3.29q-2.64-3.29-2.7-9.43V54.27q0-6.39,2.65-9.7a9.21,9.21,0,0,1,7.64-3.31q5,0,7.63,3.28T48.49,54Zm-6.05-6.17a11.17,11.17,0,0,0-1-5.53,3.51,3.51,0,0,0-3.24-1.73A3.44,3.44,0,0,0,35,47.79a10.45,10.45,0,0,0-1.08,5.15v7.42a11.72,11.72,0,0,0,1,5.55,3.46,3.46,0,0,0,3.26,1.81A3.4,3.4,0,0,0,41.41,66a11.44,11.44,0,0,0,1-5.33Z"/><path class="cls-5" d="M54.63,47.54A6,6,0,0,1,56.46,43a6.61,6.61,0,0,1,4.78-1.75A6.72,6.72,0,0,1,66.05,43a6.15,6.15,0,0,1,1.82,4.68v1.51a6,6,0,0,1-1.82,4.55,7.53,7.53,0,0,1-9.58,0A6.1,6.1,0,0,1,54.63,49Zm4,1.64a2.85,2.85,0,0,0,.72,2,2.48,2.48,0,0,0,1.9.77,2.37,2.37,0,0,0,1.86-.78,3,3,0,0,0,.69-2.09V47.56a3,3,0,0,0-.69-2,2.68,2.68,0,0,0-3.77,0,3,3,0,0,0-.71,2.14ZM62.47,69.9l-3-1.59L74.41,44.46l3,1.59Zm6.75-5.2a6,6,0,0,1,1.84-4.56,6.7,6.7,0,0,1,4.78-1.73,6.77,6.77,0,0,1,4.81,1.71,6.11,6.11,0,0,1,1.83,4.7v1.51a6,6,0,0,1-1.8,4.54,6.64,6.64,0,0,1-4.8,1.73A6.71,6.71,0,0,1,71,70.86a6.07,6.07,0,0,1-1.82-4.61Zm4,1.66a2.82,2.82,0,0,0,.75,2,2.45,2.45,0,0,0,1.89.82q2.56,0,2.56-2.84v-1.6a2.87,2.87,0,0,0-.71-2,2.7,2.7,0,0,0-3.77,0,3,3,0,0,0-.71,2.1Z"/><path class="cls-5" d="M89.52,54.72V41.19h3.58a4.92,4.92,0,0,1,3.78,1.5,5.89,5.89,0,0,1,1.44,4.12V49A5.92,5.92,0,0,1,96.9,53.2,5,5,0,0,1,93,54.72Zm2.73-11.25v9h.82A2.29,2.29,0,0,0,95,51.73a4.28,4.28,0,0,0,.58-2.48V46.9A4.8,4.8,0,0,0,95,44.25a2.14,2.14,0,0,0-1.8-.79Z"/><path class="cls-5" d="M107.25,48.87H103v3.58h5v2.27h-7.77V41.19H108v2.28h-5v3.2h4.25Z"/><path class="cls-5" d="M93.62,66.26H92.26V71.2H89.53V57.68h4.36a4.43,4.43,0,0,1,3.17,1.06,4.62,4.62,0,0,1-.84,6.79l2.37,5.54v.13H95.65ZM92.26,64h1.55A1.44,1.44,0,0,0,95,63.44,2.36,2.36,0,0,0,95.44,62q0-2-1.59-2h-1.6Z"/><path class="cls-5" d="M106.51,68.44h-3.72l-.72,2.77H99.17l4.23-13.52h2.5l4.25,13.52h-2.92Zm-3.13-2.28h2.53l-1.26-4.82Z"/><path class="cls-5" d="M111.41,71.2V57.68h4.18a4.83,4.83,0,0,1,3.22.94,3.44,3.44,0,0,1,1.1,2.76,3.33,3.33,0,0,1-.46,1.77,2.69,2.69,0,0,1-1.25,1.09,2.36,2.36,0,0,1,1.4,1,3.58,3.58,0,0,1,.49,1.94,3.86,3.86,0,0,1-1.08,3,4.45,4.45,0,0,1-3.14,1Zm2.73-7.87h1.42a1.45,1.45,0,0,0,1.61-1.66,1.91,1.91,0,0,0-.37-1.32,1.59,1.59,0,0,0-1.21-.4h-1.45Zm0,2v3.61h1.75a1.37,1.37,0,0,0,1.12-.46,2,2,0,0,0,.38-1.29q0-1.82-1.32-1.87Z"/><path class="cls-5" d="M128.54,68.44h-3.72l-.72,2.77H121.2l4.23-13.52h2.5l4.25,13.52h-2.92Zm-3.13-2.28h2.53l-1.26-4.82Z"/><path class="cls-5" d="M136.3,71.2h-2.73V57.68h2.73Z"/><path class="cls-5" d="M144.3,67.66a1.7,1.7,0,0,0-.42-1.25,4.88,4.88,0,0,0-1.54-.88,7.16,7.16,0,0,1-2.93-1.81,3.63,3.63,0,0,1-.89-2.45,3.43,3.43,0,0,1,1.21-2.75A5,5,0,0,1,145,58a3.64,3.64,0,0,1,1.5,1.48,4.45,4.45,0,0,1,.53,2.17h-2.72a2.24,2.24,0,0,0-.4-1.44,1.42,1.42,0,0,0-1.17-.5,1.46,1.46,0,0,0-1.11.42,1.59,1.59,0,0,0-.4,1.14,1.4,1.4,0,0,0,.45,1,5.14,5.14,0,0,0,1.58.93A6.76,6.76,0,0,1,146.16,65a3.91,3.91,0,0,1,.9,2.65,3.49,3.49,0,0,1-1.12,2.76,4.45,4.45,0,0,1-3.06,1,5.28,5.28,0,0,1-2.39-.54,4,4,0,0,1-1.69-1.54,4.48,4.48,0,0,1-.61-2.37h2.74a2.58,2.58,0,0,0,.46,1.7,1.86,1.86,0,0,0,1.49.53Q144.3,69.17,144.3,67.66Z"/></g></g></svg>