<svg xmlns="http://www.w3.org/2000/svg" viewBox="0 0 575.97 115.46"><defs><style>.cls-1{fill:#989898;}.cls-2{fill:#4d4d4d;}.cls-3{fill:#333;}.cls-4{fill:#666;}.cls-5{fill:none;stroke:#cbcbcb;stroke-miterlimit:10;}</style></defs><title>bannertexten_1</title><g id="Capa_2" data-name="Capa 2"><g id="Layer_2" data-name="Layer 2"><path class="cls-1" d="M15,13.47H6.19v9.1H1.61V.31H16.1V4H6.19V9.77H15Z"/><path class="cls-1" d="M25.2,22.57H20.62V.31H25.2Z"/><path class="cls-1" d="M39.26,14.42H35.61v8.15H31V.31h8.27a9.35,9.35,0,0,1,6.09,1.76,6.07,6.07,0,0,1,2.14,5,6.85,6.85,0,0,1-1,3.8,6.72,6.72,0,0,1-3,2.42l4.82,9.1v.21H43.43ZM35.61,10.7h3.7A3.79,3.79,0,0,0,42,9.82a3.14,3.14,0,0,0,.95-2.42A3.36,3.36,0,0,0,42,4.92,3.72,3.72,0,0,0,39.29,4H35.61Z"/><path class="cls-1" d="M64.11,16.73a2.35,2.35,0,0,0-.92-2,12,12,0,0,0-3.3-1.47,23.45,23.45,0,0,1-3.78-1.52q-3.79-2-3.79-5.52a5.37,5.37,0,0,1,1-3.22A6.64,6.64,0,0,1,56.26.79,11,11,0,0,1,60.53,0a10,10,0,0,1,4.25.86,6.78,6.78,0,0,1,2.9,2.44,6.39,6.39,0,0,1,1,3.58H64.13a3,3,0,0,0-1-2.38,4,4,0,0,0-2.71-.85,4.23,4.23,0,0,0-2.61.71,2.24,2.24,0,0,0-.93,1.87A2.15,2.15,0,0,0,58,8.06a12.33,12.33,0,0,0,3.22,1.38,13.91,13.91,0,0,1,5.7,2.92,5.82,5.82,0,0,1,1.79,4.34,5.36,5.36,0,0,1-2.19,4.53,9.57,9.57,0,0,1-5.89,1.64A11.36,11.36,0,0,1,56,21.93a7.4,7.4,0,0,1-3.22-2.58,6.59,6.59,0,0,1-1.11-3.79h4.6q0,3.68,4.4,3.68a4.28,4.28,0,0,0,2.55-.67A2.16,2.16,0,0,0,64.11,16.73Z"/><path class="cls-1" d="M90.14,4H83.32V22.57H78.73V4H72V.31H90.14Z"/><path class="cls-1" d="M118.6,4h-6.82V22.57H107.2V4h-6.73V.31H118.6Z"/><path class="cls-1" d="M127.66,22.57h-4.59V.31h4.59Z"/><path class="cls-1" d="M139.47.31l5.72,16.15L150.88.31h6V22.57h-4.6V16.48L152.76,6l-6,16.59H143.6L137.61,6l.46,10.49v6.08h-4.59V.31Z"/><path class="cls-1" d="M175.86,12.89h-8.81v6h10.34v3.68H162.47V.31h14.89V4H167.06V9.33h8.81Z"/><path class="cls-1" d="M208.49,15.15a7.88,7.88,0,0,1-2.65,5.66,9.32,9.32,0,0,1-6.31,2.06A8.38,8.38,0,0,1,192.79,20q-2.45-2.88-2.45-7.91V10.72a13.34,13.34,0,0,1,1.13-5.66,8.48,8.48,0,0,1,3.23-3.75,10.11,10.11,0,0,1,11.09.76,8.47,8.47,0,0,1,2.72,5.79h-4.59a4.65,4.65,0,0,0-1.2-3.13,4.45,4.45,0,0,0-3.14-1,3.9,3.9,0,0,0-3.43,1.64A9.21,9.21,0,0,0,195,10.5v1.68a9.86,9.86,0,0,0,1.09,5.27,3.82,3.82,0,0,0,3.45,1.67,4.53,4.53,0,0,0,3.17-1,4.39,4.39,0,0,0,1.2-3Z"/><path class="cls-1" d="M229.91.31V15a7.51,7.51,0,0,1-2.29,5.78,8.81,8.81,0,0,1-6.25,2.13,8.91,8.91,0,0,1-6.19-2.06,7.38,7.38,0,0,1-2.34-5.67V.31h4.59V15a4.24,4.24,0,0,0,1,3.19,4,4,0,0,0,2.9,1q3.87,0,3.93-4.07V.31Z"/><path class="cls-1" d="M246.78,16.73a2.35,2.35,0,0,0-.92-2,12,12,0,0,0-3.3-1.47,23.45,23.45,0,0,1-3.78-1.52Q235,9.69,235,6.22A5.37,5.37,0,0,1,236,3,6.64,6.64,0,0,1,238.93.79,11,11,0,0,1,243.21,0a10,10,0,0,1,4.25.86,6.78,6.78,0,0,1,2.9,2.44,6.39,6.39,0,0,1,1,3.58H246.8a3,3,0,0,0-1-2.38,4,4,0,0,0-2.71-.85,4.23,4.23,0,0,0-2.61.71,2.24,2.24,0,0,0-.93,1.87,2.15,2.15,0,0,0,1.09,1.82,12.33,12.33,0,0,0,3.22,1.38,13.91,13.91,0,0,1,5.7,2.92,5.82,5.82,0,0,1,1.79,4.34,5.36,5.36,0,0,1-2.19,4.53,9.57,9.57,0,0,1-5.89,1.64,11.36,11.36,0,0,1-4.68-.94,7.4,7.4,0,0,1-3.22-2.58,6.59,6.59,0,0,1-1.11-3.79h4.6q0,3.68,4.4,3.68a4.28,4.28,0,0,0,2.55-.67A2.16,2.16,0,0,0,246.78,16.73Z"/><path class="cls-1" d="M272.81,4H266V22.57h-4.59V4h-6.73V.31h18.13Z"/><path class="cls-1" d="M294.85,11.94a13.44,13.44,0,0,1-1.16,5.76,8.75,8.75,0,0,1-3.33,3.82,9.83,9.83,0,0,1-9.9,0,8.84,8.84,0,0,1-3.36-3.8,13.05,13.05,0,0,1-1.21-5.68V11a13.37,13.37,0,0,1,1.19-5.79,8.82,8.82,0,0,1,3.35-3.84,9.81,9.81,0,0,1,9.89,0,8.82,8.82,0,0,1,3.35,3.84,13.33,13.33,0,0,1,1.19,5.77Zm-4.65-1a9.37,9.37,0,0,0-1.25-5.32,4.43,4.43,0,0,0-7.14,0,9.26,9.26,0,0,0-1.27,5.27v1.09a9.48,9.48,0,0,0,1.25,5.29,4.39,4.39,0,0,0,7.16.07A9.43,9.43,0,0,0,290.2,12Z"/><path class="cls-1" d="M305.74.31l5.72,16.15L317.15.31h6V22.57h-4.6V16.48L319,6l-6,16.59h-3.15L303.88,6l.46,10.49v6.08h-4.59V.31Z"/><path class="cls-1" d="M342.14,12.89h-8.81v6h10.34v3.68H328.74V.31h14.89V4H333.33V9.33h8.81Z"/><path class="cls-1" d="M356.16,14.42h-3.65v8.15h-4.59V.31h8.27a9.35,9.35,0,0,1,6.09,1.76,6.07,6.07,0,0,1,2.14,5,6.85,6.85,0,0,1-1,3.8,6.72,6.72,0,0,1-3,2.42l4.82,9.1v.21h-4.92Zm-3.65-3.71h3.7a3.79,3.79,0,0,0,2.68-.88,3.14,3.14,0,0,0,.95-2.42,3.36,3.36,0,0,0-.89-2.48,3.72,3.72,0,0,0-2.74-.9h-3.68Z"/><path class="cls-1" d="M372.79,15.75a9.19,9.19,0,0,1,.52-3.41,7,7,0,0,1,1.9-2.5,9.73,9.73,0,0,0,1.84-2,3.15,3.15,0,0,0,.46-1.63q0-2.59-2.39-2.59a2.41,2.41,0,0,0-1.81.7,2.73,2.73,0,0,0-.71,1.92h-4.43a5.9,5.9,0,0,1,1.89-4.58,8.72,8.72,0,0,1,10.1-.08A5.58,5.58,0,0,1,381.95,6a5.39,5.39,0,0,1-.58,2.46,10.11,10.11,0,0,1-2,2.56l-1.24,1.18a4.2,4.2,0,0,0-1.33,2.62l-.06.93Zm-.44,4.69a2.22,2.22,0,0,1,.7-1.68,2.72,2.72,0,0,1,3.56,0,2.38,2.38,0,0,1,0,3.34,2.79,2.79,0,0,1-3.59,0A2.21,2.21,0,0,1,372.34,20.43Z"/><path class="cls-2" d="M426.28,22.76a4.56,4.56,0,0,1-2.36-.66,4.24,4.24,0,0,1-1.58-1.84,6.94,6.94,0,0,1-.64-2.73A13,13,0,0,1,422,14.6a10,10,0,0,1,1.12-3.14A7.07,7.07,0,0,1,425,9.22a5.55,5.55,0,0,1,3.5-1.1,4.21,4.21,0,0,1,3.29,1.44,6,6,0,0,1,1.29,3.8,14,14,0,0,1-.21,2.61,10.81,10.81,0,0,1-.89,2.95,7.36,7.36,0,0,1-1.63,2.28A5.6,5.6,0,0,1,426.28,22.76Zm5-8.94a4.94,4.94,0,0,0-.68-3,2.57,2.57,0,0,0-2.18-1.1,3.71,3.71,0,0,0-2.34.7,5.34,5.34,0,0,0-1.69,2.23,11.47,11.47,0,0,0-.84,3.75l0,.64a5,5,0,0,0,.69,3,2.55,2.55,0,0,0,2.16,1.13,3.76,3.76,0,0,0,3.07-1.34A7.58,7.58,0,0,0,431.05,16,17.54,17.54,0,0,0,431.28,13.82Z"/><path class="cls-2" d="M437.75,12l-.25,1.34a4.18,4.18,0,0,1,3.25-1.53,2.63,2.63,0,0,1,2.21,1,4,4,0,0,1,.53,2.81l-1.15,6.94h-1.77l1.16-7a3.73,3.73,0,0,0,0-.89,1.46,1.46,0,0,0-1.61-1.4,3.33,3.33,0,0,0-2.8,1.7L436,22.57h-1.77L436.08,12Z"/><path class="cls-2" d="M455.86,11.78a3.82,3.82,0,0,1,2.28.72,4.11,4.11,0,0,1,1.4,1.94,6,6,0,0,1,.31,2.71l0,.21a7.12,7.12,0,0,1-.92,2.79,5.39,5.39,0,0,1-1.9,1.94,4.63,4.63,0,0,1-2.55.66,3.82,3.82,0,0,1-2.27-.72,4,4,0,0,1-1.39-1.92,6.17,6.17,0,0,1-.31-2.67,7.21,7.21,0,0,1,.89-3,5.52,5.52,0,0,1,1.91-2A4.58,4.58,0,0,1,455.86,11.78Zm-3.6,5.68a6,6,0,0,0,0,1.28,3.14,3.14,0,0,0,.69,1.84,2.07,2.07,0,0,0,1.58.71,2.82,2.82,0,0,0,1.62-.43,3.66,3.66,0,0,0,1.25-1.4,5.91,5.91,0,0,0,.66-2.08,9.37,9.37,0,0,0,0-1.52,3.25,3.25,0,0,0-.71-1.87,2.12,2.12,0,0,0-1.58-.72,2.89,2.89,0,0,0-2.33,1.08,5.32,5.32,0,0,0-1.18,2.9Z"/><path class="cls-2" d="M467.74,13.59l-.83-.09A3,3,0,0,0,464.23,15l-1.3,7.52h-1.77L463,12h1.71l-.26,1.23a3.16,3.16,0,0,1,2.65-1.44,3.26,3.26,0,0,1,.84.15Z"/><path class="cls-2" d="M468.16,17.25a8.24,8.24,0,0,1,.89-2.92,5,5,0,0,1,1.71-1.95,3.91,3.91,0,0,1,2.24-.62,3.31,3.31,0,0,1,2.72,1.29l1-5.53h1.77l-2.6,15h-1.61l.19-1.13a3.9,3.9,0,0,1-3.09,1.33A2.92,2.92,0,0,1,469,21.61a5,5,0,0,1-.94-3A9.52,9.52,0,0,1,468.16,17.25Zm1.7,1a3.67,3.67,0,0,0,.5,2.17,1.8,1.8,0,0,0,1.55.79,3.2,3.2,0,0,0,2.73-1.54l.84-4.89a2.2,2.2,0,0,0-2.13-1.49,2.68,2.68,0,0,0-1.84.63,4.08,4.08,0,0,0-1.21,1.85A7.61,7.61,0,0,0,469.86,18.26Z"/><path class="cls-2" d="M483.28,22.76a3.81,3.81,0,0,1-3.09-1.46,5,5,0,0,1-.94-3.63l0-.42a7,7,0,0,1,.93-2.88,5.44,5.44,0,0,1,1.87-2,4.38,4.38,0,0,1,2.39-.63,3.37,3.37,0,0,1,2.56,1.09,4.47,4.47,0,0,1,1,2.84A8.33,8.33,0,0,1,488,17l-.11.81H481a3.57,3.57,0,0,0,.47,2.45,2.25,2.25,0,0,0,1.94,1,3.77,3.77,0,0,0,2.9-1.41l1,.86a4.65,4.65,0,0,1-1.72,1.5A4.86,4.86,0,0,1,483.28,22.76Zm1.13-9.5a2.59,2.59,0,0,0-1.91.74,5.28,5.28,0,0,0-1.3,2.3h5.15l0-.16a2.9,2.9,0,0,0-.4-2A1.86,1.86,0,0,0,484.41,13.26Z"/><path class="cls-2" d="M495.68,13.59l-.83-.09A3,3,0,0,0,492.17,15l-1.3,7.52H489.1L490.94,12h1.71l-.26,1.23A3.16,3.16,0,0,1,495,11.76a3.26,3.26,0,0,1,.84.15Z"/><path class="cls-2" d="M502.32,19.7q.15-1.1-1.2-1.55l-1.84-.54Q497,16.81,497,15a2.93,2.93,0,0,1,1.28-2.29,4.55,4.55,0,0,1,2.84-.88,3.79,3.79,0,0,1,2.61.93,3,3,0,0,1,1,2.38H503a1.65,1.65,0,0,0-.5-1.29,2,2,0,0,0-1.38-.52,2.58,2.58,0,0,0-1.59.45,1.65,1.65,0,0,0-.71,1.15q-.13.92,1.13,1.34l.89.25a5.73,5.73,0,0,1,2.58,1.22,2.34,2.34,0,0,1,.7,1.87,3,3,0,0,1-.65,1.72,3.69,3.69,0,0,1-1.57,1.12,5.25,5.25,0,0,1-2.08.36,4.13,4.13,0,0,1-2.78-1A3,3,0,0,1,496,19.3h1.77a1.88,1.88,0,0,0,.57,1.43,2.17,2.17,0,0,0,1.56.54,3.05,3.05,0,0,0,1.67-.41A1.56,1.56,0,0,0,502.32,19.7Z"/><path class="cls-2" d="M518.33,18.82a1.86,1.86,0,0,0-.42-1.46,4.22,4.22,0,0,0-1.76-1.1,7.21,7.21,0,0,1-2-1.07,3.46,3.46,0,0,1-1.31-3.1A4,4,0,0,1,514,9.43a4.65,4.65,0,0,1,2.78-1.28L517.2,6h1.43l-.39,2.17a3.08,3.08,0,0,1,2.16,1.46A5.07,5.07,0,0,1,521,12.7H519.2a3.67,3.67,0,0,0-.43-2.21,1.73,1.73,0,0,0-1.48-.8,2.57,2.57,0,0,0-1.83.62,2.6,2.6,0,0,0-.84,1.73,2,2,0,0,0,.37,1.45,4.17,4.17,0,0,0,1.8,1.14,7.61,7.61,0,0,1,2,1.12,3.54,3.54,0,0,1,1,1.34,3.71,3.71,0,0,1,.25,1.72,3.92,3.92,0,0,1-1.25,2.7,5,5,0,0,1-3,1.22l-.33,1.87h-1.42l.34-1.89A3.45,3.45,0,0,1,512,21.33a4.49,4.49,0,0,1-.71-3h1.77a2.87,2.87,0,0,0,.46,2,2.07,2.07,0,0,0,1.73.78,3.21,3.21,0,0,0,2.08-.63A2.46,2.46,0,0,0,518.33,18.82Z"/><path class="cls-2" d="M525.58,14.56h1.17a3.46,3.46,0,0,0,2.18-.68,2.58,2.58,0,0,0,1-1.84,2.27,2.27,0,0,0-.42-1.79,2,2,0,0,0-1.6-.67,2.72,2.72,0,0,0-1.89.65,2.88,2.88,0,0,0-1,1.81h-1.75a4.06,4.06,0,0,1,1.5-2.86A4.76,4.76,0,0,1,528,8.11a3.81,3.81,0,0,1,2.81,1.12,3.56,3.56,0,0,1,.89,2.85,3.29,3.29,0,0,1-.77,1.84,5.15,5.15,0,0,1-1.9,1.38,2.82,2.82,0,0,1,1.45,1.24,3.45,3.45,0,0,1,.4,2,4.37,4.37,0,0,1-1.53,3.1A4.81,4.81,0,0,1,526,22.76a4,4,0,0,1-2.92-1.13,3.6,3.6,0,0,1-1-2.83h1.77a2.38,2.38,0,0,0,.53,1.77,2.25,2.25,0,0,0,1.7.71,2.85,2.85,0,0,0,2.08-.71,3,3,0,0,0,.95-2,2.18,2.18,0,0,0-.53-1.82,2.67,2.67,0,0,0-1.9-.69h-1.36Z"/><path class="cls-2" d="M540.92,17.78h1.92l-.26,1.48h-1.91l-.58,3.31H538.3l.58-3.31h-6.3l.21-1.16,7.83-9.78h1.94Zm-6,0h4.23l1.27-7-.28.41Z"/><path class="cls-2" d="M551.6,16.3a5.07,5.07,0,0,1-1.54,1.14,3.59,3.59,0,0,1-1.61.36,3.14,3.14,0,0,1-1.92-.64,3.51,3.51,0,0,1-1.16-1.69,5.61,5.61,0,0,1-.25-2.35,6.32,6.32,0,0,1,.79-2.58,4.84,4.84,0,0,1,1.74-1.82,4.25,4.25,0,0,1,2.36-.6,3.36,3.36,0,0,1,2.67,1.23,5.27,5.27,0,0,1,1,3.2,13.33,13.33,0,0,1-.25,2.6,9.88,9.88,0,0,1-2.55,5.51A6.92,6.92,0,0,1,546,22.59h-.44l.16-1.54h.36a5.32,5.32,0,0,0,3.45-1.18A7,7,0,0,0,551.6,16.3Zm-2.78,0a2.82,2.82,0,0,0,1.71-.5,4.25,4.25,0,0,0,1.35-1.46l.08-.71,0-.79a4.6,4.6,0,0,0-.56-2.34,1.77,1.77,0,0,0-1.5-.86,2.5,2.5,0,0,0-2.07.93,4.23,4.23,0,0,0-1,2.46,4.72,4.72,0,0,0,0,1.21,3.07,3.07,0,0,0,.35,1.09A1.77,1.77,0,0,0,548.82,16.3Z"/><path class="cls-2" d="M561.24,14.92h3.85l-.3,1.71h-3.85l-.78,4.5h-1.78l.78-4.5h-3.85l.3-1.71h3.85l.72-4.16H562Z"/><path class="cls-3" d="M16.22,77.19h-6V54.06L3.08,56.27V51.44L15.58,47h.64Z"/><path class="cls-3" d="M48.47,64.71q0,6.26-2.59,9.58t-7.59,3.32a9.11,9.11,0,0,1-7.55-3.25Q28.13,71.1,28.07,65V59.47q0-6.32,2.62-9.6a9.11,9.11,0,0,1,7.56-3.28,9.12,9.12,0,0,1,7.55,3.25q2.61,3.24,2.67,9.32Zm-6-6.11a11.05,11.05,0,0,0-1-5.47,3.47,3.47,0,0,0-3.2-1.71,3.41,3.41,0,0,0-3.12,1.63,10.34,10.34,0,0,0-1.07,5.09v7.35a11.59,11.59,0,0,0,1,5.49,3.42,3.42,0,0,0,3.22,1.79,3.37,3.37,0,0,0,3.17-1.72,11.32,11.32,0,0,0,1-5.27Z"/><path class="cls-3" d="M54.55,52.81a6,6,0,0,1,1.8-4.51,6.54,6.54,0,0,1,4.73-1.73,6.65,6.65,0,0,1,4.77,1.71,6.08,6.08,0,0,1,1.8,4.63v1.49a5.9,5.9,0,0,1-1.8,4.5,7.45,7.45,0,0,1-9.48,0,6,6,0,0,1-1.81-4.61Zm4,1.62a2.82,2.82,0,0,0,.72,2,2.45,2.45,0,0,0,1.88.76A2.34,2.34,0,0,0,63,56.43a3,3,0,0,0,.68-2.06V52.83a2.94,2.94,0,0,0-.68-2,2.65,2.65,0,0,0-3.73,0,3,3,0,0,0-.7,2.12Zm3.77,20.5-2.92-1.58L74.13,49.76,77,51.34ZM69,69.79a5.89,5.89,0,0,1,1.82-4.51,6.63,6.63,0,0,1,4.73-1.71,6.7,6.7,0,0,1,4.76,1.69,6.05,6.05,0,0,1,1.81,4.65v1.49a5.93,5.93,0,0,1-1.78,4.49,6.57,6.57,0,0,1-4.75,1.71,6.65,6.65,0,0,1-4.79-1.72A6,6,0,0,1,69,71.32Zm4,1.64a2.8,2.8,0,0,0,.75,2,2.42,2.42,0,0,0,1.87.81q2.53,0,2.53-2.82V69.81a2.84,2.84,0,0,0-.7-2,2.67,2.67,0,0,0-3.73,0A2.93,2.93,0,0,0,73,69.87Z"/><path class="cls-3" d="M126.24,62.78a18.22,18.22,0,0,1-1.58,7.82,11.86,11.86,0,0,1-4.51,5.18,13.32,13.32,0,0,1-13.42,0,12,12,0,0,1-4.56-5.15,17.7,17.7,0,0,1-1.64-7.7V61.46a18.13,18.13,0,0,1,1.61-7.85,12,12,0,0,1,4.54-5.2,13.3,13.3,0,0,1,13.41,0,12,12,0,0,1,4.54,5.2,18.08,18.08,0,0,1,1.61,7.83Zm-6.3-1.37q0-4.75-1.7-7.21a6,6,0,0,0-9.68,0q-1.7,2.44-1.72,7.14v1.47a12.86,12.86,0,0,0,1.7,7.17,6,6,0,0,0,9.7.09q1.68-2.46,1.7-7.16Z"/><path class="cls-3" d="M151,64.86H139.1V77.19h-6.22V47h19.65v5H139.1v7.79H151Z"/><path class="cls-3" d="M176.43,64.86H164.49V77.19h-6.22V47h19.65v5H164.49v7.79h11.94Z"/><path class="cls-3" d="M195.13,69.06a6.92,6.92,0,0,1,1.17-3.88,16.25,16.25,0,0,1,4.3-4,21,21,0,0,1-2.11-3.39,7.5,7.5,0,0,1-.77-3.31,7.72,7.72,0,0,1,2.23-5.73,8.15,8.15,0,0,1,6-2.21,7.83,7.83,0,0,1,5.55,2,6.56,6.56,0,0,1,2.17,5q0,3.61-3.65,6.36l-2.32,1.68,5.2,6.05a11.54,11.54,0,0,0,1.22-5.31h5.1a15.57,15.57,0,0,1-2.72,9.54L221,77.19h-6.8l-1.55-1.78a13.63,13.63,0,0,1-7.67,2.2,10.52,10.52,0,0,1-7.17-2.35A7.82,7.82,0,0,1,195.13,69.06Zm10.16,3.71a7.6,7.6,0,0,0,4.08-1.2l-6-6.87L203,65a4.73,4.73,0,0,0-1.85,3.7,3.91,3.91,0,0,0,1.15,2.93A4.1,4.1,0,0,0,205.28,72.78Zm-2.2-18.33a7.08,7.08,0,0,0,1.82,3.92l1.6-1.06a5.43,5.43,0,0,0,1.69-1.53,3.3,3.3,0,0,0,.47-1.78,2.47,2.47,0,0,0-.77-1.8,2.95,2.95,0,0,0-4,.06A3.08,3.08,0,0,0,203.09,54.45Z"/><path class="cls-3" d="M257.19,64.86H245.25V77.19H239V47h19.65v5H245.25v7.79h11.94Z"/><path class="cls-3" d="M275.59,66.14h-5v11h-6.22V47h11.22q5.35,0,8.25,2.38a8.23,8.23,0,0,1,2.9,6.74,9.28,9.28,0,0,1-1.34,5.15,9.11,9.11,0,0,1-4.05,3.29l6.53,12.34v.29h-6.68Zm-5-5h5a5.14,5.14,0,0,0,3.63-1.19,4.26,4.26,0,0,0,1.29-3.29,4.56,4.56,0,0,0-1.21-3.36A5,5,0,0,0,275.63,52h-5Z"/><path class="cls-3" d="M311.8,64.07H299.85V72.2h14v5H293.64V47h20.19v5h-14v7.19H311.8Z"/><path class="cls-3" d="M337.8,64.07H325.86V72.2h14v5H319.64V47h20.19v5h-14v7.19H337.8Z"/><path class="cls-3" d="M374,69.27a3.19,3.19,0,0,0-1.24-2.71,16.33,16.33,0,0,0-4.48-2,31.72,31.72,0,0,1-5.12-2.06Q358,59.74,358,55a7.29,7.29,0,0,1,1.38-4.36,9,9,0,0,1,4-3,14.9,14.9,0,0,1,5.79-1.08,13.56,13.56,0,0,1,5.76,1.17,9.17,9.17,0,0,1,3.93,3.31,8.66,8.66,0,0,1,1.4,4.85H374a4.07,4.07,0,0,0-1.31-3.22A5.37,5.37,0,0,0,369,51.55a5.74,5.74,0,0,0-3.55,1A3,3,0,0,0,364.23,55a2.91,2.91,0,0,0,1.48,2.47,16.77,16.77,0,0,0,4.36,1.87q5.31,1.6,7.73,4a7.88,7.88,0,0,1,2.43,5.89,7.26,7.26,0,0,1-3,6.15,13,13,0,0,1-8,2.23,15.42,15.42,0,0,1-6.34-1.28,10,10,0,0,1-4.36-3.49,8.94,8.94,0,0,1-1.5-5.14h6.24q0,5,6,5a5.81,5.81,0,0,0,3.46-.9A2.94,2.94,0,0,0,374,69.27Z"/><path class="cls-3" d="M411.14,77.19h-6.22V64.25H392.79V77.19h-6.22V47h6.22V59.24h12.13V47h6.22Z"/><path class="cls-3" d="M425.3,77.19h-6.22V47h6.22Z"/><path class="cls-3" d="M439.41,66.56V77.19h-6.22V47H445a13.61,13.61,0,0,1,6,1.24,9.17,9.17,0,0,1,4,3.53A9.86,9.86,0,0,1,456.31,57a8.67,8.67,0,0,1-3,7q-3,2.56-8.41,2.56Zm0-5H445a5.47,5.47,0,0,0,3.76-1.16A4.22,4.22,0,0,0,450,57a5,5,0,0,0-1.31-3.59A4.88,4.88,0,0,0,445.11,52h-5.7Z"/><path class="cls-3" d="M468.92,66.56V77.19H462.7V47h11.78a13.61,13.61,0,0,1,6,1.24,9.17,9.17,0,0,1,4,3.53A9.86,9.86,0,0,1,485.82,57a8.67,8.67,0,0,1-3,7q-3,2.56-8.41,2.56Zm0-5h5.56a5.47,5.47,0,0,0,3.76-1.16,4.22,4.22,0,0,0,1.3-3.32,5,5,0,0,0-1.31-3.59A4.88,4.88,0,0,0,474.62,52h-5.7Z"/><path class="cls-3" d="M498.82,77.19H492.6V47h6.22Z"/><path class="cls-3" d="M531.26,77.19H525L512.93,57.33V77.19h-6.22V47h6.22l12.13,19.9V47h6.2Z"/><path class="cls-3" d="M562.7,73.38a10.8,10.8,0,0,1-4.75,3.12,19.89,19.89,0,0,1-6.8,1.11,13.46,13.46,0,0,1-6.87-1.71,11.4,11.4,0,0,1-4.56-5,17.48,17.48,0,0,1-1.65-7.65V61.23a18.56,18.56,0,0,1,1.52-7.83,11.27,11.27,0,0,1,4.4-5.06,12.66,12.66,0,0,1,6.73-1.75q5.37,0,8.4,2.56a10.94,10.94,0,0,1,3.59,7.45h-6.05a6,6,0,0,0-1.83-3.79,5.86,5.86,0,0,0-3.91-1.2A5.52,5.52,0,0,0,546.07,54q-1.66,2.38-1.68,7.09V63q0,4.75,1.8,7.17a6.18,6.18,0,0,0,5.29,2.43q3.5,0,5-1.49v-5.2h-5.66V61.33H562.7Z"/><path class="cls-4" d="M228.92,111a1.69,1.69,0,0,0-.66-1.44,8.64,8.64,0,0,0-2.38-1.06,16.92,16.92,0,0,1-2.72-1.1q-2.73-1.48-2.73-4a3.87,3.87,0,0,1,.73-2.32,4.78,4.78,0,0,1,2.1-1.59,7.93,7.93,0,0,1,3.08-.57,7.2,7.2,0,0,1,3.06.62,4.87,4.87,0,0,1,2.09,1.76,4.59,4.59,0,0,1,.74,2.58h-3.3a2.16,2.16,0,0,0-.69-1.71,2.85,2.85,0,0,0-1.95-.61,3,3,0,0,0-1.88.51,1.62,1.62,0,0,0-.67,1.35,1.55,1.55,0,0,0,.79,1.31,8.94,8.94,0,0,0,2.32,1,10,10,0,0,1,4.11,2.1,4.19,4.19,0,0,1,1.29,3.13,3.86,3.86,0,0,1-1.57,3.26,6.89,6.89,0,0,1-4.24,1.18,8.18,8.18,0,0,1-3.37-.68,5.33,5.33,0,0,1-2.32-1.85,4.75,4.75,0,0,1-.8-2.73h3.31q0,2.65,3.17,2.65a3.09,3.09,0,0,0,1.84-.48A1.56,1.56,0,0,0,228.92,111Z"/><path class="cls-4" d="M244.65,111.94h-5.79l-1.1,3.3h-3.51l6-16h3.06l6,16h-3.51Zm-4.9-2.67h4l-2-6Z"/><path class="cls-4" d="M257,111.27l3.63-12.05h3.68l-5.58,16h-3.45l-5.56-16h3.67Z"/><path class="cls-4" d="M276.56,108.28h-6.34v4.31h7.44v2.65H266.91v-16h10.72v2.68h-7.42v3.82h6.34Z"/><path class="cls-4" d="M300.5,115.25h-3.3l-6.43-10.55v10.55h-3.3v-16h3.3l6.44,10.57V99.22h3.29Z"/><path class="cls-4" d="M317.67,107.59a9.67,9.67,0,0,1-.84,4.15,6.3,6.3,0,0,1-2.39,2.75,7.08,7.08,0,0,1-7.13,0,6.36,6.36,0,0,1-2.42-2.74,9.4,9.4,0,0,1-.87-4.09v-.79a9.62,9.62,0,0,1,.85-4.17,6.35,6.35,0,0,1,2.41-2.76,7.07,7.07,0,0,1,7.12,0,6.36,6.36,0,0,1,2.41,2.76,9.59,9.59,0,0,1,.85,4.16Zm-3.35-.73a6.75,6.75,0,0,0-.9-3.83,3.19,3.19,0,0,0-5.14,0,6.67,6.67,0,0,0-.91,3.79v.78a6.83,6.83,0,0,0,.9,3.81,3.16,3.16,0,0,0,5.15,0,6.79,6.79,0,0,0,.9-3.8Z"/><path class="cls-4" d="M333.68,110.62l2.16-11.41h3.29l-3.56,16h-3.32l-2.61-10.72L327,115.25h-3.32l-3.56-16h3.29l2.17,11.38,2.64-11.38h2.8Z"/><line class="cls-5" y1="106.92" x2="159" y2="106.92"/><line class="cls-5" x1="401" y1="106.92" x2="560" y2="106.92"/><path class="cls-1" d="M569.79,52.22l-3.38-1,.63-1.95,3.35,1.34-.22-3.75h2.11l-.21,3.83,3.26-1.32.64,2-3.45,1,2.26,2.86-1.71,1.22-2-3.14-1.94,3-1.71-1.16Z"/></g></g></svg>