<svg xmlns="http://www.w3.org/2000/svg" viewBox="0 0 40 45.27"><defs><style>.cls-1{fill:#6dbe46;}</style></defs><title>leaf</title><g id="Capa_2" data-name="Capa 2"><g id="Layer_2" data-name="Layer 2"><path class="cls-1" d="M37.84,20.94l1.61-6.34a.49.49,0,0,0-.13-.47.48.48,0,0,0-.47-.13l-5.16,1.34L32,12.46a.49.49,0,0,0-.35-.24.48.48,0,0,0-.41.13l-4.72,4.57,1.8-10.8a.48.48,0,0,0-.72-.51l-3.6,2L20.2.26A.49.49,0,0,0,19.77,0a.54.54,0,0,0-.43.27l-3.75,7.4-3.46-2a.48.48,0,0,0-.53,0,.49.49,0,0,0-.2.48L13.28,17,8.47,12.6a.48.48,0,0,0-.4-.12.49.49,0,0,0-.35.24L6.29,15.18.85,14.09a.48.48,0,0,0-.57.59L1.8,20.94.21,22.09a.49.49,0,0,0-.2.37.48.48,0,0,0,.16.39l9.22,8.08-.66,3.46a.48.48,0,0,0,.12.42.47.47,0,0,0,.41.15l9.5-1-.17,9.49a2,2,0,0,0,.15.77c.09.09.21.55.34.55h0l1.69-.5c.26,0,.47-.44.46-.7l-.16-9.51,9.67,1a.5.5,0,0,0,.43-.2.52.52,0,0,0,.09-.47L30.21,31l9.61-7.89a.49.49,0,0,0,0-.77Z"/></g></g></svg>