<svg xmlns="http://www.w3.org/2000/svg" viewBox="0 0 446.93 96.09"><defs><style>.cls-1{fill:#8bc541;}.cls-2{fill:#cbe42a;}.cls-3{fill:#fbfdf4;}.cls-4{fill:#c8e321;}.cls-5{fill:#c0df01;}.cls-6{fill:#8cc643;}.cls-7{fill:#8ec746;}.cls-8{fill:#f1f8df;}.cls-9{fill:#d6ea58;}.cls-10{fill:#cde535;}.cls-11{fill:#d0e641;}.cls-12{fill:#dced73;}.cls-13{fill:#414441;}.cls-14{fill:#6dbe46;}.cls-15{fill:#646964;}.cls-16{fill:#585f11;}.cls-17{fill:#afbd21;stroke:#afbd21;stroke-miterlimit:10;stroke-width:0.5px;}</style></defs><title>logo</title><g id="Capa_2" data-name="Capa 2"><g id="Layer_2" data-name="Layer 2"><g id="po6EfF"><path class="cls-1" d="M51.68,0c1.47.89,3,1.7,4.38,2.7,4.33,3.09,5,7.33,1.69,11.94-1.93,2.68-2.06,5.25.49,7.13C66.68,28,69,36.47,67.88,46.36c-2.79,2.25-3.54-.69-4.61-2C58.34,38.2,53.55,32,50,24.45c-4.3,7.11-7.5,14.48-14.44,18.93-.9.64-1.36,2.2-2.65,1.87-1.08-.28-.7-1.6-.83-2.52C31,35,33.59,28.72,39.65,23.8c3.75-3,5.26-5.94,1.39-10.61-3.09-3.73-.65-7.67,2.79-10.48A38.75,38.75,0,0,1,48.17,0Z"/><path class="cls-2" d="M.21,85.39c2.56-.5,4.4-3.5,7.85-2-4.64,3.2-1.92,4.72,1.38,5.82,8.72,2.89,17.81,3.9,26.91,4.23,10.47.37,21,.09,32.1.09-1.65,1.87-4.13.55-5.06,2.36H28.28c-4.1-1-8.33-.75-12.47-1.25C10,94,3.74,93.79.21,87.73Z"/><path class="cls-3" d="M.21,87.73c7,5.58,15.75,5.36,24,6.89,1.41.26,3.16-.46,4.12,1.29-7.67,0-15.37-.35-23,.13C.62,96.35-.5,94.69.19,90.61A17.56,17.56,0,0,0,.21,87.73Z"/><path class="cls-4" d="M99.64,86.56l-4.46,2.66c-1.22.25-1.61-.28-1.33-1.42,3.1-4.87-2.47-3.56-3.92-5.47,3.83-2,6.49,1.47,9.7,1.89Z"/><path class="cls-5" d="M66.7,49.43c5.54,8.51,7,17.21,1,26.16A21.28,21.28,0,0,1,42.51,83.7a18.15,18.15,0,0,1-12.1-19.22c1-10.47,10.9-16.06,20-11.31a10.42,10.42,0,0,1,5.1,13.36c-2.33,5.33-9.28,6.66-13,2.52a5.67,5.67,0,0,1-1-6.51,4.11,4.11,0,0,1,4.17-2.65,4.7,4.7,0,0,1,4.58,4.46c.1.72.21,1.44.41,2.77,2.69-2.67,2.81-5.11,1.16-7.6a7,7,0,0,0-7.66-3c-6.44,1.2-9.07,9.27-4.78,14.9a11.47,11.47,0,0,0,12.42,4.53C57,74.68,60.16,71,61.09,65.79,62.2,59.51,60.4,54,55,50.48c-6-3.87-12.44-3.81-18.9-.63-1.64.81-2.48,3.12-5.19,2.59l5.57-8c3.35-6.35,8.81-11.26,12-17.72.88-1.77,2.21-1.42,3,.17C55.61,35,62.49,41.33,66.7,49.43Z"/><path class="cls-6" d="M36.54,84.64C21.9,82.57,13.44,72.31,15.18,59.86c.43-3.05,1.79-4.2,4.59-3.62,2.36.49,5.62-.73,6.05,3.62C27.23,74.15,27.58,74.72,36.54,84.64Z"/><path class="cls-6" d="M62.63,84.6c8.32-6.95,12-14.74,11.47-24.33-.26-4.44,3.16-3.56,5.6-4,3-.57,4.58.4,5,3.81C86.29,72.61,77.6,82.94,62.63,84.6Z"/><path class="cls-7" d="M78.14,82.92c4.47-4.24,7.73-9,8.8-15.14.28-1.61,1.13-2.54,2.75-2.19,2.24.49,4.82.7,6.52,2,1.44,1.09-.6,2.77-1.44,3.85C90.44,77,85.08,81.09,78.14,82.92Z"/><path class="cls-7" d="M19.48,81.63A28.45,28.45,0,0,1,3.9,69.75c-1.34-2-.4-2.94,1.49-3.1,2.51-.22,6.07-3.41,7.31.89A50.33,50.33,0,0,0,19.48,81.63Z"/><path class="cls-8" d="M66.7,49.43A144.2,144.2,0,0,1,49.93,26.09C45.83,32.65,42,39.18,36.46,44.42l-.91-1c4.83-7.2,11.38-13.31,14-22.4,3.73,8.4,9.09,15.35,14.57,22.2,1,1.26,1.43,3.38,3.73,3.18Z"/><path class="cls-9" d="M66,91.41A95,95,0,0,1,25.53,89c10.65,2,21.42.64,32.12,1.26C60.3,91.5,63.38,89.67,66,91.41Z"/><path class="cls-10" d="M66,91.41c-2.72-.8-5.77.81-8.33-1.14a107.16,107.16,0,0,0,19.64-2.39c1.71-.39,3.53-.63,4.68-2.09.91-1.17,1.91-2.51,3.09-.82,1.31,1.9-.64,2.84-2,3.37A44.41,44.41,0,0,1,66,91.41Z"/><path class="cls-11" d="M19.88,89c-2.65,0-4.65-.75-5.45-3.14a1.23,1.23,0,0,1,1.15-1.6C19.1,84.08,16.94,88.52,19.88,89Z"/><path class="cls-12" d="M93.85,87.8l1.33,1.42C93.11,90.59,91,91.72,88,90.53,89.7,88.34,92.09,88.73,93.85,87.8Z"/></g><path class="cls-13" d="M126,23.08l7,19.71,6.94-19.71h7.35V50.25h-5.62V42.83L142.24,30l-7.33,20.25h-3.84L123.75,30l.56,12.8v7.43h-5.6V23.08Z"/><path class="cls-13" d="M163.53,50.25a6,6,0,0,1-.54-1.81,6.52,6.52,0,0,1-5.09,2.18A7.17,7.17,0,0,1,153,48.91a5.52,5.52,0,0,1-2-4.33,5.71,5.71,0,0,1,2.38-4.93q2.38-1.72,6.88-1.74h2.48V36.76a3.33,3.33,0,0,0-.72-2.24,2.83,2.83,0,0,0-2.27-.84,3.21,3.21,0,0,0-2.14.65,2.22,2.22,0,0,0-.77,1.79h-5.39a5.42,5.42,0,0,1,1.08-3.25,7.16,7.16,0,0,1,3.06-2.34,11.16,11.16,0,0,1,4.44-.85A8.82,8.82,0,0,1,166,31.56a6.56,6.56,0,0,1,2.19,5.27v8.75a9.65,9.65,0,0,0,.8,4.35v.32Zm-4.46-3.75a4.65,4.65,0,0,0,2.2-.53,3.49,3.49,0,0,0,1.49-1.43V41.07h-2q-4,0-4.31,2.8l0,.32a2.16,2.16,0,0,0,.71,1.66A2.75,2.75,0,0,0,159.07,46.5Z"/><path class="cls-13" d="M183.26,44.67a1.74,1.74,0,0,0-1-1.56,11.13,11.13,0,0,0-3.14-1q-7.2-1.51-7.2-6.12a5.55,5.55,0,0,1,2.23-4.49,9,9,0,0,1,5.83-1.8,9.69,9.69,0,0,1,6.15,1.81,5.71,5.71,0,0,1,2.3,4.7h-5.39a2.61,2.61,0,0,0-.75-1.91,3.16,3.16,0,0,0-2.33-.76,3.23,3.23,0,0,0-2.11.62,1.94,1.94,0,0,0-.75,1.57,1.66,1.66,0,0,0,.85,1.45,8.72,8.72,0,0,0,2.86,1,23.47,23.47,0,0,1,3.4.91q4.27,1.57,4.27,5.43a5.27,5.27,0,0,1-2.37,4.47A10.22,10.22,0,0,1,180,50.63a10.68,10.68,0,0,1-4.51-.9,7.56,7.56,0,0,1-3.09-2.48,5.77,5.77,0,0,1-1.12-3.41h5.11a2.81,2.81,0,0,0,1.06,2.2,4.21,4.21,0,0,0,2.65.77,3.91,3.91,0,0,0,2.34-.59A1.83,1.83,0,0,0,183.26,44.67Z"/><path class="cls-13" d="M202.91,44.67a1.74,1.74,0,0,0-1-1.56,11.13,11.13,0,0,0-3.14-1q-7.2-1.51-7.2-6.12a5.55,5.55,0,0,1,2.23-4.49,9,9,0,0,1,5.83-1.8,9.69,9.69,0,0,1,6.15,1.81,5.71,5.71,0,0,1,2.3,4.7h-5.39a2.61,2.61,0,0,0-.75-1.91,3.16,3.16,0,0,0-2.33-.76,3.23,3.23,0,0,0-2.11.62,1.94,1.94,0,0,0-.75,1.57,1.66,1.66,0,0,0,.85,1.45,8.72,8.72,0,0,0,2.86,1,23.47,23.47,0,0,1,3.4.91q4.27,1.57,4.27,5.43a5.27,5.27,0,0,1-2.37,4.47,10.22,10.22,0,0,1-6.12,1.71,10.68,10.68,0,0,1-4.51-.9,7.56,7.56,0,0,1-3.09-2.48,5.77,5.77,0,0,1-1.12-3.41h5.11a2.81,2.81,0,0,0,1.06,2.2,4.21,4.21,0,0,0,2.65.77,3.91,3.91,0,0,0,2.34-.59A1.83,1.83,0,0,0,202.91,44.67Z"/><path class="cls-13" d="M223.33,50.25a6,6,0,0,1-.54-1.81,6.52,6.52,0,0,1-5.09,2.18,7.17,7.17,0,0,1-4.92-1.72,5.52,5.52,0,0,1-2-4.33,5.71,5.71,0,0,1,2.38-4.93q2.38-1.72,6.88-1.74h2.48V36.76a3.33,3.33,0,0,0-.72-2.24,2.83,2.83,0,0,0-2.27-.84,3.21,3.21,0,0,0-2.14.65,2.22,2.22,0,0,0-.77,1.79h-5.39a5.42,5.42,0,0,1,1.08-3.25,7.16,7.16,0,0,1,3.06-2.34,11.16,11.16,0,0,1,4.44-.85,8.82,8.82,0,0,1,5.93,1.88A6.56,6.56,0,0,1,228,36.84v8.75a9.65,9.65,0,0,0,.8,4.35v.32Zm-4.46-3.75a4.65,4.65,0,0,0,2.2-.53,3.49,3.49,0,0,0,1.49-1.43V41.07h-2q-4,0-4.31,2.8l0,.32a2.16,2.16,0,0,0,.71,1.66A2.75,2.75,0,0,0,218.87,46.5Z"/><path class="cls-13" d="M231.33,40a11.83,11.83,0,0,1,2.21-7.48,7.17,7.17,0,0,1,6-2.84A6.29,6.29,0,0,1,244.68,32l.22-1.9h4.89V49.58a8.63,8.63,0,0,1-1.2,4.61,7.73,7.73,0,0,1-3.39,3,11.91,11.91,0,0,1-5.11,1,11.07,11.07,0,0,1-4.33-.89A7.68,7.68,0,0,1,232.56,55L235,51.75A6.32,6.32,0,0,0,239.84,54a4.62,4.62,0,0,0,3.34-1.15,4.31,4.31,0,0,0,1.19-3.26V48.52a6.24,6.24,0,0,1-4.91,2.11,7.15,7.15,0,0,1-5.89-2.85,11.83,11.83,0,0,1-2.25-7.55Zm5.39.38a7.41,7.41,0,0,0,1.1,4.32,3.5,3.5,0,0,0,3,1.56,3.74,3.74,0,0,0,3.53-1.86V35.89A3.73,3.73,0,0,0,240.89,34a3.52,3.52,0,0,0-3.05,1.59A8.35,8.35,0,0,0,236.73,40.39Z"/><path class="cls-13" d="M263.23,50.63A9.91,9.91,0,0,1,256,47.9a9.68,9.68,0,0,1-2.79-7.26v-.52a12.19,12.19,0,0,1,1.18-5.44A8.63,8.63,0,0,1,257.71,31a9.35,9.35,0,0,1,4.92-1.3,8.38,8.38,0,0,1,6.52,2.61q2.38,2.61,2.38,7.41v2.2H258.67a5,5,0,0,0,1.58,3.17,4.77,4.77,0,0,0,3.33,1.19A5.82,5.82,0,0,0,268.45,44l2.65,3a8.1,8.1,0,0,1-3.28,2.68A10.78,10.78,0,0,1,263.23,50.63ZM262.61,34a3.37,3.37,0,0,0-2.6,1.09,5.63,5.63,0,0,0-1.28,3.11h7.5V37.8a4,4,0,0,0-1-2.78A3.48,3.48,0,0,0,262.61,34Z"/><path class="cls-14" d="M292.23,40.38a12,12,0,0,1-2.13,7.44,6.8,6.8,0,0,1-5.71,2.81,7,7,0,0,1-5.92-2.71l-.17,2.33h-3.17V21.59h3.45V32.28a7,7,0,0,1,5.77-2.59,6.84,6.84,0,0,1,5.78,2.78,12.37,12.37,0,0,1,2.1,7.61ZM288.77,40a9.33,9.33,0,0,0-1.36-5.45,4.51,4.51,0,0,0-3.92-1.92,5.07,5.07,0,0,0-4.91,3.17v8.73a5.21,5.21,0,0,0,4.95,3.17,4.49,4.49,0,0,0,3.86-1.92A9.92,9.92,0,0,0,288.77,40Z"/><path class="cls-14" d="M295.66,40a11.92,11.92,0,0,1,1.17-5.34A8.7,8.7,0,0,1,300.07,31a8.84,8.84,0,0,1,4.75-1.29,8.52,8.52,0,0,1,6.67,2.86,11,11,0,0,1,2.55,7.6v.24a12,12,0,0,1-1.13,5.29,8.57,8.57,0,0,1-3.23,3.65,8.94,8.94,0,0,1-4.82,1.31,8.49,8.49,0,0,1-6.65-2.85,10.93,10.93,0,0,1-2.55-7.56Zm3.47.41a8.64,8.64,0,0,0,1.56,5.39,5.28,5.28,0,0,0,8.35,0A9.44,9.44,0,0,0,310.59,40,8.62,8.62,0,0,0,309,34.59a5,5,0,0,0-4.19-2.06,5,5,0,0,0-4.12,2A9.38,9.38,0,0,0,299.13,40.38Z"/><path class="cls-14" d="M330.84,48.26a7.33,7.33,0,0,1-5.92,2.37A6.28,6.28,0,0,1,320,48.75a8.12,8.12,0,0,1-1.71-5.55V30.06h3.45v13q0,4.59,3.73,4.59,4,0,5.26-2.95V30.06h3.45V50.25h-3.28Z"/><path class="cls-14" d="M344.12,25.17v4.89h3.77v2.67h-3.77V45.27a2.8,2.8,0,0,0,.5,1.82,2.12,2.12,0,0,0,1.72.61,8.35,8.35,0,0,0,1.64-.22v2.78a10.08,10.08,0,0,1-2.65.37,4.3,4.3,0,0,1-3.49-1.4,6,6,0,0,1-1.18-4V32.73H337V30.06h3.68V25.17Z"/><path class="cls-14" d="M351.94,24.71a2.06,2.06,0,0,1,.51-1.42,1.93,1.93,0,0,1,1.52-.58,2,2,0,0,1,1.53.58,2,2,0,0,1,.52,1.42,2,2,0,1,1-4.09,0Zm3.73,25.55h-3.45V30.06h3.45Z"/><path class="cls-14" d="M366.84,40.9l-2.17,2.26v7.09h-3.45V21.59h3.45V38.93l1.85-2.22,6.29-6.64H377l-7.86,8.44,8.77,11.76h-4Z"/><path class="cls-15" d="M380.2,48.74a1.8,1.8,0,0,1,.44-1.24A1.69,1.69,0,0,1,382,47a1.74,1.74,0,0,1,1.35.5,1.77,1.77,0,0,1,.46,1.24,1.67,1.67,0,0,1-.46,1.2,1.77,1.77,0,0,1-1.35.48,1.6,1.6,0,0,1-1.77-1.68Z"/><path class="cls-15" d="M395.27,48.22a4.14,4.14,0,0,0,2.69-.93,3.28,3.28,0,0,0,1.28-2.33H402a5.22,5.22,0,0,1-1,2.75,6.56,6.56,0,0,1-2.45,2.08,7.07,7.07,0,0,1-3.24.78,6.93,6.93,0,0,1-5.47-2.29,9.14,9.14,0,0,1-2-6.27v-.48a10.13,10.13,0,0,1,.9-4.37,6.87,6.87,0,0,1,2.59-3,7.36,7.36,0,0,1,4-1.06,6.75,6.75,0,0,1,4.7,1.7,6.06,6.06,0,0,1,2,4.4h-2.72A4,4,0,0,0,398,36.53a3.85,3.85,0,0,0-2.74-1,4,4,0,0,0-3.4,1.58,7.41,7.41,0,0,0-1.21,4.56v.54a7.26,7.26,0,0,0,1.2,4.48A4,4,0,0,0,395.27,48.22Z"/><path class="cls-15" d="M404.43,41.68a9.94,9.94,0,0,1,1-4.45,7.25,7.25,0,0,1,2.71-3,7.37,7.37,0,0,1,4-1.07,7.09,7.09,0,0,1,5.56,2.38,9.15,9.15,0,0,1,2.12,6.33V42a10,10,0,0,1-.94,4.41,7.14,7.14,0,0,1-2.69,3,7.45,7.45,0,0,1-4,1.09,7.08,7.08,0,0,1-5.54-2.38,9.11,9.11,0,0,1-2.12-6.3Zm2.89.34a7.2,7.2,0,0,0,1.3,4.49,4.4,4.4,0,0,0,7,0,7.87,7.87,0,0,0,1.29-4.81,7.19,7.19,0,0,0-1.31-4.49,4.18,4.18,0,0,0-3.49-1.72,4.13,4.13,0,0,0-3.44,1.7A7.81,7.81,0,0,0,407.32,42Z"/><path class="cls-15" d="M426.06,33.43l.08,1.87a6.21,6.21,0,0,1,5-2.18q3.53,0,4.81,2.71a6.37,6.37,0,0,1,2.19-2,6.45,6.45,0,0,1,3.18-.75q5.54,0,5.63,5.86V50.25h-2.88V39.15a3.86,3.86,0,0,0-.82-2.7,3.63,3.63,0,0,0-2.77-.89,3.81,3.81,0,0,0-2.66,1,3.88,3.88,0,0,0-1.23,2.57V50.25h-2.89v-11q0-3.67-3.59-3.67A3.85,3.85,0,0,0,426.21,38V50.25h-2.88V33.43Z"/><path class="cls-15" d="M284.57,68.47a6,6,0,0,1-1.06,3.7,3.38,3.38,0,0,1-2.84,1.4,3.5,3.5,0,0,1-2.94-1.35l-.08,1.16h-1.58V59.13h1.72v5.32a3.48,3.48,0,0,1,2.87-1.29,3.4,3.4,0,0,1,2.87,1.38,6.15,6.15,0,0,1,1,3.79Zm-1.72-.19a4.64,4.64,0,0,0-.68-2.71,2.24,2.24,0,0,0-1.95-1,2.52,2.52,0,0,0-2.44,1.58v4.34a2.59,2.59,0,0,0,2.46,1.58,2.23,2.23,0,0,0,1.92-1A4.93,4.93,0,0,0,282.85,68.28Z"/><path class="cls-15" d="M289.91,70.87l2.34-7.52h1.84l-4,11.59q-.94,2.5-3,2.5l-.33,0-.64-.12V75.89l.46,0a2.29,2.29,0,0,0,1.36-.35,2.55,2.55,0,0,0,.8-1.29l.38-1-3.58-9.93h1.87Z"/><path class="cls-16" d="M308.32,71.5a5.63,5.63,0,0,1-4,1.88,5.2,5.2,0,1,1,5.2-5.2v4.62a.57.57,0,0,1-.58.58.57.57,0,0,1-.41-.17.55.55,0,0,1-.17-.41Zm-4-7.36a4,4,0,1,0,2.86,1.19A3.9,3.9,0,0,0,304.28,64.14Z"/><path class="cls-16" d="M311,59.09a.57.57,0,0,1,.58-.58.57.57,0,0,1,.41.17.55.55,0,0,1,.17.41V72.23h1a.57.57,0,0,1,.41.17.57.57,0,0,1,0,.82.57.57,0,0,1-.41.17H311.6a.57.57,0,0,1-.58-.58Z"/><path class="cls-16" d="M315.48,59.09a.57.57,0,0,1,.58-.58.57.57,0,0,1,.41.17.55.55,0,0,1,.17.41V72.23h1a.57.57,0,0,1,.41.17.57.57,0,0,1,0,.82.57.57,0,0,1-.41.17h-1.54a.57.57,0,0,1-.58-.58Z"/><path class="cls-16" d="M328,71.14a.55.55,0,0,1,.41.17.57.57,0,0,1,.17.41.56.56,0,0,1-.15.4,5.2,5.2,0,1,1,1.81-3.94.57.57,0,0,1-.58.58H321A4.34,4.34,0,0,0,322.21,71a3.89,3.89,0,0,0,2.86,1.19,3.87,3.87,0,0,0,2.6-1A.55.55,0,0,1,328,71.14Zm1.06-3.53a4.25,4.25,0,0,0-1.16-2.28,4,4,0,0,0-5.71,0A4.34,4.34,0,0,0,321,67.61Z"/><path class="cls-16" d="M340,72.23a.58.58,0,1,1,0,1.15h-7.69a.57.57,0,0,1-.41-.17.55.55,0,0,1-.17-.41.6.6,0,0,1,.11-.35l6.92-8.31h-6.45a.57.57,0,0,1-.41-.17.57.57,0,0,1,0-.82.57.57,0,0,1,.41-.17H340a.57.57,0,0,1,.58.58.58.58,0,0,1-.13.38l-6.92,8.28Z"/><path class="cls-17" d="M345.51,72.41a1,1,0,1,1-1.94,0V59.51a.94.94,0,0,1,.28-.69,1,1,0,0,1,1.36,0,1,1,0,0,1,.29.69V64a4.81,4.81,0,0,1,4.75-.58,5.08,5.08,0,0,1,1.54,1A4.88,4.88,0,0,1,352.87,66a4.64,4.64,0,0,1,.39,1.89v4.56a1,1,0,0,1-.29.69,1,1,0,0,1-1.36,0,.94.94,0,0,1-.28-.69V67.85a2.77,2.77,0,0,0-.23-1.12,3,3,0,0,0-1.55-1.55,2.77,2.77,0,0,0-1.12-.23,2.81,2.81,0,0,0-1.13.23,3,3,0,0,0-1.55,1.55,2.82,2.82,0,0,0-.23,1.12Z"/><path class="cls-17" d="M365.69,68.19a5,5,0,0,1-1.52,3.67,5.2,5.2,0,1,1,0-7.35,5.11,5.11,0,0,1,1.14,1.68A5.36,5.36,0,0,1,365.69,68.19Zm-5.2-3.26a3.16,3.16,0,0,0-1.28.26,3.25,3.25,0,0,0-1.72,1.73,3.24,3.24,0,0,0,0,2.52,3.25,3.25,0,0,0,1.72,1.73,3.26,3.26,0,0,0,2.55,0,3.3,3.3,0,0,0,1-.71,3.35,3.35,0,0,0,.7-1,3.23,3.23,0,0,0,0-2.51,3.35,3.35,0,0,0-.7-1,3.31,3.31,0,0,0-1-.71A3.14,3.14,0,0,0,360.5,64.93Z"/><path class="cls-17" d="M376.47,73.38a.91.91,0,0,1-.69-.28,1,1,0,0,1-.28-.68,4.32,4.32,0,0,1-1.35.73,5.08,5.08,0,0,1-1.55.23,4.64,4.64,0,0,1-1.87-.38,4.93,4.93,0,0,1-2.58-2.58,4.63,4.63,0,0,1-.39-1.87V64a1,1,0,0,1,1.94,0v4.58a2.82,2.82,0,0,0,.23,1.13,2.91,2.91,0,0,0,1.54,1.54,2.91,2.91,0,0,0,2.25,0,3,3,0,0,0,1.55-1.55,2.8,2.8,0,0,0,.23-1.13V64a.93.93,0,0,1,.28-.68,1,1,0,0,1,1.66.68v8.46a.93.93,0,0,1-.28.68A.94.94,0,0,1,376.47,73.38Z"/><path class="cls-17" d="M381.38,68.44a3.57,3.57,0,0,1-1.22-.69h0a2.31,2.31,0,0,1-.71-1.68,2.27,2.27,0,0,1,.38-1.28,3.4,3.4,0,0,1,1-1,4.93,4.93,0,0,1,1.36-.62,5.46,5.46,0,0,1,1.52-.22,5.15,5.15,0,0,1,4,1.86.9.9,0,0,1,.19.58.94.94,0,0,1-1,1,.78.78,0,0,1-.5-.17,4.83,4.83,0,0,1-.4-.36,3.13,3.13,0,0,0-2.3-.95,2.85,2.85,0,0,0-2.13.82.55.55,0,0,0-.15.41.35.35,0,0,0,.24.35L386,67.93a3.5,3.5,0,0,1,1.22.69h0a2.32,2.32,0,0,1,.71,1.68,2.26,2.26,0,0,1-.38,1.28,3.49,3.49,0,0,1-1,1,4.76,4.76,0,0,1-1.35.62,5.5,5.5,0,0,1-1.51.21,5.13,5.13,0,0,1-4-1.85,1,1,0,0,1-.2-.6.94.94,0,0,1,1-1,.78.78,0,0,1,.52.18l.39.35a3.14,3.14,0,0,0,2.31.95,2.83,2.83,0,0,0,2.13-.83.56.56,0,0,0,.14-.38.37.37,0,0,0-.25-.36Z"/><path class="cls-17" d="M391.8,68.44a3.57,3.57,0,0,1-1.22-.69h0a2.31,2.31,0,0,1-.71-1.68,2.27,2.27,0,0,1,.38-1.28,3.4,3.4,0,0,1,1-1,4.93,4.93,0,0,1,1.36-.62,5.46,5.46,0,0,1,1.52-.22,5.15,5.15,0,0,1,4,1.86.9.9,0,0,1,.19.58.94.94,0,0,1-1,1,.78.78,0,0,1-.5-.17,4.83,4.83,0,0,1-.4-.36,3.13,3.13,0,0,0-2.3-.95,2.85,2.85,0,0,0-2.13.82.55.55,0,0,0-.15.41.35.35,0,0,0,.24.35l4.34,1.43a3.5,3.5,0,0,1,1.22.69h0a2.32,2.32,0,0,1,.71,1.68,2.26,2.26,0,0,1-.38,1.28,3.49,3.49,0,0,1-1,1,4.76,4.76,0,0,1-1.35.62,5.5,5.5,0,0,1-1.51.21,5.13,5.13,0,0,1-4-1.85,1,1,0,0,1-.2-.6.94.94,0,0,1,1-1,.78.78,0,0,1,.52.18l.39.35a3.14,3.14,0,0,0,2.31.95,2.83,2.83,0,0,0,2.13-.83.56.56,0,0,0,.14-.38.37.37,0,0,0-.25-.36Z"/><path class="cls-17" d="M408.24,70.46a.94.94,0,0,1,1,1,1,1,0,0,1-.28.7,5.2,5.2,0,1,1-3.4-9.13,5.27,5.27,0,0,1,4.82,3.2,5.21,5.21,0,0,1,.38,2,.92.92,0,0,1-.28.69,1,1,0,0,1-.69.27H402.4a3.16,3.16,0,0,0,.46.93,3.26,3.26,0,0,0,.72.72,3.34,3.34,0,0,0,.91.47,3.22,3.22,0,0,0,1,.17,3.26,3.26,0,0,0,1.12-.19,3.08,3.08,0,0,0,.95-.56A1,1,0,0,1,408.24,70.46Zm.42-3.24a3.13,3.13,0,0,0-.47-.93,3.32,3.32,0,0,0-1.63-1.19,3.2,3.2,0,0,0-1-.17,3.23,3.23,0,0,0-1,.17,3.4,3.4,0,0,0-.92.47,3.22,3.22,0,0,0-.72.72,3,3,0,0,0-.45.93Z"/><path class="cls-17" d="M414.69,68.44a3.59,3.59,0,0,1-1.22-.69h0a2.31,2.31,0,0,1-.71-1.68,2.27,2.27,0,0,1,.38-1.28,3.4,3.4,0,0,1,1-1,4.92,4.92,0,0,1,1.36-.62A5.47,5.47,0,0,1,417,63a5.15,5.15,0,0,1,4,1.86.9.9,0,0,1,.2.58.94.94,0,0,1-1,1,.78.78,0,0,1-.51-.17,4.82,4.82,0,0,1-.4-.36,3.13,3.13,0,0,0-2.3-.95,2.85,2.85,0,0,0-2.13.82.55.55,0,0,0-.15.41.35.35,0,0,0,.24.35l4.34,1.43a3.52,3.52,0,0,1,1.22.69h0a2.32,2.32,0,0,1,.71,1.68,2.26,2.26,0,0,1-.38,1.28,3.47,3.47,0,0,1-1,1,4.76,4.76,0,0,1-1.35.62,5.5,5.5,0,0,1-1.51.21,5.14,5.14,0,0,1-4-1.85,1,1,0,0,1-.2-.6.94.94,0,0,1,1-1,.78.78,0,0,1,.52.18l.39.35a3.14,3.14,0,0,0,2.31.95,2.83,2.83,0,0,0,2.13-.83.55.55,0,0,0,.14-.38.36.36,0,0,0-.25-.36Z"/></g></g></svg>