<svg xmlns="http://www.w3.org/2000/svg" viewBox="0 0 83 83"><defs><style>.cls-1{fill:none;}.cls-2{fill:#3c3f3c;}.cls-3{fill:#414441;}</style></defs><title>menubg_1</title><g id="Capa_2" data-name="Capa 2"><g id="Layer_2" data-name="Layer 2"><rect class="cls-1" width="83" height="83"/><rect class="cls-2" x="0.57" y="0.69" width="81.81" height="81.81"/><path class="cls-3" d="M4,57.23,14.21,47,24.43,57.23l2-2L14.21,42.93,1.94,55.19ZM19.66,18.41l2,2,6.14-6.13L34,20.45l2-2-8.18-8.17Zm-5.45,9.54,6.14,6.13,2-2-8.18-8.17L6,32l2,2Zm4.09,8.17L14.21,32l-4.09,4.09,4.09,4.09ZM31.93,49.74l-4.09-4.09-4.09,4.09,4.09,4.09Zm31.36-4.09-8.18-8.17-8.18,8.17,2,2,6.14-6.13,6.14,6.13ZM55.11,18.41,51,22.49l4.09,4.09,4.09-4.09ZM59.2,49.74l-4.09-4.09L51,49.74l4.09,4.09Zm8.18-8.17L55.11,29.3,42.84,41.56l2,2L55.11,33.39,65.34,43.61ZM63.29,18.41l-8.18-8.17-8.18,8.17,2,2,6.14-6.13,6.14,6.13ZM68.75,32l-4.09,4.09,4.09,4.09,4.09-4.09ZM81,55.19,68.75,42.93,56.47,55.19l2,2L68.75,47,79,57.23Zm-4.09,4.09L68.75,51.1l-8.18,8.17,2,2,6.14-6.13,6.14,6.13ZM81,27.94,68.75,15.68,56.47,27.94l2,2L68.75,19.77,79,30ZM18.3,63.36l-4.09-4.09-4.09,4.09,4.09,4.09Zm54.54,0-4.09-4.09-4.09,4.09,4.09,4.09ZM14.21,55.19l6.14,6.13,2-2L14.21,51.1,6,59.27l2,2Zm31.36,8.17-4.09-4.09-4.09,4.09,4.09,4.09ZM76.93,32l-8.18-8.17L60.57,32l2,2,6.14-6.13,6.14,6.13ZM40.11,68.81,27.84,56.55,15.57,68.81l2,2L27.84,60.64,38.07,70.85Zm-25.91-64L10.12,8.87,14.21,13,18.3,8.87ZM4,30,14.21,19.77,24.43,30l2-2L14.21,15.68,1.94,27.94ZM46.93,72.9l2,2,6.14-6.13,6.14,6.13,2-2-8.18-8.17Zm-27.27,0,2,2,6.14-6.13L34,74.94l2-2-8.18-8.17ZM81,.69H76.93l2,2ZM76.93,4.78,72.84.69H68.75l6.14,6.13Zm-9.54,64L55.11,56.55,42.84,68.81l2,2L55.11,60.64,65.34,70.85Zm-4.77-62L68.75.69H64.66L60.57,4.78ZM53.75,55.19,41.48,42.93,29.21,55.19l2,2L41.48,47,51.7,57.23ZM49.66,32l-8.18-8.17L33.3,32l2,2,6.14-6.13,6.14,6.13ZM27.84,18.41l-4.09,4.09,4.09,4.09,4.09-4.09ZM31.25,30,41.48,19.77,51.7,30l2-2L41.48,15.68,29.21,27.94ZM17.62,43.61,27.84,33.39,38.07,43.61l2-2L27.84,29.3,15.57,41.56Zm19.77-7.49,4.09,4.09,4.09-4.09L41.48,32ZM33.3,59.27l2,2,6.14-6.13,6.14,6.13,2-2L41.48,51.1ZM41.48,4.78,37.39,8.87,41.48,13l4.09-4.09ZM27.84,41.56,34,47.69l2-2-8.18-8.17-8.18,8.17,2,2ZM82.38,53.83V45.65l-4.09,4.09ZM55.11,72.9,51,77l4.09,4.09L59.2,77ZM29.21,82.43l.07.07h4l8.25-8.24,8.25,8.24h4l.07-.07L41.48,70.17Zm35.38.07h4.09l.07-.07.07.07H72.9l-4.16-4.15Zm-27.27,0h4.09l.07-.07.07.07h4.09l-4.16-4.15Zm-9.48-9.6L23.75,77l4.09,4.09L31.93,77ZM68.75,4.78,64.66,8.87,68.75,13l4.09-4.09ZM.57,72.9v8.17L4.66,77Zm1.36,9.54L2,82.5H6l8.25-8.24,8.25,8.24h4l.07-.07L14.21,70.17Zm54.54,0,.07.07h4l8.25-8.24L77,82.5h4l.07-.07L68.75,70.17Zm19.77-7.49,6.14-6.13V64.72L74.2,72.9ZM72.15,43.61,82.38,33.39V29.3L70.11,41.56Zm10.23-17V18.41l-4.09,4.09Zm-6.14-6.13,6.14-6.13V10.23L74.2,18.41Zm6.14,60.62V72.9L78.29,77ZM70.11,14.32l2,2L82.38,6.14V2.06Zm6.14,33.38,6.14-6.13V37.48L74.2,45.65ZM8.75,72.9.57,64.72v4.09l6.14,6.13Zm63.4-2L82.38,60.64V56.55L70.11,68.81ZM10.05,82.5h4.09l.07-.07.07.07h4.09l-4.16-4.15ZM33.3.69H29.21l2,2Zm2,6.13L41.48.69H37.39L33.3,4.78ZM17.62,16.36,27.84,6.14,38.07,16.36l2-2L27.84,2.06,15.57,14.32ZM26.48.69H22.39l2,2ZM44.89,16.36,55.11,6.14,65.34,16.36l2-2L55.11,2.06,42.84,14.32Zm-32,52.45L.57,56.55v4.09L10.8,70.85Zm9.54-64L18.3.69H14.21l6.14,6.13ZM53.75.69H49.66l2,2ZM49.66,4.78,45.57.69H41.48l6.14,6.13ZM60.57.69H56.47l2,2Zm-51.81,45L.57,37.48v4.09l6.14,6.13Zm4.09-4.09L.57,29.3v4.09L10.8,43.61ZM.57,18.41v8.17l4.09-4.09ZM8.07,6.83,14.21.69H10.12L6,4.78ZM.57,45.65v8.17l4.09-4.09ZM6,.69H1.94l2,2ZM8.75,18.41.57,10.23v4.09l6.14,6.13Zm4.09-4.09L.57,2.06V6.14L10.8,16.36Z"/></g></g></svg>