<svg xmlns="http://www.w3.org/2000/svg" xmlns:xlink="http://www.w3.org/1999/xlink" viewBox="0 0 272 475"><defs><style>.cls-1,.cls-6{fill:none;}.cls-2{fill:#fafdfa;}.cls-3{fill:#f2f5f2;}.cls-4,.cls-6{stroke:#cbcbcb;stroke-miterlimit:10;}.cls-4{fill:url(#Nueva_muestra_de_motivo_4);}.cls-5{fill:#cbcbcb;}.cls-6{stroke-width:2px;}.cls-7{fill:#666;}.cls-8{fill:#6dbe46;}</style><pattern id="Nueva_muestra_de_motivo_4" data-name="Nueva muestra de motivo 4" width="80" height="80" patternTransform="translate(160 -0.5)" patternUnits="userSpaceOnUse" viewBox="0 0 80 80"><rect class="cls-1" width="80" height="80"/><rect class="cls-2" x="43.59" y="76.34" width="80" height="80"/><path class="cls-3" d="M44.93,129.63l12-12,12,12-2,2-10-10-10,10Zm25.33-44,8,8-2,2-6-6-6,6-2-2ZM50.93,109l-2-2,8-8,8,8-2,2-6-6Zm6,6-4-4,4-4,4,4Zm13.33,13.32-4-4,4-4,4,4Zm32.67-6-6-6-6,6-2-2,8-8,8,8Zm-2-24.65-4,4-4-4,4-4Zm-4,30.64-4-4,4-4,4,4Zm10-10-10-10-10,10-2-2,12-12,12,12Zm-4-22.65-6-6-6,6-2-2,8-8,8,8ZM114.26,111l-4,4-4-4,4-4Zm6,20.65-10-10-10,10-2-2,12-12,12,12Zm-4,4-6-6-6,6-2-2,8-8,8,8Zm4-30.64-10-10-10,10-2-2,12-12,12,12ZM56.93,141.62l-4-4,4-4,4,4Zm53.33,0-4-4,4-4,4,4Zm-59.33-6-2-2,8-8,8,8-2,2-6-6Zm32.67,6-4-4,4-4,4,4ZM116.26,109l-6-6-6,6-2-2,8-8,8,8Zm-36,36-10-10-10,10-2-2,12-12,12,12ZM60.93,84.33l-4,4-4-4,4-4ZM44.93,103l12-12,12,12-2,2-10-10-10,10Zm52,36,8,8-2,2-6-6-6,6-2-2Zm-26.67,0,8,8-2,2-6-6-6,6-2-2Zm50-60.62-2-2h4Zm-4,4-6-6h4l4,4Zm-9.33,62.62-10-10-10,10-2-2,12-12,12,12Zm-4.67-64.61,4-4h4l-6,6Zm-8.67,51.29-10-10-10,10-2-2,12-12,12,12Zm-4-22.65-6-6-6,6-2-2,8-8,8,8ZM74.26,97.65l-4,4-4-4,4-4ZM71.59,103l12-12,12,12-2,2-10-10-10,10ZM58.26,116.3l12-12,12,12-2,2-10-10-10,10ZM83.59,107l4,4-4,4-4-4Zm0,18.65,8,8-2,2-6-6-6,6-2-2Zm4-41.3-4,4-4-4,4-4Zm-23.33,38-2-2,8-8,8,8-2,2-6-6Zm55.33,2,4-4v8Zm-18.67,26.64-4,4-4-4,4-4Zm-17.33-6.66,12,12-.07.07H91.66l-8.07-8.06-8.07,8.06H71.66l-.07-.07Zm26.67,8,4.07,4.06h-4l-.07-.07-.07.07h-4Zm-26.67,0,4.07,4.06h-4l-.07-.07-.07.07h-4Zm-9.33-1.33-4,4-4-4,4-4Zm40-66.61-4,4-4-4,4-4ZM47.59,150.94l-4,4v-8Zm9.33-6.66,12,12-.07.07H65l-8.07-8.06-8.07,8.06H45l-.07-.07Zm53.33,0,12,12-.07.07h-3.87l-8.07-8.06-8.07,8.06H98.33l-.07-.07Zm5.33,2.66,8-8v4l-6,6Zm-4-30.64,12-12v4l-10,10Zm8-18.65,4-4v8Zm-4-4,8-8v4l-6,6Zm4,57.29,4-4v8Zm4-73.27v4l-10,10-2-2Zm-8,42.63,8-8v4l-6,6Zm-66,28.64-6-6v-4l8,8Zm62-6,12-12v4l-10,10Zm-54.67,9.33L61,156.34H57l-.07-.07-.07.07h-4ZM73.59,78.33l-2-2h4Zm2,2,4-4h4l-6,6ZM58.26,89.66l12-12,12,12-2,2-10-10-10,10Zm8.67-11.32-2-2h4Zm18,11.32,12-12,12,12-2,2-10-10-10,10ZM53.59,144.95l-10-10v-4l12,12Zm9.33-62.62-6-6h4l4,4Zm30.67-4-2-2h4Zm-4,4-6-6h4l4,4Zm10.67-4-2-2h4Zm-50.67,44-6-6v-4l8,8Zm4-4-10-10v-4l12,12Zm-6-20.65-4,4v-8Zm1.33-17.32,4-4h4l-6,6Zm-1.33,44-4,4v-8Zm-.67-46-2-2h4Zm2.67,17.32-6-6v-4l8,8Zm4-4-10-10v-4l12,12Z"/><rect class="cls-2" x="-36.41" y="76.34" width="80" height="80"/><path class="cls-3" d="M-35.07,129.63l12-12,12,12-2,2-10-10-10,10Zm25.33-44,8,8-2,2-6-6-6,6-2-2ZM-29.07,109l-2-2,8-8,8,8-2,2-6-6Zm6,6-4-4,4-4,4,4Zm13.33,13.32-4-4,4-4,4,4Zm32.67-6-6-6-6,6-2-2,8-8,8,8Zm-2-24.65-4,4-4-4,4-4Zm-4,30.64-4-4,4-4,4,4Zm10-10-10-10-10,10-2-2,12-12,12,12Zm-4-22.65-6-6-6,6-2-2,8-8,8,8ZM34.26,111l-4,4-4-4,4-4Zm6,20.65-10-10-10,10-2-2,12-12,12,12Zm-4,4-6-6-6,6-2-2,8-8,8,8Zm4-30.64-10-10-10,10-2-2,12-12,12,12Zm-63.33,36.64-4-4,4-4,4,4Zm53.33,0-4-4,4-4,4,4Zm-59.33-6-2-2,8-8,8,8-2,2-6-6Zm32.67,6-4-4,4-4,4,4ZM36.26,109l-6-6-6,6-2-2,8-8,8,8Zm-36,36-10-10-10,10-2-2,12-12,12,12ZM-19.07,84.33l-4,4-4-4,4-4Zm-16,18.65,12-12,12,12-2,2-10-10-10,10Zm52,36,8,8-2,2-6-6-6,6-2-2Zm-26.67,0,8,8-2,2-6-6-6,6-2-2Zm50-60.62-2-2h4Zm-4,4-6-6h4l4,4Zm-9.33,62.62-10-10-10,10-2-2,12-12,12,12ZM22.26,80.33l4-4h4l-6,6Zm-8.67,51.29-10-10-10,10-2-2,12-12,12,12ZM9.59,109l-6-6-6,6-2-2,8-8,8,8ZM-5.74,97.65l-4,4-4-4,4-4ZM-8.41,103l12-12,12,12-2,2-10-10-10,10ZM-21.74,116.3l12-12,12,12-2,2-10-10-10,10ZM3.59,107l4,4-4,4-4-4Zm0,18.65,8,8-2,2-6-6-6,6-2-2Zm4-41.3-4,4-4-4,4-4Zm-23.33,38-2-2,8-8,8,8-2,2-6-6Zm55.33,2,4-4v8ZM20.93,150.94l-4,4-4-4,4-4ZM3.59,144.28l12,12-.07.07H11.66l-8.07-8.06-8.07,8.06H-8.34l-.07-.07Zm26.67,8,4.07,4.06h-4l-.07-.07-.07.07h-4Zm-26.67,0,4.07,4.06h-4l-.07-.07-.07.07h-4Zm-9.33-1.33-4,4-4-4,4-4Zm40-66.61-4,4-4-4,4-4Zm-66.67,66.61-4,4v-8Zm9.33-6.66,12,12-.07.07H-15l-8.07-8.06-8.07,8.06H-35l-.07-.07Zm53.33,0,12,12-.07.07H38.33l-8.07-8.06-8.07,8.06H18.33l-.07-.07Zm5.33,2.66,8-8v4l-6,6Zm-4-30.64,12-12v4l-10,10Zm8-18.65,4-4v8Zm-4-4,8-8v4l-6,6Zm4,57.29,4-4v8Zm4-73.27v4l-10,10-2-2Zm-8,42.63,8-8v4l-6,6Zm-66,28.64-6-6v-4l8,8Zm62-6,12-12v4l-10,10Zm-54.67,9.33,4.07,4.06h-4l-.07-.07-.07.07h-4ZM-6.41,78.33l-2-2h4Zm2,2,4-4h4l-6,6Zm-17.33,9.33,12-12,12,12-2,2-10-10-10,10Zm8.67-11.32-2-2h4Zm18,11.32,12-12,12,12-2,2-10-10-10,10Zm-31.33,55.29-10-10v-4l12,12Zm9.33-62.62-6-6h4l4,4Zm30.67-4-2-2h4Zm-4,4-6-6h4l4,4Zm10.67-4-2-2h4Zm-50.67,44-6-6v-4l8,8Zm4-4-10-10v-4l12,12Zm-6-20.65-4,4v-8Zm1.33-17.32,4-4h4l-6,6Zm-1.33,44-4,4v-8Zm-.67-46-2-2h4Zm2.67,17.32-6-6v-4l8,8Zm4-4-10-10v-4l12,12Z"/><rect class="cls-2" x="43.59" y="-3.66" width="80" height="80"/><path class="cls-3" d="M44.93,49.63l12-12,12,12-2,2-10-10-10,10Zm25.33-44,8,8-2,2-6-6-6,6-2-2ZM50.93,29l-2-2,8-8,8,8-2,2-6-6Zm6,6-4-4,4-4,4,4ZM70.26,48.29l-4-4,4-4,4,4Zm32.67-6-6-6-6,6-2-2,8-8,8,8Zm-2-24.65-4,4-4-4,4-4Zm-4,30.64-4-4,4-4,4,4Zm10-10-10-10-10,10-2-2,12-12,12,12Zm-4-22.65-6-6-6,6-2-2,8-8,8,8ZM114.26,31l-4,4-4-4,4-4Zm6,20.65-10-10-10,10-2-2,12-12,12,12Zm-4,4-6-6-6,6-2-2,8-8,8,8Zm4-30.64-10-10-10,10-2-2,12-12,12,12ZM56.93,61.62l-4-4,4-4,4,4Zm53.33,0-4-4,4-4,4,4Zm-59.33-6-2-2,8-8,8,8-2,2-6-6Zm32.67,6-4-4,4-4,4,4ZM116.26,29l-6-6-6,6-2-2,8-8,8,8Zm-36,36-10-10-10,10-2-2,12-12,12,12ZM60.93,4.33l-4,4-4-4,4-4ZM44.93,23l12-12,12,12-2,2-10-10-10,10Zm52,36,8,8-2,2-6-6-6,6-2-2ZM70.26,59l8,8-2,2-6-6-6,6-2-2Zm50-60.62-2-2h4Zm-4,4-6-6h4l4,4Zm-9.33,62.62-10-10-10,10-2-2,12-12,12,12ZM102.26.33l4-4h4l-6,6ZM93.59,51.62l-10-10-10,10-2-2,12-12,12,12ZM89.59,29l-6-6-6,6-2-2,8-8,8,8ZM74.26,17.65l-4,4-4-4,4-4ZM71.59,23l12-12,12,12-2,2-10-10-10,10ZM58.26,36.3l12-12,12,12-2,2-10-10-10,10ZM83.59,27l4,4-4,4-4-4Zm0,18.65,8,8-2,2-6-6-6,6-2-2Zm4-41.3-4,4-4-4,4-4Zm-23.33,38-2-2,8-8,8,8-2,2-6-6Zm55.33,2,4-4v8ZM100.93,70.94l-4,4-4-4,4-4ZM83.59,64.28l12,12-.07.07H91.66l-8.07-8.06-8.07,8.06H71.66l-.07-.07Zm26.67,8,4.07,4.06h-4l-.07-.07-.07.07h-4Zm-26.67,0,4.07,4.06h-4l-.07-.07-.07.07h-4Zm-9.33-1.33-4,4-4-4,4-4Zm40-66.61-4,4-4-4,4-4ZM47.59,70.94l-4,4v-8Zm9.33-6.66,12,12-.07.07H65l-8.07-8.06-8.07,8.06H45l-.07-.07Zm53.33,0,12,12-.07.07h-3.87l-8.07-8.06-8.07,8.06H98.33l-.07-.07Zm5.33,2.66,8-8v4l-6,6Zm-4-30.64,12-12v4l-10,10Zm8-18.65,4-4v8Zm-4-4,8-8v4l-6,6Zm4,57.29,4-4v8Zm4-73.27v4l-10,10-2-2Zm-8,42.63,8-8v4l-6,6Zm-66,28.64-6-6V59l8,8Zm62-6,12-12v4l-10,10ZM56.93,72.27,61,76.34H57l-.07-.07-.07.07h-4ZM73.59-1.67l-2-2h4Zm2,2,4-4h4l-6,6ZM58.26,9.66l12-12,12,12-2,2-10-10-10,10ZM66.93-1.67l-2-2h4Zm18,11.32,12-12,12,12-2,2-10-10-10,10ZM53.59,64.95l-10-10V51l12,12ZM62.93,2.33l-6-6h4l4,4Zm30.67-4-2-2h4Zm-4,4-6-6h4l4,4Zm10.67-4-2-2h4Zm-50.67,44-6-6v-4l8,8Zm4-4-10-10v-4l12,12Zm-6-20.65-4,4v-8ZM48.93.33l4-4h4l-6,6Zm-1.33,44-4,4v-8Zm-.67-46-2-2h4Zm2.67,17.32-6-6v-4l8,8Zm4-4-10-10v-4l12,12Z"/><rect class="cls-2" x="-36.41" y="-3.66" width="80" height="80"/><path class="cls-3" d="M-35.07,49.63l12-12,12,12-2,2-10-10-10,10Zm25.33-44,8,8-2,2-6-6-6,6-2-2ZM-29.07,29l-2-2,8-8,8,8-2,2-6-6Zm6,6-4-4,4-4,4,4ZM-9.74,48.29l-4-4,4-4,4,4Zm32.67-6-6-6-6,6-2-2,8-8,8,8Zm-2-24.65-4,4-4-4,4-4Zm-4,30.64-4-4,4-4,4,4Zm10-10-10-10-10,10-2-2,12-12,12,12Zm-4-22.65-6-6-6,6-2-2,8-8,8,8ZM34.26,31l-4,4-4-4,4-4Zm6,20.65-10-10-10,10-2-2,12-12,12,12Zm-4,4-6-6-6,6-2-2,8-8,8,8Zm4-30.64-10-10-10,10-2-2,12-12,12,12ZM-23.07,61.62l-4-4,4-4,4,4Zm53.33,0-4-4,4-4,4,4Zm-59.33-6-2-2,8-8,8,8-2,2-6-6Zm32.67,6-4-4,4-4,4,4ZM36.26,29l-6-6-6,6-2-2,8-8,8,8Zm-36,36-10-10-10,10-2-2,12-12,12,12ZM-19.07,4.33l-4,4-4-4,4-4ZM-35.07,23l12-12,12,12-2,2-10-10-10,10Zm52,36,8,8-2,2-6-6-6,6-2-2ZM-9.74,59l8,8-2,2-6-6-6,6-2-2Zm50-60.62-2-2h4Zm-4,4-6-6h4l4,4ZM26.93,64.95l-10-10-10,10-2-2,12-12,12,12ZM22.26.33l4-4h4l-6,6ZM13.59,51.62l-10-10-10,10-2-2,12-12,12,12ZM9.59,29l-6-6-6,6-2-2,8-8,8,8ZM-5.74,17.65l-4,4-4-4,4-4ZM-8.41,23l12-12,12,12-2,2-10-10-10,10ZM-21.74,36.3l12-12,12,12-2,2-10-10-10,10ZM3.59,27l4,4-4,4-4-4Zm0,18.65,8,8-2,2-6-6-6,6-2-2Zm4-41.3-4,4-4-4,4-4Zm-23.33,38-2-2,8-8,8,8-2,2-6-6Zm55.33,2,4-4v8ZM20.93,70.94l-4,4-4-4,4-4ZM3.59,64.28l12,12-.07.07H11.66L3.59,68.28l-8.07,8.06H-8.34l-.07-.07Zm26.67,8,4.07,4.06h-4l-.07-.07-.07.07h-4Zm-26.67,0,4.07,4.06h-4l-.07-.07-.07.07h-4Zm-9.33-1.33-4,4-4-4,4-4Zm40-66.61-4,4-4-4,4-4ZM-32.41,70.94l-4,4v-8Zm9.33-6.66,12,12-.07.07H-15l-8.07-8.06-8.07,8.06H-35l-.07-.07Zm53.33,0,12,12-.07.07H38.33l-8.07-8.06L22.2,76.34H18.33l-.07-.07Zm5.33,2.66,8-8v4l-6,6Zm-4-30.64,12-12v4l-10,10Zm8-18.65,4-4v8Zm-4-4,8-8v4l-6,6Zm4,57.29,4-4v8Zm4-73.27v4l-10,10-2-2Zm-8,42.63,8-8v4l-6,6Zm-66,28.64-6-6V59l8,8Zm62-6,12-12v4l-10,10Zm-54.67,9.33L-19,76.34h-4l-.07-.07-.07.07h-4ZM-6.41-1.67l-2-2h4Zm2,2,4-4h4l-6,6ZM-21.74,9.66l12-12,12,12-2,2-10-10-10,10Zm8.67-11.32-2-2h4Zm18,11.32,12-12,12,12-2,2-10-10-10,10ZM-26.41,64.95l-10-10V51l12,12Zm9.33-62.62-6-6h4l4,4Zm30.67-4-2-2h4Zm-4,4-6-6h4l4,4Zm10.67-4-2-2h4Zm-50.67,44-6-6v-4l8,8Zm4-4-10-10v-4l12,12Zm-6-20.65-4,4v-8ZM-31.07.33l4-4h4l-6,6Zm-1.33,44-4,4v-8Zm-.67-46-2-2h4Zm2.67,17.32-6-6v-4l8,8Zm4-4-10-10v-4l12,12Z"/></pattern></defs><title>newarrivalsen_1</title><g id="Capa_2" data-name="Capa 2"><g id="Layer_2" data-name="Layer 2"><rect class="cls-4" x="0.5" y="0.5" width="271" height="474"/><path class="cls-5" d="M259.5,11.79V463.21H12.5V11.79h247m2-2H10.5V465.21h251V9.79Z"/><circle class="cls-6" cx="136" cy="383.5" r="15"/><path class="cls-5" d="M139.38,383.54a.39.39,0,0,1-.12.28l-5.72,5.72a.39.39,0,0,1-.56,0l-.61-.61a.39.39,0,0,1,0-.57l4.83-4.82-4.83-4.83a.39.39,0,0,1,0-.56l.61-.61a.39.39,0,0,1,.56,0l5.72,5.72A.39.39,0,0,1,139.38,383.54Z"/><path class="cls-7" d="M123.1,216.65h-4.39l-8.55-14v14h-4.39V195.32h4.39l8.57,14.06V195.32h4.38Z"/><path class="cls-7" d="M139.77,207.38h-8.44v5.74h9.9v3.53h-14.3V195.32h14.27v3.56h-9.87V204h8.44Z"/><path class="cls-7" d="M160.43,210.5l2.87-15.18h4.38l-4.73,21.33h-4.42L155,202.38l-3.47,14.27h-4.42l-4.73-21.33h4.38l2.89,15.15,3.52-15.15h3.72Z"/><path class="cls-7" d="M79.64,248.26H71.94l-1.46,4.39H65.8l7.94-21.33h4.07l8,21.33H81.12Zm-6.52-3.56h5.33l-2.68-8Z"/><path class="cls-7" d="M95.68,244.84h-3.5v7.81H87.79V231.32h7.92a9,9,0,0,1,5.83,1.68,5.81,5.81,0,0,1,2.05,4.76,6.57,6.57,0,0,1-.94,3.64,6.45,6.45,0,0,1-2.86,2.32l4.61,8.72v.21H99.68Zm-3.5-3.56h3.54a3.63,3.63,0,0,0,2.56-.84,3,3,0,0,0,.91-2.32,3.23,3.23,0,0,0-.86-2.37,3.56,3.56,0,0,0-2.63-.86H92.18Z"/><path class="cls-7" d="M114.83,244.84h-3.5v7.81h-4.39V231.32h7.92a9,9,0,0,1,5.83,1.68,5.81,5.81,0,0,1,2.05,4.76,6.57,6.57,0,0,1-.94,3.64,6.45,6.45,0,0,1-2.86,2.32l4.61,8.72v.21h-4.72Zm-3.5-3.56h3.54a3.63,3.63,0,0,0,2.56-.84,3,3,0,0,0,.91-2.32,3.23,3.23,0,0,0-.86-2.37,3.56,3.56,0,0,0-2.63-.86h-3.53Z"/><path class="cls-7" d="M130.75,252.65h-4.39V231.32h4.39Z"/><path class="cls-7" d="M142.7,247.36l4.83-16h4.89L145,252.65h-4.58L133,231.32h4.88Z"/><path class="cls-7" d="M165.38,248.26h-7.71l-1.46,4.39h-4.67l7.94-21.33h4.07l8,21.33h-4.67Zm-6.52-3.56h5.33l-2.68-8Z"/><path class="cls-7" d="M177.92,249.12h9.33v3.53H173.52V231.32h4.39Z"/><path class="cls-7" d="M200.83,247.06a2.26,2.26,0,0,0-.88-1.91,11.59,11.59,0,0,0-3.16-1.41,22.34,22.34,0,0,1-3.62-1.46q-3.63-2-3.63-5.29a5.14,5.14,0,0,1,1-3.08,6.35,6.35,0,0,1,2.8-2.12,10.54,10.54,0,0,1,4.09-.76,9.59,9.59,0,0,1,4.07.83,6.49,6.49,0,0,1,2.78,2.34,6.12,6.12,0,0,1,1,3.43h-4.39a2.87,2.87,0,0,0-.92-2.28,3.79,3.79,0,0,0-2.59-.81,4.06,4.06,0,0,0-2.5.68,2.15,2.15,0,0,0-.89,1.79,2.06,2.06,0,0,0,1,1.74,11.84,11.84,0,0,0,3.08,1.32,13.32,13.32,0,0,1,5.46,2.8,5.57,5.57,0,0,1,1.71,4.16,5.13,5.13,0,0,1-2.09,4.34,9.17,9.17,0,0,1-5.64,1.57A10.91,10.91,0,0,1,193,252a7.1,7.1,0,0,1-3.08-2.47,6.32,6.32,0,0,1-1.06-3.63h4.41q0,3.53,4.22,3.53a4.1,4.1,0,0,0,2.45-.64A2.07,2.07,0,0,0,200.83,247.06Z"/><path class="cls-7" d="M117.23,179.25a7.06,7.06,0,0,1-2.81-1.36,2.6,2.6,0,0,1-.88-2,2.75,2.75,0,0,1,1.07-2.22,4.27,4.27,0,0,1,2.79-.88,4.67,4.67,0,0,1,2.09.45,3.43,3.43,0,0,1,1.42,1.25,3.2,3.2,0,0,1,.5,1.74h-1.51a2.08,2.08,0,0,0-.66-1.63,2.67,2.67,0,0,0-1.85-.59,2.73,2.73,0,0,0-1.73.49,1.63,1.63,0,0,0-.62,1.36,1.47,1.47,0,0,0,.59,1.18,5.79,5.79,0,0,0,2,.88,9.34,9.34,0,0,1,2.22.88,3.37,3.37,0,0,1,1.19,1.12,2.86,2.86,0,0,1,.39,1.51,2.66,2.66,0,0,1-1.08,2.21,4.6,4.6,0,0,1-2.88.83,5.34,5.34,0,0,1-2.19-.45,3.69,3.69,0,0,1-1.57-1.23,3,3,0,0,1-.55-1.77h1.51a2,2,0,0,0,.76,1.63,3.21,3.21,0,0,0,2,.6,3,3,0,0,0,1.82-.48,1.57,1.57,0,0,0,.63-1.32,1.54,1.54,0,0,0-.59-1.29A6.75,6.75,0,0,0,117.23,179.25Z"/><path class="cls-7" d="M126.66,184.47a3.69,3.69,0,0,1-2.8-1.13,4.19,4.19,0,0,1-1.08-3v-.27a5.07,5.07,0,0,1,.48-2.25,3.75,3.75,0,0,1,1.34-1.55,3.38,3.38,0,0,1,1.87-.56,3.17,3.17,0,0,1,2.56,1.09,4.7,4.7,0,0,1,.91,3.11v.6h-5.73a3,3,0,0,0,.73,2,2.3,2.3,0,0,0,1.78.77A2.52,2.52,0,0,0,128,183a3.25,3.25,0,0,0,.93-.83l.88.69A3.55,3.55,0,0,1,126.66,184.47Zm-.18-7.58a1.93,1.93,0,0,0-1.47.64,3.1,3.1,0,0,0-.73,1.79h4.23v-.11a2.75,2.75,0,0,0-.59-1.71A1.82,1.82,0,0,0,126.48,176.9Z"/><path class="cls-7" d="M135.13,184.47a3.69,3.69,0,0,1-2.8-1.13,4.19,4.19,0,0,1-1.08-3v-.27a5.07,5.07,0,0,1,.48-2.25,3.75,3.75,0,0,1,1.34-1.55,3.38,3.38,0,0,1,1.87-.56,3.17,3.17,0,0,1,2.56,1.09,4.7,4.7,0,0,1,.91,3.11v.6H132.7a3,3,0,0,0,.73,2,2.3,2.3,0,0,0,1.78.77,2.52,2.52,0,0,0,1.3-.31,3.25,3.25,0,0,0,.93-.83l.88.69A3.55,3.55,0,0,1,135.13,184.47ZM135,176.9a1.93,1.93,0,0,0-1.47.64,3.1,3.1,0,0,0-.73,1.79H137v-.11a2.75,2.75,0,0,0-.59-1.71A1.82,1.82,0,0,0,135,176.9Z"/><path class="cls-7" d="M149.28,184.32a3,3,0,0,1-.2-.89,3.22,3.22,0,0,1-2.41,1,3,3,0,0,1-2.05-.71,2.29,2.29,0,0,1-.8-1.79,2.39,2.39,0,0,1,1-2.05,4.73,4.73,0,0,1,2.82-.73h1.41v-.66a1.63,1.63,0,0,0-.45-1.21,1.82,1.82,0,0,0-1.34-.45,2.1,2.1,0,0,0-1.3.39,1.15,1.15,0,0,0-.52.95H144a2,2,0,0,1,.45-1.22,3.07,3.07,0,0,1,1.22-.93,4.09,4.09,0,0,1,1.69-.34,3.34,3.34,0,0,1,2.29.73,2.64,2.64,0,0,1,.86,2v3.89a4.75,4.75,0,0,0,.3,1.85v.13Zm-2.4-1.1a2.54,2.54,0,0,0,1.29-.35,2.13,2.13,0,0,0,.88-.91v-1.73h-1.13q-2.66,0-2.66,1.55a1.32,1.32,0,0,0,.45,1.06A1.74,1.74,0,0,0,146.88,183.22Z"/><path class="cls-7" d="M154.34,184.32h-1.45v-12h1.45Z"/><path class="cls-7" d="M158.22,184.32h-1.45v-12h1.45Z"/><path class="cls-8" d="M163.51,114.77a4.58,4.58,0,1,1,0,9.17V137.7a4.65,4.65,0,0,1-4.58,4.58Q144,129.85,129.84,128.67a6.23,6.23,0,0,0-3.26,2.36,5.76,5.76,0,0,0-1.11,3.6,4.86,4.86,0,0,0,1.43,3.31,5.5,5.5,0,0,0-.82,2.35,4.85,4.85,0,0,0,.21,2.08,6.65,6.65,0,0,0,1.2,2,15.48,15.48,0,0,0,1.72,1.79q.84.74,2.2,1.81a6.15,6.15,0,0,1-4,3,13.4,13.4,0,0,1-6,.41,8.91,8.91,0,0,1-4.73-2q-.25-.82-1.06-3.13t-1.15-3.38q-.34-1.08-.82-3.19a19.74,19.74,0,0,1-.54-3.62,28.74,28.74,0,0,1,.13-3.53,18.58,18.58,0,0,1,.79-4h-4.37a5.75,5.75,0,0,1-5.73-5.73v-6.88a5.75,5.75,0,0,1,5.73-5.73h17.19q15.58,0,32.1-13.76a4.65,4.65,0,0,1,4.58,4.58Zm-4.58,21.64V102.23q-14.11,10.82-27.51,12.29v9.67Q144.92,125.69,158.93,136.41Z"/></g></g></svg>