<?xml version="1.0" encoding="utf-8"?>
<!-- Generator: Adobe Illustrator 19.1.0, SVG Export Plug-In . SVG Version: 6.00 Build 0)  -->
<svg version="1.1" id="Capa_1" xmlns="http://www.w3.org/2000/svg" xmlns:xlink="http://www.w3.org/1999/xlink" x="0px" y="0px"
	 viewBox="-343 43 272 475" style="enable-background:new -343 43 272 475;" xml:space="preserve">
<style type="text/css">
	.st0{fill:none;}
	.st1{fill:#FAFDFA;}
	.st2{fill:#F2F5F2;}
	.st3{fill:url(#SVGID_1_);stroke:#CBCBCB;stroke-miterlimit:10;}
	.st4{fill:#CBCBCB;}
	.st5{fill:none;stroke:#CBCBCB;stroke-width:2;stroke-miterlimit:10;}
	.st6{enable-background:new    ;}
	.st7{fill:#666666;}
	.st8{fill:#6DBE46;}
</style>
<pattern  x="-343" y="518" width="80" height="80" patternUnits="userSpaceOnUse" id="Nueva_muestra_de_motivo_4" viewBox="36.4 -83.7 80 80" style="overflow:visible;">
	<g>
		<polygon class="st0" points="36.4,-3.7 116.4,-3.7 116.4,-83.7 36.4,-83.7 		"/>
		<path class="st0" d="M36.4-3.7h80v-80h-80V-3.7z"/>
		<path class="st1" d="M80-80h80v-80H80V-80z"/>
		<path class="st2" d="M81.3-133.3l12,12l12-12l-2-2l-10,10l-10-10L81.3-133.3z M106.7-89.3l8-8l-2-2l-6,6l-6-6l-2,2L106.7-89.3z
			 M87.3-112.7l-2,2l8,8l8-8l-2-2l-6,6L87.3-112.7z M93.3-118.7l-4,4l4,4l4-4L93.3-118.7z M106.7-132l-4,4l4,4l4-4L106.7-132z
			 M139.3-126l-6,6l-6-6l-2,2l8,8l8-8L139.3-126z M137.3-101.3l-4-4l-4,4l4,4L137.3-101.3z M133.3-132l-4,4l4,4l4-4L133.3-132z
			 M143.3-122l-10,10l-10-10l-2,2l12,12l12-12L143.3-122z M139.3-99.3l-6,6l-6-6l-2,2l8,8l8-8L139.3-99.3z M150.7-114.7l-4-4l-4,4
			l4,4L150.7-114.7z M156.7-135.3l-10,10l-10-10l-2,2l12,12l12-12L156.7-135.3z M152.7-139.3l-6,6l-6-6l-2,2l8,8l8-8L152.7-139.3z
			 M156.7-108.7l-10,10l-10-10l-2,2l12,12l12-12L156.7-108.7z M93.3-145.3l-4,4l4,4l4-4L93.3-145.3z M146.7-145.3l-4,4l4,4l4-4
			L146.7-145.3z M87.3-139.3l-2,2l8,8l8-8l-2-2l-6,6L87.3-139.3z M120-145.3l-4,4l4,4l4-4L120-145.3z M152.7-112.7l-6,6l-6-6l-2,2
			l8,8l8-8L152.7-112.7z M116.7-148.7l-10,10l-10-10l-2,2l12,12l12-12L116.7-148.7z M97.3-88l-4-4l-4,4l4,4L97.3-88z M81.3-106.7
			l12,12l12-12l-2-2l-10,10l-10-10L81.3-106.7z M133.3-142.7l8-8l-2-2l-6,6l-6-6l-2,2L133.3-142.7z M106.7-142.7l8-8l-2-2l-6,6l-6-6
			l-2,2L106.7-142.7z M156.7-82l-2,2h4L156.7-82z M152.7-86l-6,6h4l4-4L152.7-86z M143.3-148.7l-10,10l-10-10l-2,2l12,12l12-12
			L143.3-148.7z M138.7-84.1l4,4h4l-6-6L138.7-84.1z M130-135.3l-10,10l-10-10l-2,2l12,12l12-12L130-135.3z M126-112.7l-6,6l-6-6
			l-2,2l8,8l8-8L126-112.7z M110.7-101.3l-4-4l-4,4l4,4L110.7-101.3z M108-106.7l12,12l12-12l-2-2l-10,10l-10-10L108-106.7z
			 M94.7-120l12,12l12-12l-2-2l-10,10l-10-10L94.7-120z M120-110.7l4-4l-4-4l-4,4L120-110.7z M120-129.3l8-8l-2-2l-6,6l-6-6l-2,2
			L120-129.3z M124-88l-4-4l-4,4l4,4L124-88z M100.7-126l-2,2l8,8l8-8l-2-2l-6,6L100.7-126z M156-128l4,4v-8L156-128z M137.3-154.7
			l-4-4l-4,4l4,4L137.3-154.7z M120-148l12-12l-0.1-0.1h-3.9L120-152l-8.1-8.1h-3.9L108-160L120-148z M146.7-156l4.1-4.1h-4
			l-0.1,0.1l-0.1-0.1h-4L146.7-156z M120-156l4.1-4.1h-4L120-160l-0.1-0.1h-4L120-156z M110.7-154.7l-4-4l-4,4l4,4L110.7-154.7z
			 M150.7-88.1l-4-4l-4,4l4,4L150.7-88.1z M84-154.6l-4-4v8L84-154.6z M93.3-147.9l12-12l-0.1-0.1h-3.9l-8.1,8.1l-8.1-8.1h-3.9
			l-0.1,0.1L93.3-147.9z M146.7-147.9l12-12l-0.1-0.1h-3.9l-8.1,8.1l-8.1-8.1h-3.8l-0.1,0.1L146.7-147.9z M152-150.6l8,8v-4l-6-6
			L152-150.6z M148-120l12,12v-4l-10-10L148-120z M156-101.3l4,4v-8L156-101.3z M152-97.3l8,8v-4l-6-6L152-97.3z M156-154.6l4,4v-8
			L156-154.6z M160-81.3v-4l-10-10l-2,2L160-81.3z M152-124l8,8v-4l-6-6L152-124z M86-152.6l-6,6v4l8-8L86-152.6z M148-146.6l12,12
			v-4l-10-10L148-146.6z M93.3-155.9l4.1-4.1h-4l-0.1,0.1l-0.1-0.1h-4L93.3-155.9z M110-82l-2,2h4L110-82z M112-84l4,4h4l-6-6
			L112-84z M94.7-93.3l12,12l12-12l-2-2l-10,10l-10-10L94.7-93.3z M103.3-82l-2,2h4L103.3-82z M121.3-93.3l12,12l12-12l-2-2l-10,10
			l-10-10L121.3-93.3z M90-148.6l-10,10v4l12-12L90-148.6z M99.3-86l-6,6h4l4-4L99.3-86z M130-82l-2,2h4L130-82z M126-86l-6,6h4l4-4
			L126-86z M136.7-82l-2,2h4L136.7-82z M86-126l-6,6v4l8-8L86-126z M90-122l-10,10v4l12-12L90-122z M84-101.3l-4-4v8L84-101.3z
			 M85.3-84l4,4h4l-6-6L85.3-84z M84-128l-4-4v8L84-128z M83.3-82l-2,2h4L83.3-82z M86-99.3l-6,6v4l8-8L86-99.3z M90-95.3l-10,10v4
			l12-12L90-95.3z"/>
		<path class="st1" d="M0-80h80v-80H0V-80z"/>
		<path class="st2" d="M1.3-133.3l12,12l12-12l-2-2l-10,10l-10-10L1.3-133.3z M26.7-89.3l8-8l-2-2l-6,6l-6-6l-2,2L26.7-89.3z
			 M7.3-112.7l-2,2l8,8l8-8l-2-2l-6,6L7.3-112.7z M13.3-118.7l-4,4l4,4l4-4L13.3-118.7z M26.7-132l-4,4l4,4l4-4L26.7-132z M59.3-126
			l-6,6l-6-6l-2,2l8,8l8-8L59.3-126z M57.3-101.3l-4-4l-4,4l4,4L57.3-101.3z M53.3-132l-4,4l4,4l4-4L53.3-132z M63.3-122l-10,10
			l-10-10l-2,2l12,12l12-12L63.3-122z M59.3-99.3l-6,6l-6-6l-2,2l8,8l8-8L59.3-99.3z M70.7-114.7l-4-4l-4,4l4,4L70.7-114.7z
			 M76.7-135.3l-10,10l-10-10l-2,2l12,12l12-12L76.7-135.3z M72.7-139.3l-6,6l-6-6l-2,2l8,8l8-8L72.7-139.3z M76.7-108.7l-10,10
			l-10-10l-2,2l12,12l12-12L76.7-108.7z M13.3-145.3l-4,4l4,4l4-4L13.3-145.3z M66.7-145.3l-4,4l4,4l4-4L66.7-145.3z M7.3-139.3
			l-2,2l8,8l8-8l-2-2l-6,6L7.3-139.3z M40-145.3l-4,4l4,4l4-4L40-145.3z M72.7-112.7l-6,6l-6-6l-2,2l8,8l8-8L72.7-112.7z
			 M36.7-148.7l-10,10l-10-10l-2,2l12,12l12-12L36.7-148.7z M17.3-88l-4-4l-4,4l4,4L17.3-88z M1.3-106.6l12,12l12-12l-2-2l-10,10
			l-10-10L1.3-106.6z M53.3-142.6l8-8l-2-2l-6,6l-6-6l-2,2L53.3-142.6z M26.7-142.6l8-8l-2-2l-6,6l-6-6l-2,2L26.7-142.6z M76.7-82
			l-2,2h4L76.7-82z M72.7-86l-6,6h4l4-4L72.7-86z M63.3-148.6l-10,10l-10-10l-2,2l12,12l12-12L63.3-148.6z M58.7-84l4,4h4l-6-6
			L58.7-84z M50-135.3l-10,10l-10-10l-2,2l12,12l12-12L50-135.3z M46-112.7l-6,6l-6-6l-2,2l8,8l8-8L46-112.7z M30.7-101.3l-4-4l-4,4
			l4,4L30.7-101.3z M28-106.7l12,12l12-12l-2-2l-10,10l-10-10L28-106.7z M14.7-120l12,12l12-12l-2-2l-10,10l-10-10L14.7-120z
			 M40-110.7l4-4l-4-4l-4,4L40-110.7z M40-129.3l8-8l-2-2l-6,6l-6-6l-2,2L40-129.3z M44-88l-4-4l-4,4l4,4L44-88z M20.7-126l-2,2l8,8
			l8-8l-2-2l-6,6L20.7-126z M76-128l4,4v-8L76-128z M57.3-154.6l-4-4l-4,4l4,4L57.3-154.6z M40-147.9l12-12l-0.1-0.1h-3.9L40-152
			l-8.1-8.1h-3.9l-0.1,0.1L40-147.9z M66.7-155.9l4.1-4.1h-4l-0.1,0.1l-0.1-0.1h-4L66.7-155.9z M40-155.9l4.1-4.1h-4l-0.1,0.1
			l-0.1-0.1h-4L40-155.9z M30.7-154.6l-4-4l-4,4l4,4L30.7-154.6z M70.7-88l-4-4l-4,4l4,4L70.7-88z M4-154.6l-4-4v8L4-154.6z
			 M13.3-148l12-12l-0.1-0.1h-3.9l-8.1,8.1L5.3-160H1.4L1.3-160L13.3-148z M66.7-148l12-12l-0.1-0.1h-3.8l-8.1,8.1l-8.1-8.1h-3.9
			l-0.1,0.1L66.7-148z M72-150.6l8,8v-4l-6-6L72-150.6z M68-120l12,12v-4l-10-10L68-120z M76-101.3l4,4v-8L76-101.3z M72-97.3l8,8
			v-4l-6-6L72-97.3z M76-154.6l4,4v-8L76-154.6z M80-81.3v-4l-10-10l-2,2L80-81.3z M72-124l8,8v-4l-6-6L72-124z M6-152.6l-6,6v4l8-8
			L6-152.6z M68-146.6l12,12v-4l-10-10L68-146.6z M13.3-155.9l4.1-4.1h-4l-0.1,0.1l-0.1-0.1h-4L13.3-155.9z M30-82l-2,2h4L30-82z
			 M32-84l4,4h4l-6-6L32-84z M14.7-93.3l12,12l12-12l-2-2l-10,10l-10-10L14.7-93.3z M23.3-82l-2,2h4L23.3-82z M41.3-93.3l12,12
			l12-12l-2-2l-10,10l-10-10L41.3-93.3z M10-148.6l-10,10v4l12-12L10-148.6z M19.3-86l-6,6h4l4-4L19.3-86z M50-82l-2,2h4L50-82z
			 M46-86l-6,6h4l4-4L46-86z M56.7-82l-2,2h4L56.7-82z M6-126l-6,6v4l8-8L6-126z M10-122L0-112v4l12-12L10-122z M4-101.3l-4-4v8
			L4-101.3z M5.3-84l4,4h4l-6-6L5.3-84z M4-128l-4-4v8L4-128z M3.3-82l-2,2h4L3.3-82z M6-99.3l-6,6v4l8-8L6-99.3z M10-95.3l-10,10v4
			l12-12L10-95.3z"/>
		<path class="st1" d="M80,0h80v-80H80V0z"/>
		<path class="st2" d="M81.3-53.3l12,12l12-12l-2-2l-10,10l-10-10L81.3-53.3z M106.7-9.3l8-8l-2-2l-6,6l-6-6l-2,2L106.7-9.3z
			 M87.3-32.7l-2,2l8,8l8-8l-2-2l-6,6L87.3-32.7z M93.3-38.7l-4,4l4,4l4-4L93.3-38.7z M106.7-52l-4,4l4,4l4-4L106.7-52z M139.3-46
			l-6,6l-6-6l-2,2l8,8l8-8L139.3-46z M137.3-21.3l-4-4l-4,4l4,4L137.3-21.3z M133.3-51.9l-4,4l4,4l4-4L133.3-51.9z M143.3-41.9
			l-10,10l-10-10l-2,2l12,12l12-12L143.3-41.9z M139.3-19.3l-6,6l-6-6l-2,2l8,8l8-8L139.3-19.3z M150.7-34.7l-4-4l-4,4l4,4
			L150.7-34.7z M156.7-55.3l-10,10l-10-10l-2,2l12,12l12-12L156.7-55.3z M152.7-59.3l-6,6l-6-6l-2,2l8,8l8-8L152.7-59.3z
			 M156.7-28.7l-10,10l-10-10l-2,2l12,12l12-12L156.7-28.7z M93.3-65.3l-4,4l4,4l4-4L93.3-65.3z M146.7-65.3l-4,4l4,4l4-4
			L146.7-65.3z M87.3-59.3l-2,2l8,8l8-8l-2-2l-6,6L87.3-59.3z M120-65.3l-4,4l4,4l4-4L120-65.3z M152.7-32.7l-6,6l-6-6l-2,2l8,8l8-8
			L152.7-32.7z M116.7-68.7l-10,10l-10-10l-2,2l12,12l12-12L116.7-68.7z M97.3-8l-4-4l-4,4l4,4L97.3-8z M81.3-26.7l12,12l12-12l-2-2
			l-10,10l-10-10L81.3-26.7z M133.3-62.7l8-8l-2-2l-6,6l-6-6l-2,2L133.3-62.7z M106.7-62.7l8-8l-2-2l-6,6l-6-6l-2,2L106.7-62.7z
			 M156.7-2l-2,2h4L156.7-2z M152.7-6l-6,6h4l4-4L152.7-6z M143.3-68.7l-10,10l-10-10l-2,2l12,12l12-12L143.3-68.7z M138.7-4l4,4h4
			l-6-6L138.7-4z M130-55.3l-10,10l-10-10l-2,2l12,12l12-12L130-55.3z M126-32.7l-6,6l-6-6l-2,2l8,8l8-8L126-32.7z M110.7-21.3l-4-4
			l-4,4l4,4L110.7-21.3z M108-26.7l12,12l12-12l-2-2l-10,10l-10-10L108-26.7z M94.7-40l12,12l12-12l-2-2l-10,10l-10-10L94.7-40z
			 M120-30.7l4-4l-4-4l-4,4L120-30.7z M120-49.3l8-8l-2-2l-6,6l-6-6l-2,2L120-49.3z M124-8l-4-4l-4,4l4,4L124-8z M100.7-46l-2,2l8,8
			l8-8l-2-2l-6,6L100.7-46z M156-48l4,4v-8L156-48z M137.3-74.6l-4-4l-4,4l4,4L137.3-74.6z M120-67.9l12-12l-0.1-0.1h-3.9L120-72
			l-8.1-8.1h-3.9l-0.1,0.1L120-67.9z M146.7-75.9l4.1-4.1h-4l-0.1,0.1l-0.1-0.1h-4L146.7-75.9z M120-75.9l4.1-4.1h-4l-0.1,0.1
			l-0.1-0.1h-4L120-75.9z M110.7-74.6l-4-4l-4,4l4,4L110.7-74.6z M150.7-8l-4-4l-4,4l4,4L150.7-8z M84-74.6l-4-4v8L84-74.6z
			 M93.3-67.9l12-12l-0.1-0.1h-3.8L93.3-72L85.3-80h-3.9l-0.1,0.1L93.3-67.9z M146.7-67.9l12-12l-0.1-0.1h-3.9l-8.1,8.1l-8.1-8.1
			h-3.8l-0.1,0.1L146.7-67.9z M152-70.6l8,8v-4l-6-6L152-70.6z M148-40l12,12v-4l-10-10L148-40z M156-21.3l4,4v-8L156-21.3z
			 M152-17.3l8,8v-4l-6-6L152-17.3z M156-74.6l4,4v-8L156-74.6z M160-1.3v-4l-10-10l-2,2L160-1.3z M152-44l8,8v-4l-6-6L152-44z
			 M86-72.6l-6,6v3.9l8-8L86-72.6z M148-66.6l12,12v-4l-10-10L148-66.6z M93.3-75.9l4.1-4.1h-4l-0.1,0.1L93.3-80h-4L93.3-75.9z
			 M110-2l-2,2h4L110-2z M112-4l4,4h4l-6-6L112-4z M94.7-13.3l12,12l12-12l-2-2l-10,10l-10-10L94.7-13.3z M103.3-2l-2,2h4L103.3-2z
			 M121.3-13.3l12,12l12-12l-2-2l-10,10l-10-10L121.3-13.3z M90-68.6l-10,10v3.9l12-12L90-68.6z M99.3-6l-6,6h4l4-4L99.3-6z M130-2
			l-2,2h4L130-2z M126-6l-6,6h4l4-4L126-6z M136.7-2l-2,2h4L136.7-2z M86-46l-6,6v4l8-8L86-46z M90-42L80-32v4l12-12L90-42z
			 M84-21.3l-4-4v8L84-21.3z M85.3-4l4,4h4l-6-6L85.3-4z M84-48l-4-4v8L84-48z M83.3-2l-2,2h4L83.3-2z M86-19.3l-6,6v4l8-8L86-19.3z
			 M90-15.3l-10,10v4l12-12L90-15.3z"/>
		<path class="st1" d="M0,0h80v-80H0V0z"/>
		<path class="st2" d="M1.3-53.3l12,12l12-12l-2-2l-10,10l-10-10L1.3-53.3z M26.7-9.3l8-8l-2-2l-6,6l-6-6l-2,2L26.7-9.3z M7.3-32.7
			l-2,2l8,8l8-8l-2-2l-6,6L7.3-32.7z M13.3-38.7l-4,4l4,4l4-4L13.3-38.7z M26.7-52l-4,4l4,4l4-4L26.7-52z M59.3-46l-6,6l-6-6l-2,2
			l8,8l8-8L59.3-46z M57.3-21.3l-4-4l-4,4l4,4L57.3-21.3z M53.3-51.9l-4,4l4,4l4-4L53.3-51.9z M63.3-41.9l-10,10l-10-10l-2,2l12,12
			l12-12L63.3-41.9z M59.3-19.3l-6,6l-6-6l-2,2l8,8l8-8L59.3-19.3z M70.7-34.7l-4-4l-4,4l4,4L70.7-34.7z M76.7-55.3l-10,10l-10-10
			l-2,2l12,12l12-12L76.7-55.3z M72.7-59.3l-6,6l-6-6l-2,2l8,8l8-8L72.7-59.3z M76.7-28.7l-10,10l-10-10l-2,2l12,12l12-12L76.7-28.7
			z M13.3-65.3l-4,4l4,4l4-4L13.3-65.3z M66.7-65.3l-4,4l4,4l4-4L66.7-65.3z M7.3-59.3l-2,2l8,8l8-8l-2-2l-6,6L7.3-59.3z M40-65.3
			l-4,4l4,4l4-4L40-65.3z M72.7-32.7l-6,6l-6-6l-2,2l8,8l8-8L72.7-32.7z M36.7-68.7l-10,10l-10-10l-2,2l12,12l12-12L36.7-68.7z
			 M17.3-8l-4-4l-4,4l4,4L17.3-8z M1.3-26.7l12,12l12-12l-2-2l-10,10l-10-10L1.3-26.7z M53.3-62.7l8-8l-2-2l-6,6l-6-6l-2,2
			L53.3-62.7z M26.7-62.7l8-8l-2-2l-6,6l-6-6l-2,2L26.7-62.7z M76.7-2l-2,2h4L76.7-2z M72.7-6l-6,6h4l4-4L72.7-6z M63.3-68.6l-10,10
			l-10-10l-2,2l12,12l12-12L63.3-68.6z M58.7-4l4,4h4l-6-6L58.7-4z M50-55.3l-10,10l-10-10l-2,2l12,12l12-12L50-55.3z M46-32.7l-6,6
			l-6-6l-2,2l8,8l8-8L46-32.7z M30.7-21.3l-4-4l-4,4l4,4L30.7-21.3z M28-26.7l12,12l12-12l-2-2l-10,10l-10-10L28-26.7z M14.7-40
			l12,12l12-12l-2-2l-10,10l-10-10L14.7-40z M40-30.7l4-4l-4-4l-4,4L40-30.7z M40-49.3l8-8l-2-2l-6,6l-6-6l-2,2L40-49.3z M44-8l-4-4
			l-4,4l4,4L44-8z M20.7-46l-2,2l8,8l8-8l-2-2l-6,6L20.7-46z M76-48l4,4v-8L76-48z M57.3-74.6l-4-4l-4,4l4,4L57.3-74.6z M40-67.9
			l12-12L51.9-80h-3.9L40-71.9L31.9-80h-3.9L28-79.9L40-67.9z M66.7-75.9l4.1-4.1h-4l-0.1,0.1L66.6-80h-4L66.7-75.9z M40-75.9
			l4.1-4.1h-4L40-79.9L39.9-80h-4L40-75.9z M30.7-74.6l-4-4l-4,4l4,4L30.7-74.6z M70.7-8l-4-4l-4,4l4,4L70.7-8z M4-74.6l-4-4v8
			L4-74.6z M13.3-67.9l12-12L25.3-80h-3.9L13.3-72L5.3-80H1.4l-0.1,0.1L13.3-67.9z M66.7-67.9l12-12L78.6-80h-3.8L66.7-72L58.6-80
			h-3.9l-0.1,0.1L66.7-67.9z M72-70.6l8,8v-4l-6-6L72-70.6z M68-40l12,12v-4L70-42L68-40z M76-21.3l4,4v-8L76-21.3z M72-17.3l8,8v-4
			l-6-6L72-17.3z M76-74.6l4,4v-8L76-74.6z M80-1.3v-4l-10-10l-2,2L80-1.3z M72-44l8,8v-4l-6-6L72-44z M6-72.6l-6,6v3.9l8-8L6-72.6z
			 M68-66.6l12,12v-4l-10-10L68-66.6z M13.3-75.9l4.1-4.1h-4l-0.1,0.1L13.3-80h-4L13.3-75.9z M30-2l-2,2h4L30-2z M32-4l4,4h4l-6-6
			L32-4z M14.7-13.3l12,12l12-12l-2-2l-10,10l-10-10L14.7-13.3z M23.3-2l-2,2h4L23.3-2z M41.3-13.3l12,12l12-12l-2-2l-10,10l-10-10
			L41.3-13.3z M10-68.6l-10,10v3.9l12-12L10-68.6z M19.3-6l-6,6h4l4-4L19.3-6z M50-2l-2,2h4L50-2z M46-6l-6,6h4l4-4L46-6z M56.7-2
			l-2,2h4L56.7-2z M6-46l-6,6v4l8-8L6-46z M10-42L0-32v4l12-12L10-42z M4-21.3l-4-4v8L4-21.3z M5.3-4l4,4h4l-6-6L5.3-4z M4-48l-4-4
			v8L4-48z M3.3-2l-2,2h4L3.3-2z M6-19.3l-6,6v4l8-8L6-19.3z M10-15.3L0-5.3v4l12-12L10-15.3z"/>
	</g>
</pattern>
<g id="Capa_2">
	<g id="Layer_2">
		<pattern  id="SVGID_1_" xlink:href="#Nueva_muestra_de_motivo_4" patternTransform="matrix(1 0 0 -1 190 -16422.8398)">
		</pattern>
		<path class="st3" d="M-342.5,43.5h271v474h-271V43.5z"/>
		<path class="st4" d="M-83.5,54.8v451.4h-247V54.8H-83.5 M-81.5,52.8h-251v455.4h251V52.8z"/>
		<circle class="st5" cx="-207" cy="426.5" r="15"/>
		<path class="st4" d="M-203.6,426.5c0,0.1,0,0.2-0.1,0.3l-5.7,5.7c-0.1,0.2-0.4,0.2-0.6,0c0,0,0,0,0,0l-0.6-0.6
			c-0.2-0.1-0.2-0.4,0-0.6c0,0,0,0,0,0l4.8-4.8l-4.8-4.8c-0.2-0.1-0.2-0.4,0-0.6c0,0,0,0,0,0l0.6-0.6c0.1-0.2,0.4-0.2,0.6,0
			c0,0,0,0,0,0l5.7,5.7C-203.7,426.3-203.6,426.4-203.6,426.5L-203.6,426.5z"/>
		<g class="st6">
			<path class="st7" d="M-266.2,259.6h-4.4l-8.6-14v14h-4.4v-21.3h4.4l8.6,14.1v-14.1h4.4V259.6z"/>
			<path class="st7" d="M-244.8,249.5c0,2.1-0.4,3.9-1.1,5.5s-1.8,2.8-3.2,3.7s-3,1.3-4.8,1.3c-1.8,0-3.3-0.4-4.7-1.3
				s-2.5-2.1-3.2-3.6s-1.1-3.4-1.2-5.4v-1.1c0-2.1,0.4-3.9,1.1-5.5c0.8-1.6,1.8-2.8,3.2-3.7c1.4-0.9,3-1.3,4.7-1.3s3.4,0.4,4.7,1.3
				c1.4,0.9,2.5,2.1,3.2,3.7c0.8,1.6,1.1,3.4,1.1,5.5V249.5z M-249.3,248.5c0-2.2-0.4-3.9-1.2-5.1s-1.9-1.7-3.4-1.7
				c-1.5,0-2.6,0.6-3.4,1.7c-0.8,1.1-1.2,2.8-1.2,5v1c0,2.2,0.4,3.9,1.2,5.1s2,1.8,3.5,1.8c1.5,0,2.6-0.6,3.4-1.7
				c0.8-1.2,1.2-2.8,1.2-5.1V248.5z"/>
			<path class="st7" d="M-225.5,238.3v14c0,2.3-0.7,4.2-2.2,5.5s-3.5,2-6,2c-2.5,0-4.5-0.7-5.9-2s-2.2-3.1-2.2-5.4v-14.2h4.4v14.1
				c0,1.4,0.3,2.4,1,3.1c0.7,0.6,1.6,1,2.8,1c2.5,0,3.7-1.3,3.8-3.9v-14.2H-225.5z"/>
			<path class="st7" d="M-214,254.4l4.8-16h4.9l-7.4,21.3h-4.6l-7.4-21.3h4.9L-214,254.4z"/>
			<path class="st7" d="M-189.4,250.4h-8.4v5.7h9.9v3.5h-14.3v-21.3h14.3v3.6h-9.9v5.1h8.4V250.4z"/>
		</g>
		<g class="st6">
			<path class="st7" d="M-173.4,255.3h-7.7l-1.5,4.4h-4.7l7.9-21.3h4.1l8,21.3h-4.7L-173.4,255.3z M-179.9,251.7h5.3l-2.7-8
				L-179.9,251.7z"/>
		</g>
		<g class="st6">
			<path class="st7" d="M-149.3,238.3v14c0,2.3-0.7,4.2-2.2,5.5s-3.5,2-6,2c-2.5,0-4.5-0.7-5.9-2s-2.2-3.1-2.2-5.4v-14.2h4.4v14.1
				c0,1.4,0.3,2.4,1,3.1c0.7,0.6,1.6,1,2.8,1c2.5,0,3.7-1.3,3.8-3.9v-14.2H-149.3z"/>
			<path class="st7" d="M-138.1,245.7l4-7.4h5.1l-6.2,10.6l6.4,10.8h-5.1l-4.1-7.5l-4.1,7.5h-5.1l6.4-10.8l-6.2-10.6h5.1
				L-138.1,245.7z"/>
		</g>
		<g class="st6">
			<path class="st7" d="M-272.5,288.1v7.5h-4.4v-21.3h8.3c1.6,0,3,0.3,4.2,0.9s2.2,1.4,2.8,2.5s1,2.3,1,3.7c0,2.1-0.7,3.7-2.1,4.9
				c-1.4,1.2-3.4,1.8-5.9,1.8H-272.5z M-272.5,284.6h3.9c1.2,0,2-0.3,2.7-0.8s0.9-1.3,0.9-2.3c0-1-0.3-1.9-0.9-2.5s-1.5-1-2.5-1h-4
				V284.6z"/>
			<path class="st7" d="M-249.6,287.8h-3.5v7.8h-4.4v-21.3h7.9c2.5,0,4.5,0.6,5.8,1.7s2.1,2.7,2.1,4.8c0,1.5-0.3,2.7-0.9,3.6
				s-1.6,1.7-2.9,2.3l4.6,8.7v0.2h-4.7L-249.6,287.8z M-253.1,284.3h3.5c1.1,0,2-0.3,2.6-0.8s0.9-1.3,0.9-2.3c0-1-0.3-1.8-0.9-2.4
				s-1.4-0.9-2.6-0.9h-3.5V284.3z"/>
			<path class="st7" d="M-220.9,285.5c0,2.1-0.4,3.9-1.1,5.5s-1.8,2.8-3.2,3.7s-3,1.3-4.8,1.3c-1.8,0-3.3-0.4-4.7-1.3
				s-2.5-2.1-3.2-3.6s-1.1-3.4-1.2-5.4v-1.1c0-2.1,0.4-3.9,1.1-5.5c0.8-1.6,1.8-2.8,3.2-3.7c1.4-0.9,3-1.3,4.7-1.3s3.4,0.4,4.7,1.3
				c1.4,0.9,2.5,2.1,3.2,3.7c0.8,1.6,1.1,3.4,1.1,5.5V285.5z M-225.3,284.5c0-2.2-0.4-3.9-1.2-5.1s-1.9-1.7-3.4-1.7
				c-1.5,0-2.6,0.6-3.4,1.7c-0.8,1.1-1.2,2.8-1.2,5v1c0,2.2,0.4,3.9,1.2,5.1s2,1.8,3.5,1.8c1.5,0,2.6-0.6,3.4-1.7
				c0.8-1.2,1.2-2.8,1.2-5.1V284.5z"/>
			<path class="st7" d="M-217.7,295.7v-21.3h6.6c1.9,0,3.6,0.4,5,1.3s2.6,2,3.5,3.6s1.2,3.3,1.2,5.3v1c0,2-0.4,3.7-1.2,5.3
				s-2,2.7-3.4,3.6c-1.5,0.8-3.2,1.3-5,1.3H-217.7z M-213.3,277.9v14.2h2.1c1.7,0,3-0.6,3.9-1.7s1.4-2.7,1.4-4.8v-1.1
				c0-2.2-0.4-3.8-1.3-4.9c-0.9-1.1-2.2-1.7-3.9-1.7H-213.3z"/>
			<path class="st7" d="M-182,274.3v14c0,2.3-0.7,4.2-2.2,5.5s-3.5,2-6,2c-2.5,0-4.5-0.7-5.9-2s-2.2-3.1-2.2-5.4v-14.2h4.4v14.1
				c0,1.4,0.3,2.4,1,3.1c0.7,0.6,1.6,1,2.8,1c2.5,0,3.7-1.3,3.8-3.9v-14.2H-182z"/>
		</g>
		<g class="st6">
			<path class="st7" d="M-173.7,295.7h-4.4v-21.3h4.4V295.7z"/>
		</g>
		<g class="st6">
			<path class="st7" d="M-154,277.9h-6.5v17.8h-4.4v-17.8h-6.4v-3.6h17.4V277.9z"/>
		</g>
		<g class="st6">
			<path class="st7" d="M-140.7,290.1c0-0.8-0.3-1.5-0.9-1.9c-0.6-0.4-1.6-0.9-3.2-1.4c-1.5-0.5-2.7-1-3.6-1.5
				c-2.4-1.3-3.6-3.1-3.6-5.3c0-1.2,0.3-2.2,1-3.1s1.6-1.6,2.8-2.1s2.6-0.8,4.1-0.8c1.5,0,2.9,0.3,4.1,0.8s2.1,1.3,2.8,2.3
				s1,2.1,1,3.4h-4.4c0-1-0.3-1.7-0.9-2.3c-0.6-0.5-1.5-0.8-2.6-0.8c-1.1,0-1.9,0.2-2.5,0.7c-0.6,0.5-0.9,1.1-0.9,1.8
				c0,0.7,0.3,1.3,1,1.7s1.7,0.9,3.1,1.3c2.5,0.8,4.3,1.7,5.5,2.8s1.7,2.5,1.7,4.2c0,1.8-0.7,3.3-2.1,4.3s-3.3,1.6-5.6,1.6
				c-1.6,0-3.1-0.3-4.5-0.9c-1.3-0.6-2.4-1.4-3.1-2.5s-1.1-2.3-1.1-3.6h4.4c0,2.4,1.4,3.5,4.2,3.5c1,0,1.9-0.2,2.4-0.6
				C-141,291.4-140.7,290.8-140.7,290.1z"/>
		</g>
		<g class="st6">
			<path class="st7" d="M-231.1,225.3l3.2-9.4h1.6l-4.2,11.4h-1.3l-4.2-11.4h1.6L-231.1,225.3z"/>
		</g>
		<g class="st6">
			<path class="st7" d="M-225.7,223c0-0.8,0.2-1.6,0.5-2.2c0.3-0.7,0.8-1.2,1.4-1.5c0.6-0.4,1.2-0.5,2-0.5c1.2,0,2.1,0.4,2.8,1.2
				s1.1,1.9,1.1,3.2v0.1c0,0.8-0.2,1.6-0.5,2.2c-0.3,0.7-0.8,1.2-1.4,1.5s-1.3,0.5-2,0.5c-1.1,0-2.1-0.4-2.8-1.2s-1.1-1.9-1.1-3.2
				V223z M-224.2,223.2c0,0.9,0.2,1.7,0.7,2.3c0.4,0.6,1,0.9,1.7,0.9c0.7,0,1.3-0.3,1.8-0.9c0.4-0.6,0.6-1.4,0.6-2.4
				c0-0.9-0.2-1.7-0.7-2.3c-0.4-0.6-1-0.9-1.8-0.9c-0.7,0-1.3,0.3-1.7,0.9S-224.2,222.1-224.2,223.2z"/>
			<path class="st7" d="M-216.2,216.6c0-0.2,0.1-0.4,0.2-0.6c0.1-0.2,0.4-0.2,0.6-0.2s0.5,0.1,0.6,0.2c0.1,0.2,0.2,0.4,0.2,0.6
				s-0.1,0.4-0.2,0.6c-0.1,0.2-0.4,0.2-0.6,0.2s-0.5-0.1-0.6-0.2C-216.1,217.1-216.2,216.9-216.2,216.6z M-214.6,227.3h-1.4v-8.5
				h1.4V227.3z"/>
			<path class="st7" d="M-208.2,220.2c-0.2,0-0.5-0.1-0.7-0.1c-0.9,0-1.6,0.4-1.9,1.2v6h-1.4v-8.5h1.4l0,1c0.5-0.8,1.1-1.1,2-1.1
				c0.3,0,0.5,0,0.6,0.1V220.2z"/>
			<path class="st7" d="M-201.5,218.9l0,1.1c0.6-0.8,1.5-1.2,2.5-1.2c1.8,0,2.7,1,2.7,3v5.6h-1.4v-5.6c0-0.6-0.1-1.1-0.4-1.4
				s-0.7-0.4-1.3-0.4c-0.5,0-0.9,0.1-1.2,0.4c-0.4,0.2-0.6,0.6-0.8,1v6h-1.4v-8.5H-201.5z"/>
			<path class="st7" d="M-194.5,223c0-0.8,0.2-1.6,0.5-2.2c0.3-0.7,0.8-1.2,1.4-1.5c0.6-0.4,1.2-0.5,2-0.5c1.2,0,2.1,0.4,2.8,1.2
				s1.1,1.9,1.1,3.2v0.1c0,0.8-0.2,1.6-0.5,2.2c-0.3,0.7-0.8,1.2-1.4,1.5s-1.3,0.5-2,0.5c-1.1,0-2.1-0.4-2.8-1.2s-1.1-1.9-1.1-3.2
				V223z M-193,223.2c0,0.9,0.2,1.7,0.7,2.3c0.4,0.6,1,0.9,1.7,0.9c0.7,0,1.3-0.3,1.8-0.9c0.4-0.6,0.6-1.4,0.6-2.4
				c0-0.9-0.2-1.7-0.7-2.3c-0.4-0.6-1-0.9-1.8-0.9c-0.7,0-1.3,0.3-1.7,0.9S-193,222.1-193,223.2z"/>
			<path class="st7" d="M-180,225.1c0-0.4-0.1-0.7-0.4-0.9c-0.3-0.2-0.8-0.4-1.5-0.6c-0.7-0.2-1.3-0.3-1.7-0.6s-0.7-0.5-1-0.8
				c-0.2-0.3-0.3-0.7-0.3-1.1c0-0.7,0.3-1.3,0.9-1.8s1.3-0.7,2.2-0.7c1,0,1.7,0.2,2.3,0.7c0.6,0.5,0.9,1.1,0.9,1.9h-1.5
				c0-0.4-0.2-0.7-0.5-1s-0.8-0.4-1.3-0.4c-0.5,0-0.9,0.1-1.2,0.3s-0.4,0.5-0.4,0.9c0,0.3,0.1,0.6,0.4,0.8c0.3,0.2,0.8,0.3,1.5,0.5
				c0.7,0.2,1.3,0.4,1.8,0.6c0.4,0.2,0.8,0.5,1,0.8c0.2,0.3,0.3,0.7,0.3,1.2c0,0.8-0.3,1.4-0.9,1.8c-0.6,0.5-1.4,0.7-2.4,0.7
				c-0.7,0-1.3-0.1-1.8-0.4c-0.5-0.2-0.9-0.6-1.2-1c-0.3-0.4-0.4-0.9-0.4-1.4h1.4c0,0.5,0.2,0.9,0.6,1.2c0.4,0.3,0.8,0.4,1.4,0.4
				c0.5,0,1-0.1,1.3-0.3C-180.2,225.7-180,225.4-180,225.1z"/>
		</g>
		<g class="st6">
			<path class="st8" d="M-179.5,157.8c1.3,0,2.3,0.4,3.2,1.3s1.3,2,1.3,3.2s-0.4,2.3-1.3,3.2s-2,1.3-3.2,1.3v13.8
				c0,1.2-0.5,2.3-1.4,3.2c-0.9,0.9-2,1.4-3.2,1.4c-10-8.3-19.7-12.8-29.1-13.6c-1.4,0.5-2.5,1.2-3.3,2.4c-0.8,1.1-1.2,2.3-1.1,3.6
				c0,1.3,0.5,2.4,1.4,3.3c-0.5,0.8-0.8,1.6-0.8,2.3c-0.1,0.8,0,1.5,0.2,2.1c0.2,0.6,0.6,1.3,1.2,2c0.6,0.7,1.2,1.3,1.7,1.8
				c0.6,0.5,1.3,1.1,2.2,1.8c-0.7,1.4-2,2.4-4,3c-2,0.6-4,0.7-6,0.4c-2.1-0.3-3.6-1-4.7-2c-0.2-0.5-0.5-1.6-1.1-3.1
				c-0.5-1.5-0.9-2.7-1.1-3.4c-0.2-0.7-0.5-1.8-0.8-3.2s-0.5-2.6-0.5-3.6c0-1,0-2.2,0.1-3.5c0.1-1.3,0.4-2.7,0.8-4h-4.4
				c-1.6,0-2.9-0.6-4-1.7c-1.1-1.1-1.7-2.5-1.7-4v-6.9c0-1.6,0.6-2.9,1.7-4c1.1-1.1,2.5-1.7,4-1.7h17.2c10.4,0,21.1-4.6,32.1-13.8
				c1.2,0,2.3,0.5,3.2,1.4c0.9,0.9,1.4,2,1.4,3.2V157.8z M-184.1,179.4v-34.2c-9.4,7.2-18.6,11.3-27.5,12.3v9.7
				C-202.6,168.2-193.4,172.3-184.1,179.4z"/>
		</g>
	</g>
</g>
</svg>
