<svg xmlns="http://www.w3.org/2000/svg" xmlns:xlink="http://www.w3.org/1999/xlink" viewBox="0 0 272 475"><defs><style>.cls-1,.cls-6{fill:none;}.cls-2{fill:#6dbe46;}.cls-3{fill:#63b43c;}.cls-4{stroke:#6dbe46;fill:url(#Nueva_muestra_de_motivo_7);}.cls-4,.cls-6{stroke-miterlimit:10;}.cls-5{fill:#fff;}.cls-6{stroke:#fff;stroke-width:2px;}</style><pattern id="Nueva_muestra_de_motivo_7" data-name="Nueva muestra de motivo 7" width="80" height="80" patternTransform="translate(167 -30.04) scale(1 1.04)" patternUnits="userSpaceOnUse" viewBox="0 0 80 80"><rect class="cls-1" width="80" height="80"/><rect class="cls-2" width="80" height="80"/><rect class="cls-2" x="0.03" y="0.03" width="79.93" height="79.93"/><path class="cls-3" d="M1.33,53.29l12-12,12,12-2,2-10-10-10,10Zm25.33-44,8,8-2,2-6-6-6,6-2-2ZM7.33,32.64l-2-2,8-8,8,8-2,2-6-6Zm6,6-4-4,4-4,4,4ZM26.67,52l-4-4,4-4,4,4Zm32.67-6-6-6-6,6-2-2,8-8,8,8Zm-2-24.65-4,4-4-4,4-4ZM53.33,52l-4-4,4-4,4,4Zm10-10-10-10-10,10-2-2,12-12,12,12Zm-4-22.65-6-6-6,6-2-2,8-8,8,8ZM70.67,34.64l-4,4-4-4,4-4Zm6,20.65-10-10-10,10-2-2,12-12,12,12Zm-4,4-6-6-6,6-2-2,8-8,8,8Zm4-30.64-10-10-10,10-2-2,12-12,12,12ZM13.33,65.28l-4-4,4-4,4,4Zm53.33,0-4-4,4-4,4,4Zm-59.33-6-2-2,8-8,8,8-2,2-6-6Zm32.67,6-4-4,4-4,4,4ZM72.67,32.64l-6-6-6,6-2-2,8-8,8,8Zm-36,36-10-10-10,10-2-2,12-12,12,12ZM17.33,8l-4,4-4-4,4-4Zm-16,18.65,12-12,12,12-2,2-10-10-10,10Zm52,36,8,8-2,2-6-6-6,6-2-2Zm-26.67,0,8,8-2,2-6-6-6,6-2-2ZM76.67,2l-2-2h4Zm-4,4-6-6h4l4,4ZM63.33,68.61l-10-10-10,10-2-2,12-12,12,12ZM58.67,4l4-4h4l-6,6ZM50,55.29l-10-10-10,10-2-2,12-12,12,12ZM46,32.64l-6-6-6,6-2-2,8-8,8,8ZM30.67,21.32l-4,4-4-4,4-4ZM28,26.64l12-12,12,12-2,2-10-10-10,10ZM14.67,40l12-12,12,12-2,2-10-10-10,10ZM40,30.64l4,4-4,4-4-4Zm0,18.65,8,8-2,2-6-6-6,6-2-2ZM44,8l-4,4L36,8l4-4ZM20.67,46l-2-2,8-8,8,8-2,2-6-6ZM76,48l4-4v8ZM57.33,74.61l-4,4-4-4,4-4ZM40,67.94l12,12-.07.07H48.07L40,71.94,31.93,80H28.07L28,79.93Zm26.67,8L70.73,80h-4l-.07-.07L66.6,80h-4ZM40,75.94,44.07,80h-4L40,79.93l-.07.07h-4Zm-9.33-1.33-4,4-4-4,4-4ZM70.67,8l-4,4-4-4,4-4ZM4,74.61l-4,4v-8Zm9.33-6.66,12,12-.07.07H21.4l-8.07-8.06L5.27,80H1.4l-.07-.07Zm53.33,0,12,12L78.6,80H74.73l-8.07-8.06L58.6,80H54.73l-.07-.07ZM72,70.61l8-8v4l-6,6ZM68,40,80,28v4L70,42Zm8-18.65,4-4v8Zm-4-4,8-8v4l-6,6Zm4,57.29,4-4v8ZM80,1.33v4l-10,10-2-2ZM72,44l8-8v4l-6,6ZM6,72.61l-6-6v-4l8,8Zm62-6,12-12v4l-10,10ZM13.33,75.94,17.4,80h-4l-.07-.07-.07.07h-4ZM30,2,28,0h4Zm2,2,4-4h4L34,6ZM14.67,13.32l12-12,12,12-2,2-10-10-10,10ZM23.33,2l-2-2h4Zm18,11.32,12-12,12,12-2,2-10-10-10,10ZM10,68.61l-10-10v-4l12,12ZM19.33,6l-6-6h4l4,4ZM50,2,48,0h4ZM46,6,40,0h4l4,4ZM56.67,2l-2-2h4ZM6,46,0,40V36l8,8Zm4-4L0,32V28L12,40ZM4,21.32l-4,4v-8ZM5.33,4l4-4h4l-6,6ZM4,48,0,52V44ZM3.33,2l-2-2h4ZM6,19.32l-6-6v-4l8,8Zm4-4L0,5.33v-4l12,12Z"/></pattern></defs><title>onlinedealsfr_1</title><g id="Capa_2" data-name="Capa 2"><g id="Layer_2" data-name="Layer 2"><rect class="cls-4" x="0.5" y="0.5" width="271" height="474"/><path class="cls-5" d="M259.5,11.79V463.21H12.5V11.79h247m2-2H10.5V465.21h251V9.79Z"/><path class="cls-5" d="M127.29,153.24a.65.65,0,0,0,.84-.92,14.8,14.8,0,0,1-.85-14.67c4.89-10.93,7.86-16.59,7.86-16.59A39.35,39.35,0,0,0,141,133.55c4.13,5.65,6.39,12.76,2.74,18.68a.65.65,0,0,0,.84.91c4.51-2.31,9.57-6.93,10.14-16.14a31.5,31.5,0,0,0-1.68-11.72c-2-6.3-4.52-9.24-6-10.5a.65.65,0,0,0-1.07.53c.42,6.8-2.14,8.52-3.59,4.63a23.79,23.79,0,0,1-.92-7.51,25.67,25.67,0,0,0-5.06-15.6,17.67,17.67,0,0,0-3.18-3.23.65.65,0,0,0-1,.56c.27,3.69,0,14.27-9.25,26.91-8.41,11.72-5.15,20.72-4,23.16A19.08,19.08,0,0,0,127.29,153.24Z"/><path class="cls-5" d="M46,209.14v7.51H41.61V195.32h8.32a9.63,9.63,0,0,1,4.23.88,6.48,6.48,0,0,1,2.8,2.5,7,7,0,0,1,1,3.68,6.12,6.12,0,0,1-2.15,4.94,8.94,8.94,0,0,1-5.94,1.81Zm0-3.56h3.93a3.86,3.86,0,0,0,2.66-.82,3,3,0,0,0,.92-2.34,3.52,3.52,0,0,0-.92-2.53,3.45,3.45,0,0,0-2.55-1H46Z"/><path class="cls-5" d="M68.85,208.84h-3.5v7.81H61V195.32h7.92A9,9,0,0,1,74.71,197a5.81,5.81,0,0,1,2.05,4.76,6.57,6.57,0,0,1-.94,3.64A6.45,6.45,0,0,1,73,207.73l4.61,8.72v.21H72.85Zm-3.5-3.56H68.9a3.63,3.63,0,0,0,2.56-.84,3,3,0,0,0,.91-2.32,3.23,3.23,0,0,0-.86-2.37,3.56,3.56,0,0,0-2.63-.86H65.35Z"/><path class="cls-5" d="M97.62,206.47A12.88,12.88,0,0,1,96.51,212a8.39,8.39,0,0,1-3.19,3.66,9.42,9.42,0,0,1-9.49,0A8.47,8.47,0,0,1,80.61,212a12.51,12.51,0,0,1-1.16-5.44v-1.05A12.8,12.8,0,0,1,80.59,200a8.45,8.45,0,0,1,3.21-3.68,9.4,9.4,0,0,1,9.48,0A8.46,8.46,0,0,1,96.49,200a12.78,12.78,0,0,1,1.13,5.53Zm-4.45-1a9,9,0,0,0-1.2-5.1,4.24,4.24,0,0,0-6.84,0,8.88,8.88,0,0,0-1.22,5v1a9.09,9.09,0,0,0,1.2,5.07,4.21,4.21,0,0,0,6.86.07,9,9,0,0,0,1.2-5.06Z"/><path class="cls-5" d="M106.56,195.32,112,210.79l5.45-15.47h5.77v21.33h-4.41v-5.83l.44-10.06-5.76,15.89h-3l-5.74-15.88.44,10v5.83h-4.39V195.32Z"/><path class="cls-5" d="M144.61,206.47A12.88,12.88,0,0,1,143.5,212a8.39,8.39,0,0,1-3.19,3.66,9.42,9.42,0,0,1-9.49,0,8.47,8.47,0,0,1-3.22-3.64,12.51,12.51,0,0,1-1.16-5.44v-1.05a12.8,12.8,0,0,1,1.13-5.54,8.45,8.45,0,0,1,3.21-3.68,9.4,9.4,0,0,1,9.48,0,8.46,8.46,0,0,1,3.21,3.68,12.78,12.78,0,0,1,1.13,5.53Zm-4.45-1a9,9,0,0,0-1.2-5.1,4.24,4.24,0,0,0-6.84,0,8.88,8.88,0,0,0-1.22,5v1a9.09,9.09,0,0,0,1.2,5.07,4.21,4.21,0,0,0,6.86.07,9,9,0,0,0,1.2-5.06Z"/><path class="cls-5" d="M162.62,198.88h-6.53v17.77h-4.39V198.88h-6.45v-3.56h17.37Z"/><path class="cls-5" d="M169.79,216.65H165.4V195.32h4.39Z"/><path class="cls-5" d="M191.39,206.47a12.88,12.88,0,0,1-1.11,5.52,8.39,8.39,0,0,1-3.19,3.66,9.42,9.42,0,0,1-9.49,0,8.47,8.47,0,0,1-3.22-3.64,12.51,12.51,0,0,1-1.16-5.44v-1.05a12.8,12.8,0,0,1,1.13-5.54,8.45,8.45,0,0,1,3.21-3.68,9.4,9.4,0,0,1,9.48,0,8.46,8.46,0,0,1,3.21,3.68,12.78,12.78,0,0,1,1.13,5.53Zm-4.45-1a9,9,0,0,0-1.2-5.1,4.24,4.24,0,0,0-6.84,0,8.88,8.88,0,0,0-1.22,5v1a9.09,9.09,0,0,0,1.2,5.07,4.21,4.21,0,0,0,6.86.07,9,9,0,0,0,1.2-5.06Z"/><path class="cls-5" d="M211.92,216.65h-4.39l-8.55-14v14h-4.39V195.32H199l8.57,14.06V195.32h4.38Z"/><path class="cls-5" d="M226.82,211.06a2.26,2.26,0,0,0-.88-1.91,11.59,11.59,0,0,0-3.16-1.41,22.34,22.34,0,0,1-3.62-1.46q-3.63-2-3.63-5.29a5.14,5.14,0,0,1,1-3.08,6.35,6.35,0,0,1,2.8-2.12,10.54,10.54,0,0,1,4.09-.76,9.59,9.59,0,0,1,4.07.83,6.49,6.49,0,0,1,2.78,2.34,6.12,6.12,0,0,1,1,3.43h-4.39a2.87,2.87,0,0,0-.92-2.28,3.79,3.79,0,0,0-2.59-.81,4.06,4.06,0,0,0-2.5.68,2.15,2.15,0,0,0-.89,1.79,2.06,2.06,0,0,0,1,1.74,11.84,11.84,0,0,0,3.08,1.32,13.32,13.32,0,0,1,5.46,2.8,5.57,5.57,0,0,1,1.71,4.16,5.13,5.13,0,0,1-2.09,4.34,9.17,9.17,0,0,1-5.64,1.57A10.91,10.91,0,0,1,219,216a7.1,7.1,0,0,1-3.08-2.47,6.32,6.32,0,0,1-1.06-3.63h4.41q0,3.53,4.22,3.53a4.1,4.1,0,0,0,2.45-.64A2.07,2.07,0,0,0,226.82,211.06Z"/><path class="cls-5" d="M86.23,243.38H77.79v5.74h9.9v3.53H73.4V231.32H87.67v3.56H77.79V240h8.44Z"/><path class="cls-5" d="M107.62,252.65h-4.39l-8.55-14v14H90.28V231.32h4.39l8.57,14.06V231.32h4.38Z"/><path class="cls-5" d="M123.32,249.12h9.33v3.53H118.93V231.32h4.39Z"/><path class="cls-5" d="M139.85,252.65h-4.39V231.32h4.39Z"/><path class="cls-5" d="M160.79,250a7.63,7.63,0,0,1-3.35,2.21,14.07,14.07,0,0,1-4.8.78,9.51,9.51,0,0,1-4.86-1.21,8.06,8.06,0,0,1-3.22-3.51,12.35,12.35,0,0,1-1.16-5.41v-1.45a13.13,13.13,0,0,1,1.08-5.53,8,8,0,0,1,3.11-3.57,10.23,10.23,0,0,1,10.69.57,7.73,7.73,0,0,1,2.53,5.27h-4.28a4.25,4.25,0,0,0-1.3-2.68,4.14,4.14,0,0,0-2.76-.85,3.9,3.9,0,0,0-3.41,1.68,8.86,8.86,0,0,0-1.19,5v1.36a8.43,8.43,0,0,0,1.27,5.07,4.36,4.36,0,0,0,3.74,1.71,4.87,4.87,0,0,0,3.53-1.05v-3.68h-4v-3.24h8.39Z"/><path class="cls-5" d="M181.7,252.65H177.3l-8.55-14v14h-4.39V231.32h4.39l8.57,14.06V231.32h4.38Z"/><path class="cls-5" d="M198.37,243.38h-8.44v5.74h9.9v3.53h-14.3V231.32H199.8v3.56h-9.87V240h8.44Z"/><path class="cls-5" d="M112,182.33l3.25-9.38h1.64l-4.22,11.38h-1.33l-4.21-11.37h1.63Z"/><path class="cls-5" d="M117.42,180a5,5,0,0,1,.49-2.23,3.64,3.64,0,0,1,1.36-1.53,3.7,3.7,0,0,1,2-.54,3.56,3.56,0,0,1,2.79,1.2,4.6,4.6,0,0,1,1.07,3.18v.1a5,5,0,0,1-.47,2.21,3.59,3.59,0,0,1-1.35,1.53,3.74,3.74,0,0,1-2,.55,3.56,3.56,0,0,1-2.79-1.2,4.58,4.58,0,0,1-1.07-3.16Zm1.45.17a3.62,3.62,0,0,0,.65,2.26,2.21,2.21,0,0,0,3.5,0,4,4,0,0,0,.65-2.42,3.61,3.61,0,0,0-.66-2.25,2.1,2.1,0,0,0-1.75-.86,2.08,2.08,0,0,0-1.73.85A3.92,3.92,0,0,0,118.87,180.18Z"/><path class="cls-5" d="M126.94,173.62a.86.86,0,0,1,.21-.59.81.81,0,0,1,.64-.24.82.82,0,0,1,.64.24.85.85,0,0,1,.22.59.86.86,0,1,1-1.71,0Zm1.56,10.7h-1.45v-8.45h1.45Z"/><path class="cls-5" d="M134.9,177.16a4.37,4.37,0,0,0-.71-.05,1.9,1.9,0,0,0-1.93,1.21v6h-1.45v-8.45h1.41l0,1a2.25,2.25,0,0,1,2-1.13,1.47,1.47,0,0,1,.64.11Z"/><path class="cls-5" d="M141.55,175.86l0,1.06a3.08,3.08,0,0,1,2.53-1.22q2.68,0,2.7,3v5.59h-1.45v-5.59a1.94,1.94,0,0,0-.42-1.35,1.67,1.67,0,0,0-1.28-.44,2.09,2.09,0,0,0-1.23.38,2.55,2.55,0,0,0-.83,1v6h-1.45v-8.45Z"/><path class="cls-5" d="M148.63,180a5,5,0,0,1,.49-2.23,3.64,3.64,0,0,1,1.36-1.53,3.7,3.7,0,0,1,2-.54,3.56,3.56,0,0,1,2.79,1.2,4.6,4.6,0,0,1,1.07,3.18v.1a5,5,0,0,1-.47,2.21,3.59,3.59,0,0,1-1.35,1.53,3.74,3.74,0,0,1-2,.55,3.56,3.56,0,0,1-2.79-1.2,4.58,4.58,0,0,1-1.07-3.16Zm1.45.17a3.62,3.62,0,0,0,.65,2.26,2.21,2.21,0,0,0,3.5,0,4,4,0,0,0,.65-2.42,3.61,3.61,0,0,0-.66-2.25,2.1,2.1,0,0,0-1.75-.86,2.08,2.08,0,0,0-1.73.85A3.92,3.92,0,0,0,150.08,180.18Z"/><path class="cls-5" d="M163.06,182.08a1.06,1.06,0,0,0-.44-.91,4.25,4.25,0,0,0-1.54-.56,7.28,7.28,0,0,1-1.74-.56,2.48,2.48,0,0,1-1-.78,1.86,1.86,0,0,1-.31-1.08,2.19,2.19,0,0,1,.88-1.76,3.43,3.43,0,0,1,2.25-.72,3.53,3.53,0,0,1,2.33.74,2.36,2.36,0,0,1,.89,1.9H163a1.3,1.3,0,0,0-.5-1,1.89,1.89,0,0,0-1.27-.43,2,2,0,0,0-1.23.34,1.08,1.08,0,0,0-.45.9.88.88,0,0,0,.41.79,5.09,5.09,0,0,0,1.5.51,7.8,7.8,0,0,1,1.75.58,2.55,2.55,0,0,1,1,.81,2,2,0,0,1,.32,1.15,2.16,2.16,0,0,1-.91,1.82,3.8,3.8,0,0,1-2.35.68,4.26,4.26,0,0,1-1.8-.36,2.92,2.92,0,0,1-1.22-1,2.42,2.42,0,0,1-.44-1.39h1.45a1.5,1.5,0,0,0,.58,1.15,2.26,2.26,0,0,0,1.43.43,2.33,2.33,0,0,0,1.32-.33A1,1,0,0,0,163.06,182.08Z"/><circle class="cls-6" cx="136" cy="383.5" r="15"/><path class="cls-5" d="M139.38,383.54a.39.39,0,0,1-.12.28l-5.72,5.72a.39.39,0,0,1-.56,0l-.61-.61a.39.39,0,0,1,0-.57l4.83-4.82-4.83-4.83a.39.39,0,0,1,0-.56l.61-.61a.39.39,0,0,1,.56,0l5.72,5.72A.39.39,0,0,1,139.38,383.54Z"/></g></g></svg>