<svg xmlns="http://www.w3.org/2000/svg" xmlns:xlink="http://www.w3.org/1999/xlink" viewBox="0 0 272 475"><defs><style>.cls-1,.cls-6{fill:none;}.cls-2{fill:#6dbe46;}.cls-3{fill:#63b43c;}.cls-4{stroke:#6dbe46;fill:url(#Nueva_muestra_de_motivo_7);}.cls-4,.cls-6{stroke-miterlimit:10;}.cls-5{fill:#fff;}.cls-6{stroke:#fff;stroke-width:2px;}</style><pattern id="Nueva_muestra_de_motivo_7" data-name="Nueva muestra de motivo 7" width="80" height="80" patternTransform="translate(160 -30.04) scale(1 1.04)" patternUnits="userSpaceOnUse" viewBox="0 0 80 80"><rect class="cls-1" width="80" height="80"/><rect class="cls-2" width="80" height="80"/><rect class="cls-2" x="0.03" y="0.03" width="79.93" height="79.93"/><path class="cls-3" d="M1.33,53.29l12-12,12,12-2,2-10-10-10,10Zm25.33-44,8,8-2,2-6-6-6,6-2-2ZM7.33,32.64l-2-2,8-8,8,8-2,2-6-6Zm6,6-4-4,4-4,4,4ZM26.67,52l-4-4,4-4,4,4Zm32.67-6-6-6-6,6-2-2,8-8,8,8Zm-2-24.65-4,4-4-4,4-4ZM53.33,52l-4-4,4-4,4,4Zm10-10-10-10-10,10-2-2,12-12,12,12Zm-4-22.65-6-6-6,6-2-2,8-8,8,8ZM70.67,34.64l-4,4-4-4,4-4Zm6,20.65-10-10-10,10-2-2,12-12,12,12Zm-4,4-6-6-6,6-2-2,8-8,8,8Zm4-30.64-10-10-10,10-2-2,12-12,12,12ZM13.33,65.28l-4-4,4-4,4,4Zm53.33,0-4-4,4-4,4,4Zm-59.33-6-2-2,8-8,8,8-2,2-6-6Zm32.67,6-4-4,4-4,4,4ZM72.67,32.64l-6-6-6,6-2-2,8-8,8,8Zm-36,36-10-10-10,10-2-2,12-12,12,12ZM17.33,8l-4,4-4-4,4-4Zm-16,18.65,12-12,12,12-2,2-10-10-10,10Zm52,36,8,8-2,2-6-6-6,6-2-2Zm-26.67,0,8,8-2,2-6-6-6,6-2-2ZM76.67,2l-2-2h4Zm-4,4-6-6h4l4,4ZM63.33,68.61l-10-10-10,10-2-2,12-12,12,12ZM58.67,4l4-4h4l-6,6ZM50,55.29l-10-10-10,10-2-2,12-12,12,12ZM46,32.64l-6-6-6,6-2-2,8-8,8,8ZM30.67,21.32l-4,4-4-4,4-4ZM28,26.64l12-12,12,12-2,2-10-10-10,10ZM14.67,40l12-12,12,12-2,2-10-10-10,10ZM40,30.64l4,4-4,4-4-4Zm0,18.65,8,8-2,2-6-6-6,6-2-2ZM44,8l-4,4L36,8l4-4ZM20.67,46l-2-2,8-8,8,8-2,2-6-6ZM76,48l4-4v8ZM57.33,74.61l-4,4-4-4,4-4ZM40,67.94l12,12-.07.07H48.07L40,71.94,31.93,80H28.07L28,79.93Zm26.67,8L70.73,80h-4l-.07-.07L66.6,80h-4ZM40,75.94,44.07,80h-4L40,79.93l-.07.07h-4Zm-9.33-1.33-4,4-4-4,4-4ZM70.67,8l-4,4-4-4,4-4ZM4,74.61l-4,4v-8Zm9.33-6.66,12,12-.07.07H21.4l-8.07-8.06L5.27,80H1.4l-.07-.07Zm53.33,0,12,12L78.6,80H74.73l-8.07-8.06L58.6,80H54.73l-.07-.07ZM72,70.61l8-8v4l-6,6ZM68,40,80,28v4L70,42Zm8-18.65,4-4v8Zm-4-4,8-8v4l-6,6Zm4,57.29,4-4v8ZM80,1.33v4l-10,10-2-2ZM72,44l8-8v4l-6,6ZM6,72.61l-6-6v-4l8,8Zm62-6,12-12v4l-10,10ZM13.33,75.94,17.4,80h-4l-.07-.07-.07.07h-4ZM30,2,28,0h4Zm2,2,4-4h4L34,6ZM14.67,13.32l12-12,12,12-2,2-10-10-10,10ZM23.33,2l-2-2h4Zm18,11.32,12-12,12,12-2,2-10-10-10,10ZM10,68.61l-10-10v-4l12,12ZM19.33,6l-6-6h4l4,4ZM50,2,48,0h4ZM46,6,40,0h4l4,4ZM56.67,2l-2-2h4ZM6,46,0,40V36l8,8Zm4-4L0,32V28L12,40ZM4,21.32l-4,4v-8ZM5.33,4l4-4h4l-6,6ZM4,48,0,52V44ZM3.33,2l-2-2h4ZM6,19.32l-6-6v-4l8,8Zm4-4L0,5.33v-4l12,12Z"/></pattern></defs><title>onlinedealsen_1</title><g id="Capa_2" data-name="Capa 2"><g id="Layer_2" data-name="Layer 2"><rect class="cls-4" x="0.5" y="0.5" width="271" height="474"/><path class="cls-5" d="M259.5,11.79V463.21H12.5V11.79h247m2-2H10.5V465.21h251V9.79Z"/><path class="cls-5" d="M127.29,153.24a.65.65,0,0,0,.84-.92,14.8,14.8,0,0,1-.85-14.67c4.89-10.93,7.86-16.59,7.86-16.59A39.35,39.35,0,0,0,141,133.55c4.13,5.65,6.39,12.76,2.74,18.68a.65.65,0,0,0,.84.91c4.51-2.31,9.57-6.93,10.14-16.14a31.5,31.5,0,0,0-1.68-11.72c-2-6.3-4.52-9.24-6-10.5a.65.65,0,0,0-1.07.53c.42,6.8-2.14,8.52-3.59,4.63a23.79,23.79,0,0,1-.92-7.51,25.67,25.67,0,0,0-5.06-15.6,17.67,17.67,0,0,0-3.18-3.23.65.65,0,0,0-1,.56c.27,3.69,0,14.27-9.25,26.91-8.41,11.72-5.15,20.72-4,23.16A19.08,19.08,0,0,0,127.29,153.24Z"/><path class="cls-5" d="M103,206.47a12.88,12.88,0,0,1-1.11,5.52,8.39,8.39,0,0,1-3.19,3.66,9.42,9.42,0,0,1-9.49,0A8.47,8.47,0,0,1,85.95,212a12.51,12.51,0,0,1-1.16-5.44v-1.05A12.8,12.8,0,0,1,85.92,200a8.45,8.45,0,0,1,3.21-3.68,9.4,9.4,0,0,1,9.48,0,8.46,8.46,0,0,1,3.21,3.68,12.78,12.78,0,0,1,1.13,5.53Zm-4.45-1a9,9,0,0,0-1.2-5.1,4.24,4.24,0,0,0-6.84,0,8.88,8.88,0,0,0-1.22,5v1a9.09,9.09,0,0,0,1.2,5.07,4.21,4.21,0,0,0,6.86.07,9,9,0,0,0,1.2-5.06Z"/><path class="cls-5" d="M123.49,216.65H119.1l-8.55-14v14h-4.39V195.32h4.39l8.57,14.06V195.32h4.38Z"/><path class="cls-5" d="M131.72,213.12h9.33v3.53H127.33V195.32h4.39Z"/><path class="cls-5" d="M148.25,216.65h-4.39V195.32h4.39Z"/><path class="cls-5" d="M169.66,216.65h-4.39l-8.55-14v14h-4.39V195.32h4.39l8.57,14.06V195.32h4.38Z"/><path class="cls-5" d="M186.33,207.38h-8.44v5.74h9.9v3.53H173.5V195.32h14.27v3.56h-9.87V204h8.44Z"/><path class="cls-5" d="M92.28,252.65V231.32h6.56a10,10,0,0,1,5,1.27,8.83,8.83,0,0,1,3.46,3.6,11.11,11.11,0,0,1,1.25,5.31v1a11.15,11.15,0,0,1-1.22,5.29,8.76,8.76,0,0,1-3.45,3.59,10,10,0,0,1-5,1.29Zm4.39-17.77v14.24H98.8a4.77,4.77,0,0,0,3.94-1.68,7.61,7.61,0,0,0,1.39-4.82v-1.13a7.74,7.74,0,0,0-1.35-4.93,4.76,4.76,0,0,0-3.94-1.68Z"/><path class="cls-5" d="M124.61,243.38h-8.44v5.74h9.9v3.53h-14.3V231.32H126v3.56h-9.87V240h8.44Z"/><path class="cls-5" d="M140.69,248.26H133l-1.46,4.39h-4.67l7.94-21.33h4.07l8,21.33h-4.67Zm-6.52-3.56h5.33l-2.68-8Z"/><path class="cls-5" d="M153.23,249.12h9.33v3.53H148.84V231.32h4.39Z"/><path class="cls-5" d="M176.14,247.06a2.26,2.26,0,0,0-.88-1.91,11.59,11.59,0,0,0-3.16-1.41,22.34,22.34,0,0,1-3.62-1.46q-3.63-2-3.63-5.29a5.14,5.14,0,0,1,1-3.08,6.35,6.35,0,0,1,2.8-2.12,10.54,10.54,0,0,1,4.09-.76,9.59,9.59,0,0,1,4.07.83,6.49,6.49,0,0,1,2.78,2.34,6.12,6.12,0,0,1,1,3.43h-4.39a2.87,2.87,0,0,0-.92-2.28,3.79,3.79,0,0,0-2.59-.81,4.06,4.06,0,0,0-2.5.68,2.15,2.15,0,0,0-.89,1.79,2.06,2.06,0,0,0,1,1.74,11.84,11.84,0,0,0,3.08,1.32,13.32,13.32,0,0,1,5.46,2.8,5.57,5.57,0,0,1,1.71,4.16,5.13,5.13,0,0,1-2.09,4.34,9.17,9.17,0,0,1-5.64,1.57,10.91,10.91,0,0,1-4.48-.9,7.1,7.1,0,0,1-3.08-2.47,6.32,6.32,0,0,1-1.06-3.63h4.41q0,3.53,4.22,3.53a4.1,4.1,0,0,0,2.45-.64A2.07,2.07,0,0,0,176.14,247.06Z"/><path class="cls-5" d="M117.33,179.25a7.06,7.06,0,0,1-2.81-1.36,2.6,2.6,0,0,1-.88-2,2.75,2.75,0,0,1,1.07-2.22,4.27,4.27,0,0,1,2.79-.88,4.67,4.67,0,0,1,2.09.45,3.43,3.43,0,0,1,1.42,1.25,3.2,3.2,0,0,1,.5,1.74H120a2.08,2.08,0,0,0-.66-1.63,2.67,2.67,0,0,0-1.85-.59,2.73,2.73,0,0,0-1.73.49,1.63,1.63,0,0,0-.62,1.36,1.47,1.47,0,0,0,.59,1.18,5.79,5.79,0,0,0,2,.88,9.34,9.34,0,0,1,2.22.88,3.37,3.37,0,0,1,1.19,1.12,2.86,2.86,0,0,1,.39,1.51,2.66,2.66,0,0,1-1.08,2.21,4.6,4.6,0,0,1-2.88.83,5.34,5.34,0,0,1-2.19-.45,3.69,3.69,0,0,1-1.57-1.23,3,3,0,0,1-.55-1.77h1.51a2,2,0,0,0,.76,1.63,3.21,3.21,0,0,0,2,.6,3,3,0,0,0,1.82-.48,1.57,1.57,0,0,0,.63-1.32,1.54,1.54,0,0,0-.59-1.29A6.75,6.75,0,0,0,117.33,179.25Z"/><path class="cls-5" d="M126.75,184.47a3.69,3.69,0,0,1-2.8-1.13,4.19,4.19,0,0,1-1.08-3v-.27a5.07,5.07,0,0,1,.48-2.25,3.75,3.75,0,0,1,1.34-1.55,3.38,3.38,0,0,1,1.87-.56,3.17,3.17,0,0,1,2.56,1.09,4.7,4.7,0,0,1,.91,3.11v.6h-5.73a3,3,0,0,0,.73,2,2.3,2.3,0,0,0,1.78.77,2.52,2.52,0,0,0,1.3-.31,3.25,3.25,0,0,0,.93-.83l.88.69A3.55,3.55,0,0,1,126.75,184.47Zm-.18-7.58a1.93,1.93,0,0,0-1.47.64,3.1,3.1,0,0,0-.73,1.79h4.23v-.11a2.75,2.75,0,0,0-.59-1.71A1.82,1.82,0,0,0,126.57,176.9Z"/><path class="cls-5" d="M135.23,184.47a3.69,3.69,0,0,1-2.8-1.13,4.19,4.19,0,0,1-1.08-3v-.27a5.07,5.07,0,0,1,.48-2.25,3.75,3.75,0,0,1,1.34-1.55,3.38,3.38,0,0,1,1.87-.56,3.17,3.17,0,0,1,2.56,1.09,4.7,4.7,0,0,1,.91,3.11v.6H132.8a3,3,0,0,0,.73,2,2.3,2.3,0,0,0,1.78.77,2.52,2.52,0,0,0,1.3-.31,3.25,3.25,0,0,0,.93-.83l.88.69A3.55,3.55,0,0,1,135.23,184.47ZM135,176.9a1.93,1.93,0,0,0-1.47.64,3.1,3.1,0,0,0-.73,1.79h4.23v-.11a2.75,2.75,0,0,0-.59-1.71A1.82,1.82,0,0,0,135,176.9Z"/><path class="cls-5" d="M149.37,184.32a3,3,0,0,1-.2-.89,3.22,3.22,0,0,1-2.41,1,3,3,0,0,1-2.05-.71,2.29,2.29,0,0,1-.8-1.79,2.39,2.39,0,0,1,1-2.05,4.73,4.73,0,0,1,2.82-.73h1.41v-.66a1.63,1.63,0,0,0-.45-1.21,1.82,1.82,0,0,0-1.34-.45,2.1,2.1,0,0,0-1.3.39,1.15,1.15,0,0,0-.52.95h-1.45a2,2,0,0,1,.45-1.22,3.07,3.07,0,0,1,1.22-.93,4.09,4.09,0,0,1,1.69-.34,3.34,3.34,0,0,1,2.29.73,2.64,2.64,0,0,1,.86,2v3.89a4.75,4.75,0,0,0,.3,1.85v.13Zm-2.4-1.1a2.54,2.54,0,0,0,1.29-.35,2.13,2.13,0,0,0,.88-.91v-1.73H148q-2.66,0-2.66,1.55a1.32,1.32,0,0,0,.45,1.06A1.74,1.74,0,0,0,147,183.22Z"/><path class="cls-5" d="M154.43,184.32H153v-12h1.45Z"/><path class="cls-5" d="M158.31,184.32h-1.45v-12h1.45Z"/><circle class="cls-6" cx="136" cy="383.5" r="15"/><path class="cls-5" d="M139.38,383.54a.39.39,0,0,1-.12.28l-5.72,5.72a.39.39,0,0,1-.56,0l-.61-.61a.39.39,0,0,1,0-.57l4.83-4.82-4.83-4.83a.39.39,0,0,1,0-.56l.61-.61a.39.39,0,0,1,.56,0l5.72,5.72A.39.39,0,0,1,139.38,383.54Z"/></g></g></svg>