<svg xmlns="http://www.w3.org/2000/svg" viewBox="0 0 47.14 47.14"><defs><style>.cls-1{fill:#6dbe46;}</style></defs><title>reason3</title><g id="Capa_2" data-name="Capa 2"><g id="Layer_2" data-name="Layer 2"><path class="cls-1" d="M11.74,3.16A23.05,23.05,0,0,1,23.57,0,23.07,23.07,0,0,1,35.4,3.16,23.49,23.49,0,0,1,44,11.74a23.06,23.06,0,0,1,3.16,11.83A23.06,23.06,0,0,1,44,35.4,23.46,23.46,0,0,1,35.4,44a23.07,23.07,0,0,1-11.83,3.16A23.05,23.05,0,0,1,11.74,44,23.42,23.42,0,0,1,3.16,35.4,23,23,0,0,1,0,23.57,23,23,0,0,1,3.16,11.74,23.44,23.44,0,0,1,11.74,3.16ZM32,16a1.64,1.64,0,0,0-.29.29.77.77,0,0,1-.41.29s.09-.05.14-.15.1-.21.15-.34a.92.92,0,0,1,.11-.21,2.3,2.3,0,0,1,.67-.46,7.79,7.79,0,0,1,1.6-.37,1.5,1.5,0,0,1,1.57.34s.06-.17.29-.4a2,2,0,0,1,.44-.37,1.67,1.67,0,0,1,.46-.14.67.67,0,0,0,.46-.23l.06-.67a.54.54,0,0,1-.54-.21,1.3,1.3,0,0,1-.2-.64s-.06.12-.18.24c0-.14,0-.22-.14-.24a.75.75,0,0,0-.35,0,.51.51,0,0,1-.28,0,1.2,1.2,0,0,1-.46-.23,1,1,0,0,1-.24-.5c-.06-.25-.1-.4-.13-.46a.82.82,0,0,0-.29-.32.79.79,0,0,1-.29-.32L34,10.76l-.09-.2a.66.66,0,0,0-.12-.17.23.23,0,0,0-.17-.07q-.09,0-.21.15l-.23.31c-.07.1-.12.15-.14.15a.26.26,0,0,0-.18,0l-.14,0-.14.09-.15.11a.71.71,0,0,1-.26.09l-.26.06c.31-.1.3-.21,0-.34a1,1,0,0,0-.49-.09.32.32,0,0,0,.23-.37.74.74,0,0,0-.26-.43h.15q0-.12-.26-.26a4.1,4.1,0,0,0-.54-.26,2.67,2.67,0,0,1-.4-.18,3.36,3.36,0,0,0-1-.29,1.87,1.87,0,0,0-1,0,.45.45,0,0,0-.14.32,2,2,0,0,0,.13.43,1.63,1.63,0,0,1,.11.38.5.5,0,0,1-.17.4.59.59,0,0,0-.2.37c0,.14.14.3.43.48a.54.54,0,0,1,.31.66,1.13,1.13,0,0,1-.49.49,2.06,2.06,0,0,0-.49.37.63.63,0,0,0,0,.57A1.11,1.11,0,0,0,28,14a.13.13,0,0,1,0,.12.31.31,0,0,1-.11.14l-.17.13-.2.11-.09.06a.5.5,0,0,1-.63-.18,1.92,1.92,0,0,1-.41-.8,1.55,1.55,0,0,0-.49-.92c-.47-.16-.77-.15-.89,0-.1-.27-.52-.53-1.26-.8a3.64,3.64,0,0,0-1.78-.12c.12,0,.12-.17,0-.46s-.34-.43-.58-.37a1.52,1.52,0,0,0,.12-.54c0-.23,0-.37,0-.41A1.55,1.55,0,0,1,22,9.27L22.22,9a3.79,3.79,0,0,0,.29-.41c.07-.12.08-.18,0-.18a1.81,1.81,0,0,0,1.53-.34,2.43,2.43,0,0,0,.36-.52A3.69,3.69,0,0,1,24.74,7a.72.72,0,0,1,.43-.17,1.38,1.38,0,0,1,.44.17,1,1,0,0,0,.44.16c.29,0,.44-.09.47-.34a.66.66,0,0,0-.23-.61c.24,0,.28-.16.09-.52a1.23,1.23,0,0,0-.24-.28,1,1,0,0,0-.83.16c-.16.08-.14.16.06.24,0,0-.12.09-.29.32a2.62,2.62,0,0,1-.51.54c-.16.12-.33.07-.49-.15a2.41,2.41,0,0,1-.17-.41c-.09-.26-.19-.39-.29-.41s-.33.15-.49.46c.06-.16-.05-.32-.34-.46a2.18,2.18,0,0,0-.74-.24c.39-.25.31-.52-.25-.83a1.54,1.54,0,0,0-.63-.16.84.84,0,0,0-.6.13.86.86,0,0,0-.17.35.26.26,0,0,0,.16.24,1.88,1.88,0,0,0,.32.17l.35.12.26.09c.28.2.37.35.24.43l-.26.11-.35.14a.36.36,0,0,0-.18.12.52.52,0,0,0,0,.43c.06.21,0,.35-.06.43a1.34,1.34,0,0,1-.28-.54,1.89,1.89,0,0,0-.21-.51c.14.18-.11.25-.77.18l-.31,0-.49.06a2.25,2.25,0,0,1-.63,0,.57.57,0,0,1-.41-.25.77.77,0,0,1,0-.61c0-.08.06-.1.12-.06a4.23,4.23,0,0,1-.34-.29A3.13,3.13,0,0,0,17.28,5a17.3,17.3,0,0,0-2.88,1.26.75.75,0,0,0,.37,0,3.66,3.66,0,0,0,.4-.2l.31-.17q1-.43,1.29-.21l.16-.15a7.65,7.65,0,0,1,.61.77,1.73,1.73,0,0,0-.92,0c-.41.13-.64.25-.67.37a.76.76,0,0,1,.15.55,4.55,4.55,0,0,1-.35-.31,2.53,2.53,0,0,0-.44-.34,1.23,1.23,0,0,0-.46-.15,4.81,4.81,0,0,0-.67,0,19.38,19.38,0,0,0-7.21,6.81.83.83,0,0,0,.37.25c.08,0,.13.11.16.27a1.11,1.11,0,0,0,.07.34c0,.06.15,0,.36-.09a.43.43,0,0,1,.09.58,11.69,11.69,0,0,1,1.35.83A4.11,4.11,0,0,1,10,16c.06.22,0,.41-.31.55a1.6,1.6,0,0,0-.27-.28c-.16-.14-.26-.18-.28-.12a.83.83,0,0,0,0,.57q.11.42.32.38c-.14,0-.24.16-.29.49a6.81,6.81,0,0,0-.08,1.09,5,5,0,0,1,0,.72l.06,0a1.9,1.9,0,0,0,.17,1.06c.17.46.39.66.66.6-.27.06-.06.5.61,1.32a1.2,1.2,0,0,0,.24.28l.37.23.46.31a1.3,1.3,0,0,1,.3.32,2.59,2.59,0,0,1,.31.69,1.5,1.5,0,0,0,.43.72c0,.12.06.33.29.61a1.05,1.05,0,0,1,.32.7l-.08,0-.07,0a1,1,0,0,0,.47.43,1.11,1.11,0,0,1,.47.4,1.91,1.91,0,0,1,.06.3,1.15,1.15,0,0,0,.09.34c0,.08.12.1.24.06a3.62,3.62,0,0,0-.74-1.9c-.31-.51-.48-.81-.52-.89a1.79,1.79,0,0,1-.17-.47,2.45,2.45,0,0,0-.14-.44.6.6,0,0,1,.18,0l.26.11.23.12c.06,0,.08.07.06.09a.66.66,0,0,0,.06.54,2.44,2.44,0,0,0,.37.57l.52.58.37.4a3.25,3.25,0,0,1,.43.6c.16.28.16.41,0,.41a1,1,0,0,1,.61.31,2.72,2.72,0,0,1,.52.61,2.34,2.34,0,0,1,.25.8,5.57,5.57,0,0,0,.15.74,1,1,0,0,0,.26.41,1.54,1.54,0,0,0,.38.29l.49.25.4.21a4.08,4.08,0,0,1,.57.32,4,4,0,0,0,.66.35,1.43,1.43,0,0,0,.49.12,1.64,1.64,0,0,0,.44-.08l.41-.11a1,1,0,0,1,.89.46,3,3,0,0,0,.64.64,2.1,2.1,0,0,0,1.69.34s0,.1,0,.23a2.83,2.83,0,0,0,.25.47l.27.44.17.26a3,3,0,0,0,.55.46,3,3,0,0,1,.55.46.45.45,0,0,0,.21-.27c-.06.16,0,.37.21.61s.39.35.55.3.43-.39.43-1a1,1,0,0,1-1.5-.55.54.54,0,0,0-.07-.17,1.88,1.88,0,0,1-.13-.26,1.65,1.65,0,0,1-.07-.26.42.42,0,0,1,0-.23c0-.06.07-.09.15-.09s.29,0,.31-.11a.76.76,0,0,0-.06-.38c-.06-.18-.1-.32-.12-.4a1.32,1.32,0,0,0-.34-.61c-.21-.25-.33-.4-.37-.46a.47.47,0,0,1-.49.25.6.6,0,0,1-.49-.28,1,1,0,0,1,0,.17.75.75,0,0,0,0,.2,1.69,1.69,0,0,1-.46,0,3.47,3.47,0,0,0,.08-.54,5,5,0,0,1,.11-.69,1.77,1.77,0,0,1,.17-.37c.09-.16.17-.31.23-.44a1.57,1.57,0,0,0,.12-.38.27.27,0,0,0-.14-.29.91.91,0,0,0-.54-.08.85.85,0,0,0-.8.61c0,.06-.05.17-.09.32a1,1,0,0,1-.15.35.72.72,0,0,1-.28.21,1.75,1.75,0,0,1-.73.06,1.78,1.78,0,0,1-.74-.16,1.91,1.91,0,0,1-.69-.89A2.82,2.82,0,0,1,20,28.66a5.7,5.7,0,0,1,.07-.81c.05-.34.08-.59.09-.77a2,2,0,0,0-.17-.75,1.59,1.59,0,0,0,.27-.29,1.92,1.92,0,0,1,.31-.32l.14,0a.28.28,0,0,1,.14,0,.13.13,0,0,0,.12,0,.4.4,0,0,0,.09-.18L21,25.35c-.06-.06-.1-.09-.12-.09a1.78,1.78,0,0,0,.87,0c.44-.09.72-.07.84,0,.31.22.53.2.68-.06a2.83,2.83,0,0,0-.08-.29.64.64,0,0,1,0-.41q.15.83.89.27a1,1,0,0,0,.47.16,1.69,1.69,0,0,1,.54.15l.21.17.17.14s.08,0,.15,0a1,1,0,0,0,.26-.2,2.07,2.07,0,0,1,.37.74q.34,1.23.58,1.35a.55.55,0,0,0,.34.06c.08,0,.13-.12.14-.29a3.4,3.4,0,0,0,0-.43c0-.11,0-.24,0-.38l0-.25v-.55l0-.24a.7.7,0,0,1-.57-.37.67.67,0,0,1,0-.57,2.07,2.07,0,0,1,.46-.57.91.91,0,0,1,.24-.11,4.72,4.72,0,0,0,.47-.2,1.43,1.43,0,0,0,.38-.24q.64-.58.46-1.07c.14,0,.26-.09.34-.28a.42.42,0,0,1-.15-.09l-.23-.15-.14-.06c.18-.1.21-.27.06-.49a.57.57,0,0,0,.23-.34.45.45,0,0,1,.23-.31.39.39,0,0,0,.64.06.35.35,0,0,0,0-.49,1,1,0,0,1,.63-.32c.32-.07.51-.17.57-.29.14,0,.22,0,.24-.06a1.65,1.65,0,0,0,0-.37.61.61,0,0,1,.09-.37,1,1,0,0,1,.46-.28l.4-.15.52-.34q.09-.13,0-.13a1.11,1.11,0,0,0,1-.34c.2-.22.14-.43-.18-.61a.2.2,0,0,0-.09-.29,1.61,1.61,0,0,0-.46-.17,1.25,1.25,0,0,1,.35,0q.26,0,.32,0,.46-.31-.21-.49A1.66,1.66,0,0,0,32,16ZM27,42.9a19,19,0,0,0,10.77-5.8.75.75,0,0,0-.38-.14,1,1,0,0,1-.38-.11,4.58,4.58,0,0,0-.74-.24.62.62,0,0,0-.08-.4.83.83,0,0,0-.24-.28l-.38-.24-.34-.21L35,35.29l-.21-.17L34.54,35a.36.36,0,0,0-.26-.06,1.05,1.05,0,0,1-.3,0l-.09,0-.17.08-.17.09a.32.32,0,0,0-.13.09.06.06,0,0,0,0,.08,3.83,3.83,0,0,0-1.1-.68.82.82,0,0,1-.34-.17,2.73,2.73,0,0,0-.32-.21.47.47,0,0,0-.31,0,.7.7,0,0,0-.35.21.73.73,0,0,0-.18.46,2.72,2.72,0,0,1-.06.4q-.22-.15,0-.54c.14-.25.16-.44.06-.57a.26.26,0,0,0-.32-.14,1,1,0,0,0-.37.14l-.36.26a2.21,2.21,0,0,1-.27.2l-.26.17A1.05,1.05,0,0,0,29,35a1.53,1.53,0,0,0-.18.37,2,2,0,0,1-.15.34c0-.08-.16-.15-.35-.2s-.29-.11-.29-.17c0,.21.08.56.12,1.07a9.05,9.05,0,0,0,.15,1.17,1.42,1.42,0,0,1-.37,1.47A2.5,2.5,0,0,0,27,40.32c-.08.45,0,.72.37.8a1.4,1.4,0,0,1-.24.63,1.14,1.14,0,0,0-.21.66A2.78,2.78,0,0,0,27,42.9Z"/></g></g></svg>