<svg xmlns="http://www.w3.org/2000/svg" viewBox="0 0 59.96 40.34"><defs><style>.cls-1{fill:#6dbe46;}.cls-2{fill:#fff;}</style></defs><title>reason1</title><g id="Capa_2" data-name="Capa 2"><g id="Layer_2" data-name="Layer 2"><path class="cls-1" d="M0,17.77v-.84a2.72,2.72,0,0,0,.19-.3c.56-1.19,1.1-2.38,1.66-3.57,1.28-2.74,2.56-5.47,3.87-8.2a1.1,1.1,0,0,1,.67-.54c1.87-.38,3.74-.71,5.62-1.05l4-.73,4.14-.76,4-.71L27.4.46C28.15.32,28.9.16,29.65,0h.65l2.4.47,6.66,1.22c2.26.42,4.52.88,6.78,1.29s4.65.83,7,1.22a1.42,1.42,0,0,1,1.18.92c.63,1.44,1.33,2.85,2,4.27L60,17.21v.28a1,1,0,0,1-1.32.75c-.37,0-.74-.06-1.1-.1l-3.39-.37L52,17.58l-3.29-.36c-.73-.08-1.47-.12-2.21-.2l-3.29-.36c-.77-.08-1.53-.12-2.3-.2-1.1-.11-2.19-.26-3.29-.36a1,1,0,0,1-.83-.62c-.18-.39-.32-.79-.49-1.18-.82-1.84-1.66-3.67-2.48-5.51C32.53,5.9,31.26,3,30,0c-.27.58-.51,1.07-.73,1.57q-1.46,3.28-2.91,6.56c-.55,1.24-1.08,2.49-1.62,3.73s-1.05,2.4-1.62,3.58a1.12,1.12,0,0,1-.66.57,18.84,18.84,0,0,1-2,.21l-2.16.2-3.29.36c-.73.08-1.47.12-2.21.2l-3.48.37-2.16.2L3.81,18c-.79.09-1.58.19-2.38.26C.9,18.27.34,18.36,0,17.77Z"/><path class="cls-1" d="M29.15,40.34c0-.22,0-.28,0-.34q0-15.39,0-30.77A6.44,6.44,0,0,0,29,8.13l-.16,0a2.76,2.76,0,0,0-.46.57c-.61,1.43-1.21,2.86-1.8,4.3s-1.23,3-1.9,4.56A1,1,0,0,1,24,18c-1.1.14-2.2.21-3.31.3l-2.58.19L14,18.9l-2.39.2-3.71.37c-.72.07-1.44.11-2.16.21a1,1,0,0,0-.5.36c-.35.39-.12.85-.1,1.28,0,1.19.07,2.39.1,3.58s.07,2.48.09,3.72c0,2,.06,4,.1,6.06a.58.58,0,0,0,0,.14c.1.36.24.73.65.82,1.64.36,3.28.7,4.92,1l9.09,1.88c2,.42,4,.88,6,1.29C27.11,40,28.11,40.17,29.15,40.34Zm1.63-.11a2.59,2.59,0,0,0,.36,0c1.21-.19,2.42-.35,3.62-.59,2-.4,3.93-.86,5.9-1.27,2.18-.46,4.36-.88,6.54-1.34l6.08-1.29c1-.2,1.11-.34,1.16-1,.07-.93.08-1.86.1-2.79,0-1.21.07-2.42.09-3.63,0-2.15.06-4.29.1-6.44,0-.43.09-.86.08-1.29a.84.84,0,0,0-.87-.92l-2.3-.2c-1.22-.12-2.44-.25-3.67-.36-.91-.08-1.82-.11-2.72-.2-1.54-.14-3.09-.32-4.63-.46-1.27-.11-2.55-.22-3.83-.28-1,0-1.76-.33-1.92-1.45a.8.8,0,0,0-.08-.17c-.78-1.89-1.55-3.78-2.34-5.66-.36-.86-.74-1.7-1.12-2.54A.38.38,0,0,0,31,8.16c-.1,0-.19.17-.23.28a1.15,1.15,0,0,0,0,.37q0,15.46,0,30.91Z"/><path class="cls-1" d="M29.15,40.34c-1-.17-2-.29-3-.5-2-.41-4-.87-6-1.29L11,36.67c-1.64-.34-3.28-.68-4.92-1-.41-.09-.55-.45-.65-.82a.58.58,0,0,1,0-.14c0-2-.06-4-.1-6.06,0-1.24-.06-2.48-.09-3.72s-.06-2.39-.1-3.58c0-.43-.24-.89.1-1.28a1,1,0,0,1,.5-.36c.72-.1,1.44-.14,2.16-.21l3.71-.37L14,18.9l4.09-.37,2.58-.19c1.1-.09,2.21-.16,3.31-.3a1,1,0,0,0,.68-.52c.66-1.51,1.27-3,1.9-4.56s1.19-2.87,1.8-4.3a2.76,2.76,0,0,1,.46-.57l.16,0a6.44,6.44,0,0,1,.19,1.09q0,15.39,0,30.77C29.19,40.05,29.17,40.11,29.15,40.34ZM17.87,30c0,1.31,0,2.58,0,3.86,0,.11.23.29.38.32.68.12,1.36.19,2,.3l5.39.9V30Z"/><path class="cls-1" d="M30.78,40.23v-.5q0-15.46,0-30.91a1.15,1.15,0,0,1,0-.37c0-.11.14-.27.23-.28a.38.38,0,0,1,.31.18c.39.84.77,1.69,1.12,2.54.79,1.88,1.56,3.77,2.34,5.66a.8.8,0,0,1,.08.17c.16,1.12.93,1.4,1.92,1.45,1.28.06,2.55.16,3.83.28,1.55.14,3.09.32,4.63.46.91.08,1.82.12,2.72.2,1.22.11,2.44.25,3.67.36l2.3.2a.84.84,0,0,1,.87.92c0,.43-.08.86-.08,1.29,0,2.15-.06,4.29-.1,6.44,0,1.21-.06,2.42-.09,3.63,0,.93,0,1.86-.1,2.79-.05.69-.2.82-1.16,1L47.19,37c-2.18.45-4.36.88-6.54,1.34-2,.41-3.93.88-5.9,1.27-1.2.24-2.41.4-3.62.59A2.59,2.59,0,0,1,30.78,40.23ZM42.56,27.32v.57q0,2.94,0,5.89c0,.49.24.67.72.58a8.34,8.34,0,0,1,1-.11c1-.06,1.22-.28,1.22-1.29q0-2.1,0-4.21V27.22c.39,0,.73,0,1.06,0a.45.45,0,0,0,.38-.75q-1.14-1.66-2.3-3.3a.72.72,0,0,0-1.06,0q-1.35,1.74-2.67,3.5c-.24.31-.12.64.27.69A13.09,13.09,0,0,0,42.56,27.32Z"/><path class="cls-2" d="M17.87,30H25.7v5.38l-5.39-.9c-.68-.11-1.36-.18-2-.3-.15,0-.38-.21-.38-.32C17.86,32.63,17.87,31.36,17.87,30Z"/><path class="cls-2" d="M42.56,27.32a13.09,13.09,0,0,1-1.41,0c-.39,0-.51-.37-.27-.69q1.32-1.76,2.67-3.5a.72.72,0,0,1,1.06,0q1.16,1.65,2.3,3.3a.45.45,0,0,1-.38.75c-.34,0-.68,0-1.06,0v1.52q0,2.1,0,4.21c0,1-.21,1.23-1.22,1.29a8.34,8.34,0,0,0-1,.11c-.48.09-.72-.09-.72-.58q0-2.94,0-5.89Z"/></g></g></svg>