<svg xmlns="http://www.w3.org/2000/svg" viewBox="0 0 69.55 40.34"><defs><style>.cls-1{fill:#6dbe46;}</style></defs><title>reason2</title><g id="Capa_2" data-name="Capa 2"><g id="Layer_2" data-name="Layer 2"><path class="cls-1" d="M67.8,26.24V25.5L61.54,4.92H47.68V0H14.35V12.73H7.25l-3,4h10.1v3H3l-3,4H14.35v2.51H12.76V33h1.59v1h1.09a7.6,7.6,0,0,0,15,0H47.49a7.59,7.59,0,0,0,15,0H67.8V33h1.75V26.24ZM22.93,36.76a4,4,0,1,1,4-4A4,4,0,0,1,22.93,36.76ZM39.38,15.81,35.53,19,36,20.35a.2.2,0,0,1,0,.19.2.2,0,0,1-.17.08l-3.88-.43.07,3.8c0,.11-.08.25-.19.25l-.68.15h0c-.05,0-.1-.13-.14-.17a.54.54,0,0,1-.06-.26l.07-3.81-3.81.4A.19.19,0,0,1,27,20.5a.19.19,0,0,1,0-.17l.26-1.39-3.7-3.24a.19.19,0,0,1-.07-.16.2.2,0,0,1,.08-.15l.64-.46-.61-2.51a.19.19,0,0,1,.23-.24l2.18.44.57-1a.2.2,0,0,1,.14-.09.19.19,0,0,1,.16,0l1.93,1.76L28,9a.19.19,0,0,1,.08-.19.19.19,0,0,1,.21,0l1.39.82,1.5-3a.22.22,0,0,1,.17-.11.2.2,0,0,1,.17.11L33.05,9.6l1.44-.8a.19.19,0,0,1,.29.2l-.72,4.33L36,11.49a.19.19,0,0,1,.16-.05.2.2,0,0,1,.14.1l.67,1.16L39,12.16a.19.19,0,0,1,.19.05.2.2,0,0,1,.05.19l-.65,2.54.78.57a.2.2,0,0,1,0,.31ZM55,36.76a4,4,0,1,1,4-4A4,4,0,0,1,55,36.76ZM51.25,17.61V8.5h7.64l2.78,9.11Z"/></g></g></svg>