<svg xmlns="http://www.w3.org/2000/svg" viewBox="0 0 255.78 34.36"><defs><style>.cls-1{fill:#333;}.cls-2{fill:#6dbe46;}</style></defs><title>shopinstoreen</title><g id="Capa_2" data-name="Capa 2"><g id="Layer_2" data-name="Layer 2"><path class="cls-1" d="M16.64,25.06a5,5,0,0,0-1.39-3.78,14.39,14.39,0,0,0-5-2.56,22,22,0,0,1-5.53-2.61A9.35,9.35,0,0,1,1.85,13a8.27,8.27,0,0,1-1-4A8.43,8.43,0,0,1,3.61,2.53,10,10,0,0,1,10.72,0a10.93,10.93,0,0,1,5.36,1.29,9,9,0,0,1,3.62,3.6A10.33,10.33,0,0,1,21,10H16.64a6.76,6.76,0,0,0-1.53-4.73,5.65,5.65,0,0,0-4.4-1.67,5.53,5.53,0,0,0-4,1.4A5.27,5.27,0,0,0,5.24,8.9a4.52,4.52,0,0,0,1.55,3.49,13.92,13.92,0,0,0,4.79,2.51q5.05,1.61,7.23,4A8.71,8.71,0,0,1,21,25a8.17,8.17,0,0,1-2.7,6.41,10.66,10.66,0,0,1-7.36,2.41,12.21,12.21,0,0,1-5.51-1.25,9.73,9.73,0,0,1-4-3.53A9.51,9.51,0,0,1,0,23.84H4.32A6.26,6.26,0,0,0,6.1,28.59a6.7,6.7,0,0,0,4.83,1.7,5.89,5.89,0,0,0,4.28-1.4A5.1,5.1,0,0,0,16.64,25.06Z"/><path class="cls-1" d="M47.82,33.39H43.5V18.16H29.73V33.39h-4.3V.45h4.3V14.61H43.5V.45h4.32Z"/><path class="cls-1" d="M76.32,19.81q0,6.74-3,10.38t-8.48,3.64A10.48,10.48,0,0,1,56.5,30.3q-3.07-3.54-3.18-10v-6.2q0-6.6,3-10.35A10.28,10.28,0,0,1,64.81,0a10.42,10.42,0,0,1,8.43,3.58q3,3.59,3.09,10.24ZM72,14q0-5.23-1.77-7.77a6.18,6.18,0,0,0-5.44-2.54,6.15,6.15,0,0,0-5.37,2.58q-1.82,2.58-1.85,7.6v5.9q0,5,1.82,7.69a6.17,6.17,0,0,0,5.44,2.65,6.13,6.13,0,0,0,5.36-2.44Q72,25.27,72,20.22Z"/><path class="cls-1" d="M86.07,20.49V33.39h-4.3V.45h10.9a10.08,10.08,0,0,1,7.5,2.75,9.93,9.93,0,0,1,2.73,7.32q0,4.75-2.6,7.32A10.26,10.26,0,0,1,93,20.49Zm0-3.55h6.6a5.69,5.69,0,0,0,4.39-1.65,6.73,6.73,0,0,0,1.53-4.74A6.94,6.94,0,0,0,97,5.79,5.46,5.46,0,0,0,92.7,4H86.07Z"/><path class="cls-2" d="M114.07,24.27h-1.9V9.74h1.9Z"/><path class="cls-2" d="M126.73,24.27h-1.91l-6-11.2v11.2h-1.91V9.74h1.91L124.84,21V9.74h1.89Z"/><path class="cls-1" d="M153.35,25.58A5,5,0,0,0,152,21.81a14.39,14.39,0,0,0-5-2.56,22,22,0,0,1-5.53-2.61,9.35,9.35,0,0,1-2.87-3.12,8.27,8.27,0,0,1-1-4,8.43,8.43,0,0,1,2.71-6.45A10,10,0,0,1,147.43.52a10.93,10.93,0,0,1,5.36,1.29,9,9,0,0,1,3.62,3.6,10.33,10.33,0,0,1,1.27,5.06h-4.32a6.76,6.76,0,0,0-1.53-4.73,5.65,5.65,0,0,0-4.4-1.67,5.53,5.53,0,0,0-4,1.4A5.27,5.27,0,0,0,142,9.42a4.52,4.52,0,0,0,1.55,3.49,13.92,13.92,0,0,0,4.79,2.51q5.05,1.61,7.23,4a8.71,8.71,0,0,1,2.17,6.15A8.17,8.17,0,0,1,155,32a10.66,10.66,0,0,1-7.36,2.41,12.21,12.21,0,0,1-5.51-1.25,9.73,9.73,0,0,1-4-3.53,9.51,9.51,0,0,1-1.45-5.21H141a6.26,6.26,0,0,0,1.77,4.75,6.7,6.7,0,0,0,4.83,1.7,5.89,5.89,0,0,0,4.28-1.4A5.1,5.1,0,0,0,153.35,25.58Z"/><path class="cls-1" d="M182.14,4.53h-9V33.91h-4.3V4.53h-9V1h22.28Z"/><path class="cls-1" d="M207.58,20.34q0,6.74-3,10.38t-8.48,3.64a10.48,10.48,0,0,1-8.35-3.54q-3.07-3.54-3.18-10v-6.2q0-6.6,3-10.35A10.28,10.28,0,0,1,196.07.52a10.42,10.42,0,0,1,8.43,3.58q3,3.59,3.09,10.24Zm-4.3-5.77q0-5.23-1.77-7.77a7,7,0,0,0-10.81,0q-1.82,2.58-1.85,7.6v5.9q0,5,1.82,7.69a7,7,0,0,0,10.8.2q1.74-2.44,1.81-7.49Z"/><path class="cls-1" d="M223.37,20.59h-6V33.91H213V1h9.59q5,0,7.61,2.52t2.59,7.39a10,10,0,0,1-1.4,5.33,8.73,8.73,0,0,1-4,3.43l6.63,14v.27h-4.63Zm-6-3.55h5.22a5.7,5.7,0,0,0,4.31-1.68,6.21,6.21,0,0,0,1.61-4.49q0-6.34-6-6.34h-5.17Z"/><path class="cls-1" d="M253.78,18.69h-12.1V30.36h14.1v3.55h-18.4V1h18.17V4.53H241.68V15.13h12.1Z"/><rect class="cls-2" x="111.05" y="0.77" width="17.7" height="2.62"/><rect class="cls-2" x="111.05" y="30.77" width="17.7" height="2.62"/></g></g></svg>