<svg xmlns="http://www.w3.org/2000/svg" viewBox="0 0 388.83 34.36"><defs><style>.cls-1{fill:#333;}.cls-2{fill:#6dbe46;}</style></defs><title>shopinstorefr</title><g id="Capa_2" data-name="Capa 2"><g id="Layer_2" data-name="Layer 2"><path class="cls-1" d="M18.64,24.77H7.07L4.42,33.39H0L11,.45h3.69l11,32.93H21.34ZM8.2,21.22h9.33l-4.68-15Z"/><path class="cls-1" d="M50.41,22.91q-.28,5.29-3.09,8.11t-7.93,2.82a10,10,0,0,1-8.18-3.77q-3-3.77-3-10.21v-6q0-6.42,3.11-10.16A10.47,10.47,0,0,1,39.78,0q5,0,7.67,2.85T50.41,11H46.06q-.28-4-1.76-5.75a5.64,5.64,0,0,0-4.51-1.72A6.21,6.21,0,0,0,34.4,6.19q-1.88,2.64-1.88,7.72v6q0,5,1.75,7.67a5.73,5.73,0,0,0,5.11,2.67q3.36,0,4.84-1.61t1.83-5.77Z"/><path class="cls-1" d="M77.43,33.39H73.1V18.16H59.33V33.39H55V.45h4.3V14.61H73.1V.45h4.32Z"/><path class="cls-1" d="M100.08,18.16H88V29.83h14.1v3.55H83.68V.45h18.17V4H88V14.61h12.1Z"/><path class="cls-1" d="M126.84,4h-9V33.39h-4.3V4h-9V.45h22.28Z"/><path class="cls-1" d="M147.1,18.16H135V29.83h14.1v3.55h-18.4V.45h18.17V4H135V14.61h12.1Z"/><path class="cls-1" d="M156.61,29.83h16.24v3.55h-21V30.13L167.42,4H152V.45h20.21V3.62Z"/><path class="cls-2" d="M191.83,17.56H186.5v5.15h6.22v1.57H184.6V9.74h8v1.57H186.5V16h5.34Z"/><path class="cls-2" d="M204.47,24.27h-1.91l-6-11.2v11.2h-1.91V9.74h1.91L202.59,21V9.74h1.89Z"/><path class="cls-1" d="M221.86,1l8.93,26.87L239.72,1h5.55V33.91H241V21.08l.4-12.85-9,25.67h-3.29L220.21,8.33l.4,12.76V33.91h-4.3V1Z"/><path class="cls-1" d="M267.85,25.29H256.28l-2.66,8.62h-4.42L260.23,1h3.69l11,32.93h-4.42Zm-10.43-3.55h9.33l-4.68-15Z"/><path class="cls-1" d="M299.57,29.82l-.75.9q-3.24,3.64-9.49,3.64a11.07,11.07,0,0,1-8.71-3.54q-3.16-3.54-3.23-10V14.34q0-6.92,2.88-10.37T288.88.52q4.89,0,7.65,2.61a10.7,10.7,0,0,1,3,7.48h-4.3A8.13,8.13,0,0,0,293.5,5.8a5.79,5.79,0,0,0-4.6-1.73q-3.69,0-5.4,2.32t-1.79,7.41v6.72q0,5,2,7.63a6.63,6.63,0,0,0,5.66,2.66,7.69,7.69,0,0,0,5.29-1.62l.63-.56V21.06H289V17.51h10.55Z"/><path class="cls-1" d="M321.35,25.29H309.79l-2.66,8.62h-4.42L313.74,1h3.69l11,32.93h-4.42Zm-10.43-3.55h9.33l-4.68-15Z"/><path class="cls-1" d="M346.87,25.58a5,5,0,0,0-1.39-3.78,14.41,14.41,0,0,0-5-2.56,22,22,0,0,1-5.54-2.61,9.36,9.36,0,0,1-2.87-3.12,8.27,8.27,0,0,1-1-4,8.44,8.44,0,0,1,2.71-6.45A10,10,0,0,1,340.95.52a10.93,10.93,0,0,1,5.36,1.29,9,9,0,0,1,3.62,3.6,10.33,10.33,0,0,1,1.27,5.06h-4.33a6.76,6.76,0,0,0-1.53-4.73,5.65,5.65,0,0,0-4.4-1.67,5.53,5.53,0,0,0-4,1.4,5.26,5.26,0,0,0-1.43,3.94A4.51,4.51,0,0,0,337,12.91a13.9,13.9,0,0,0,4.79,2.51q5.05,1.61,7.23,4a8.71,8.71,0,0,1,2.17,6.15,8.17,8.17,0,0,1-2.7,6.41,10.66,10.66,0,0,1-7.36,2.41,12.21,12.21,0,0,1-5.51-1.25,9.74,9.74,0,0,1-4-3.53,9.51,9.51,0,0,1-1.45-5.21h4.32a6.26,6.26,0,0,0,1.78,4.75,6.7,6.7,0,0,0,4.83,1.7,5.89,5.89,0,0,0,4.28-1.4A5.1,5.1,0,0,0,346.87,25.58Z"/><path class="cls-1" d="M360.14,33.91h-4.3V1h4.3Z"/><path class="cls-1" d="M388.83,33.91h-4.32L370.81,8.53V33.91h-4.32V1h4.32l13.75,25.49V1h4.28Z"/><rect class="cls-2" x="184.18" y="0.77" width="20.7" height="2.62"/><rect class="cls-2" x="184.18" y="30.77" width="20.7" height="2.62"/></g></g></svg>