<svg id="Capa_1" data-name="Capa 1" xmlns="http://www.w3.org/2000/svg" viewBox="0 0 31.69 18.38"><defs><style>.cls-1{fill:#88bc51;}</style></defs><title>Mesa de trabajo 1</title><path class="cls-1" d="M30.89,12v-.34L28,2.24H21.72V0H6.54V5.8H3.3L1.94,7.62h4.6V9H1.37L0,10.81H6.54V12H5.81V15h.72v.46H7a3.46,3.46,0,0,0,6.83,0h7.78a3.46,3.46,0,0,0,6.82,0h2.43V15h.8V12ZM10.44,16.75a1.84,1.84,0,1,1,1.83-1.84A1.84,1.84,0,0,1,10.44,16.75Zm7.5-9.54L16.19,8.64l.19.63a.09.09,0,0,1,0,.08.09.09,0,0,1-.08,0L14.52,9.2l0,1.73s0,.11-.08.12l-.31.07h0s0-.06-.06-.08a.25.25,0,0,1,0-.12l0-1.73-1.74.18a.09.09,0,0,1-.07,0,.09.09,0,0,1,0-.08l.12-.63L10.7,7.15a.09.09,0,0,1,0-.07.09.09,0,0,1,0-.07L11,6.8l-.28-1.14a.09.09,0,0,1,.1-.11l1,.2.26-.45a.09.09,0,0,1,.06,0,.09.09,0,0,1,.07,0l.88.8-.34-2a.09.09,0,0,1,0-.09.09.09,0,0,1,.1,0l.63.37L14.2,3a.1.1,0,0,1,.08,0,.09.09,0,0,1,.08,0l.7,1.34L15.72,4a.09.09,0,0,1,.13.09l-.33,2,.86-.83a.09.09,0,0,1,.07,0,.09.09,0,0,1,.06,0l.31.53.94-.24a.09.09,0,0,1,.09,0,.09.09,0,0,1,0,.09l-.29,1.16.36.26a.09.09,0,0,1,0,.14ZM25,16.75a1.84,1.84,0,1,1,1.83-1.84A1.84,1.84,0,0,1,25,16.75ZM23.35,8V3.87h3.48L28.09,8Z"/></svg>